%TF.GenerationSoftware,KiCad,Pcbnew,8.0.6*%
%TF.CreationDate,2024-11-04T15:23:11-08:00*%
%TF.ProjectId,201_final_project_sensor_array,3230315f-6669-46e6-916c-5f70726f6a65,rev?*%
%TF.SameCoordinates,Original*%
%TF.FileFunction,Copper,L2,Bot*%
%TF.FilePolarity,Positive*%
%FSLAX46Y46*%
G04 Gerber Fmt 4.6, Leading zero omitted, Abs format (unit mm)*
G04 Created by KiCad (PCBNEW 8.0.6) date 2024-11-04 15:23:11*
%MOMM*%
%LPD*%
G01*
G04 APERTURE LIST*
%TA.AperFunction,ComponentPad*%
%ADD10C,1.600000*%
%TD*%
%TA.AperFunction,ComponentPad*%
%ADD11R,1.800000X1.800000*%
%TD*%
%TA.AperFunction,ComponentPad*%
%ADD12C,1.800000*%
%TD*%
%TA.AperFunction,ComponentPad*%
%ADD13R,1.700000X1.700000*%
%TD*%
%TA.AperFunction,ComponentPad*%
%ADD14O,1.700000X1.700000*%
%TD*%
%TA.AperFunction,ComponentPad*%
%ADD15C,6.400000*%
%TD*%
%TA.AperFunction,ComponentPad*%
%ADD16O,1.600000X1.600000*%
%TD*%
G04 APERTURE END LIST*
D10*
%TO.P,A13,1*%
%TO.N,/A13*%
X158000000Y-100000000D03*
%TO.P,A13,2*%
%TO.N,GND*%
X158000000Y-103000000D03*
%TD*%
D11*
%TO.P,GND,1,K*%
%TO.N,GND*%
X164000000Y-100000000D03*
D12*
%TO.P,GND,2,A*%
%TO.N,Net-(D1-A)*%
X164000000Y-102540000D03*
%TD*%
D10*
%TO.P,A11,1*%
%TO.N,/A11*%
X133500000Y-100000000D03*
%TO.P,A11,2*%
%TO.N,GND*%
X133500000Y-103000000D03*
%TD*%
%TO.P,A12,1*%
%TO.N,/A12*%
X146000000Y-100000000D03*
%TO.P,A12,2*%
%TO.N,GND*%
X146000000Y-103000000D03*
%TD*%
D13*
%TO.P,VCC,1,Pin_1*%
%TO.N,VCC*%
X98225000Y-75000000D03*
D14*
%TO.P,VCC,2,Pin_2*%
%TO.N,GND*%
X100765000Y-75000000D03*
%TD*%
D15*
%TO.P,H4,1,1*%
%TO.N,GND*%
X95500000Y-110500000D03*
%TD*%
D11*
%TO.P,GND,1,K*%
%TO.N,GND*%
X140000000Y-100000000D03*
D12*
%TO.P,GND,2,A*%
%TO.N,Net-(D1-A)*%
X140000000Y-102540000D03*
%TD*%
D11*
%TO.P,GND,1,K*%
%TO.N,GND*%
X127000000Y-100000000D03*
D12*
%TO.P,GND,2,A*%
%TO.N,Net-(D1-A)*%
X127000000Y-102540000D03*
%TD*%
D10*
%TO.P,1k,1*%
%TO.N,VCC*%
X158000000Y-84420000D03*
D16*
%TO.P,1k,2*%
%TO.N,/A13*%
X158000000Y-94580000D03*
%TD*%
D10*
%TO.P,A9,1*%
%TO.N,/A9*%
X108500000Y-100000000D03*
%TO.P,A9,2*%
%TO.N,GND*%
X108500000Y-103000000D03*
%TD*%
D15*
%TO.P,H1,1,1*%
%TO.N,GND*%
X170500000Y-110500000D03*
%TD*%
D11*
%TO.P,GND,1,K*%
%TO.N,GND*%
X152000000Y-100000000D03*
D12*
%TO.P,GND,2,A*%
%TO.N,Net-(D1-A)*%
X152000000Y-102540000D03*
%TD*%
D10*
%TO.P,A14,1*%
%TO.N,/A14*%
X170500000Y-100000000D03*
%TO.P,A14,2*%
%TO.N,GND*%
X170500000Y-103000000D03*
%TD*%
%TO.P,1k,1*%
%TO.N,VCC*%
X102000000Y-84420000D03*
D16*
%TO.P,1k,2*%
%TO.N,/A8*%
X102000000Y-94580000D03*
%TD*%
D10*
%TO.P,1k,1*%
%TO.N,VCC*%
X170500000Y-84500000D03*
D16*
%TO.P,1k,2*%
%TO.N,/A14*%
X170500000Y-94660000D03*
%TD*%
D11*
%TO.P,GND,1,K*%
%TO.N,GND*%
X102000000Y-100000000D03*
D12*
%TO.P,GND,2,A*%
%TO.N,Net-(D1-A)*%
X102000000Y-102540000D03*
%TD*%
D13*
%TO.P,J1,1,Pin_1*%
%TO.N,/A8*%
X130840000Y-75000000D03*
D14*
%TO.P,J1,2,Pin_2*%
%TO.N,/A9*%
X133380000Y-75000000D03*
%TO.P,J1,3,Pin_3*%
%TO.N,/A10*%
X135920000Y-75000000D03*
%TO.P,J1,4,Pin_4*%
%TO.N,/A11*%
X138460000Y-75000000D03*
%TO.P,J1,5,Pin_5*%
%TO.N,/A12*%
X141000000Y-75000000D03*
%TO.P,J1,6,Pin_6*%
%TO.N,/A13*%
X143540000Y-75000000D03*
%TO.P,J1,7,Pin_7*%
%TO.N,/A14*%
X146080000Y-75000000D03*
%TD*%
D10*
%TO.P,330,1*%
%TO.N,VCC*%
X96000000Y-84420000D03*
D16*
%TO.P,330,2*%
%TO.N,Net-(D1-A)*%
X96000000Y-94580000D03*
%TD*%
D15*
%TO.P,H3,1,1*%
%TO.N,GND*%
X95500000Y-60500000D03*
%TD*%
%TO.P,H2,1,1*%
%TO.N,GND*%
X170500000Y-60500000D03*
%TD*%
D10*
%TO.P,A10,1*%
%TO.N,/A10*%
X121000000Y-100000000D03*
%TO.P,A10,2*%
%TO.N,GND*%
X121000000Y-103000000D03*
%TD*%
%TO.P,1k,1*%
%TO.N,VCC*%
X121000000Y-84500000D03*
D16*
%TO.P,1k,2*%
%TO.N,/A10*%
X121000000Y-94660000D03*
%TD*%
D10*
%TO.P,A8,1*%
%TO.N,/A8*%
X96000000Y-100000000D03*
%TO.P,A8,2*%
%TO.N,GND*%
X96000000Y-103000000D03*
%TD*%
%TO.P,1k,1*%
%TO.N,VCC*%
X108500000Y-84420000D03*
D16*
%TO.P,1k,2*%
%TO.N,/A9*%
X108500000Y-94580000D03*
%TD*%
D10*
%TO.P,1k,1*%
%TO.N,VCC*%
X133500000Y-84500000D03*
D16*
%TO.P,1k,2*%
%TO.N,/A11*%
X133500000Y-94660000D03*
%TD*%
D11*
%TO.P,GND,1,K*%
%TO.N,GND*%
X115000000Y-100000000D03*
D12*
%TO.P,GND,2,A*%
%TO.N,Net-(D1-A)*%
X115000000Y-102540000D03*
%TD*%
D10*
%TO.P,1k,1*%
%TO.N,VCC*%
X146000000Y-84420000D03*
D16*
%TO.P,1k,2*%
%TO.N,/A12*%
X146000000Y-94580000D03*
%TD*%
%TA.AperFunction,Conductor*%
%TO.N,GND*%
G36*
X174642539Y-56320185D02*
G01*
X174688294Y-56372989D01*
X174699500Y-56424500D01*
X174699500Y-114575500D01*
X174679815Y-114642539D01*
X174627011Y-114688294D01*
X174575500Y-114699500D01*
X91424500Y-114699500D01*
X91357461Y-114679815D01*
X91311706Y-114627011D01*
X91300500Y-114575500D01*
X91300500Y-110499999D01*
X91794922Y-110499999D01*
X91794922Y-110500000D01*
X91815219Y-110887287D01*
X91875886Y-111270323D01*
X91875887Y-111270330D01*
X91976262Y-111644936D01*
X92115244Y-112006994D01*
X92291310Y-112352543D01*
X92502531Y-112677793D01*
X92711095Y-112935350D01*
X92711096Y-112935350D01*
X94205748Y-111440698D01*
X94279588Y-111542330D01*
X94457670Y-111720412D01*
X94559300Y-111794251D01*
X93064648Y-113288903D01*
X93064649Y-113288904D01*
X93322206Y-113497468D01*
X93647456Y-113708689D01*
X93993005Y-113884755D01*
X94355063Y-114023737D01*
X94729669Y-114124112D01*
X94729676Y-114124113D01*
X95112712Y-114184780D01*
X95499999Y-114205078D01*
X95500001Y-114205078D01*
X95887287Y-114184780D01*
X96270323Y-114124113D01*
X96270330Y-114124112D01*
X96644936Y-114023737D01*
X97006994Y-113884755D01*
X97352543Y-113708689D01*
X97677783Y-113497476D01*
X97677785Y-113497475D01*
X97935349Y-113288902D01*
X96440698Y-111794251D01*
X96542330Y-111720412D01*
X96720412Y-111542330D01*
X96794251Y-111440698D01*
X98288902Y-112935349D01*
X98497475Y-112677785D01*
X98497476Y-112677783D01*
X98708689Y-112352543D01*
X98884755Y-112006994D01*
X99023737Y-111644936D01*
X99124112Y-111270330D01*
X99124113Y-111270323D01*
X99184780Y-110887287D01*
X99205078Y-110500000D01*
X99205078Y-110499999D01*
X166794922Y-110499999D01*
X166794922Y-110500000D01*
X166815219Y-110887287D01*
X166875886Y-111270323D01*
X166875887Y-111270330D01*
X166976262Y-111644936D01*
X167115244Y-112006994D01*
X167291310Y-112352543D01*
X167502531Y-112677793D01*
X167711095Y-112935350D01*
X167711096Y-112935350D01*
X169205748Y-111440698D01*
X169279588Y-111542330D01*
X169457670Y-111720412D01*
X169559300Y-111794251D01*
X168064648Y-113288903D01*
X168064649Y-113288904D01*
X168322206Y-113497468D01*
X168647456Y-113708689D01*
X168993005Y-113884755D01*
X169355063Y-114023737D01*
X169729669Y-114124112D01*
X169729676Y-114124113D01*
X170112712Y-114184780D01*
X170499999Y-114205078D01*
X170500001Y-114205078D01*
X170887287Y-114184780D01*
X171270323Y-114124113D01*
X171270330Y-114124112D01*
X171644936Y-114023737D01*
X172006994Y-113884755D01*
X172352543Y-113708689D01*
X172677783Y-113497476D01*
X172677785Y-113497475D01*
X172935349Y-113288902D01*
X171440698Y-111794251D01*
X171542330Y-111720412D01*
X171720412Y-111542330D01*
X171794251Y-111440698D01*
X173288902Y-112935349D01*
X173497475Y-112677785D01*
X173497476Y-112677783D01*
X173708689Y-112352543D01*
X173884755Y-112006994D01*
X174023737Y-111644936D01*
X174124112Y-111270330D01*
X174124113Y-111270323D01*
X174184780Y-110887287D01*
X174205078Y-110500000D01*
X174205078Y-110499999D01*
X174184780Y-110112712D01*
X174124113Y-109729676D01*
X174124112Y-109729669D01*
X174023737Y-109355063D01*
X173884755Y-108993005D01*
X173708689Y-108647456D01*
X173497468Y-108322206D01*
X173288904Y-108064649D01*
X173288903Y-108064648D01*
X171794251Y-109559300D01*
X171720412Y-109457670D01*
X171542330Y-109279588D01*
X171440698Y-109205748D01*
X172935350Y-107711096D01*
X172935350Y-107711095D01*
X172677793Y-107502531D01*
X172352543Y-107291310D01*
X172006994Y-107115244D01*
X171644936Y-106976262D01*
X171270330Y-106875887D01*
X171270323Y-106875886D01*
X170887287Y-106815219D01*
X170500001Y-106794922D01*
X170499999Y-106794922D01*
X170112712Y-106815219D01*
X169729676Y-106875886D01*
X169729669Y-106875887D01*
X169355063Y-106976262D01*
X168993005Y-107115244D01*
X168647456Y-107291310D01*
X168322206Y-107502531D01*
X168064648Y-107711095D01*
X168064648Y-107711096D01*
X169559301Y-109205748D01*
X169457670Y-109279588D01*
X169279588Y-109457670D01*
X169205748Y-109559300D01*
X167711096Y-108064648D01*
X167711095Y-108064648D01*
X167502531Y-108322206D01*
X167291310Y-108647456D01*
X167115244Y-108993005D01*
X166976262Y-109355063D01*
X166875887Y-109729669D01*
X166875886Y-109729676D01*
X166815219Y-110112712D01*
X166794922Y-110499999D01*
X99205078Y-110499999D01*
X99184780Y-110112712D01*
X99124113Y-109729676D01*
X99124112Y-109729669D01*
X99023737Y-109355063D01*
X98884755Y-108993005D01*
X98708689Y-108647456D01*
X98497468Y-108322206D01*
X98288904Y-108064649D01*
X98288903Y-108064648D01*
X96794251Y-109559300D01*
X96720412Y-109457670D01*
X96542330Y-109279588D01*
X96440698Y-109205748D01*
X97935350Y-107711096D01*
X97935350Y-107711095D01*
X97677793Y-107502531D01*
X97352543Y-107291310D01*
X97006994Y-107115244D01*
X96644936Y-106976262D01*
X96270330Y-106875887D01*
X96270323Y-106875886D01*
X95887287Y-106815219D01*
X95500001Y-106794922D01*
X95499999Y-106794922D01*
X95112712Y-106815219D01*
X94729676Y-106875886D01*
X94729669Y-106875887D01*
X94355063Y-106976262D01*
X93993005Y-107115244D01*
X93647456Y-107291310D01*
X93322206Y-107502531D01*
X93064648Y-107711095D01*
X93064648Y-107711096D01*
X94559301Y-109205748D01*
X94457670Y-109279588D01*
X94279588Y-109457670D01*
X94205748Y-109559300D01*
X92711096Y-108064648D01*
X92711095Y-108064648D01*
X92502531Y-108322206D01*
X92291310Y-108647456D01*
X92115244Y-108993005D01*
X91976262Y-109355063D01*
X91875887Y-109729669D01*
X91875886Y-109729676D01*
X91815219Y-110112712D01*
X91794922Y-110499999D01*
X91300500Y-110499999D01*
X91300500Y-102999997D01*
X94695034Y-102999997D01*
X94695034Y-103000002D01*
X94714858Y-103226599D01*
X94714860Y-103226610D01*
X94773730Y-103446317D01*
X94773735Y-103446331D01*
X94869863Y-103652478D01*
X94920974Y-103725472D01*
X95600000Y-103046446D01*
X95600000Y-103052661D01*
X95627259Y-103154394D01*
X95679920Y-103245606D01*
X95754394Y-103320080D01*
X95845606Y-103372741D01*
X95947339Y-103400000D01*
X95953553Y-103400000D01*
X95274526Y-104079025D01*
X95347513Y-104130132D01*
X95347521Y-104130136D01*
X95553668Y-104226264D01*
X95553682Y-104226269D01*
X95773389Y-104285139D01*
X95773400Y-104285141D01*
X95999998Y-104304966D01*
X96000002Y-104304966D01*
X96226599Y-104285141D01*
X96226610Y-104285139D01*
X96446317Y-104226269D01*
X96446331Y-104226264D01*
X96652478Y-104130136D01*
X96725471Y-104079024D01*
X96046447Y-103400000D01*
X96052661Y-103400000D01*
X96154394Y-103372741D01*
X96245606Y-103320080D01*
X96320080Y-103245606D01*
X96372741Y-103154394D01*
X96400000Y-103052661D01*
X96400000Y-103046447D01*
X97079024Y-103725471D01*
X97130136Y-103652478D01*
X97226264Y-103446331D01*
X97226269Y-103446317D01*
X97285139Y-103226610D01*
X97285141Y-103226599D01*
X97304966Y-103000002D01*
X97304966Y-102999997D01*
X97285141Y-102773400D01*
X97285139Y-102773389D01*
X97226269Y-102553682D01*
X97226264Y-102553668D01*
X97219887Y-102539993D01*
X100594700Y-102539993D01*
X100594700Y-102540006D01*
X100613864Y-102771297D01*
X100613866Y-102771308D01*
X100670842Y-102996300D01*
X100764075Y-103208848D01*
X100891016Y-103403147D01*
X100891019Y-103403151D01*
X100891021Y-103403153D01*
X101048216Y-103573913D01*
X101048219Y-103573915D01*
X101048222Y-103573918D01*
X101231365Y-103716464D01*
X101231371Y-103716468D01*
X101231374Y-103716470D01*
X101435497Y-103826936D01*
X101549487Y-103866068D01*
X101655015Y-103902297D01*
X101655017Y-103902297D01*
X101655019Y-103902298D01*
X101883951Y-103940500D01*
X101883952Y-103940500D01*
X102116048Y-103940500D01*
X102116049Y-103940500D01*
X102344981Y-103902298D01*
X102564503Y-103826936D01*
X102768626Y-103716470D01*
X102951784Y-103573913D01*
X103108979Y-103403153D01*
X103235924Y-103208849D01*
X103327535Y-102999997D01*
X107195034Y-102999997D01*
X107195034Y-103000002D01*
X107214858Y-103226599D01*
X107214860Y-103226610D01*
X107273730Y-103446317D01*
X107273735Y-103446331D01*
X107369863Y-103652478D01*
X107420974Y-103725472D01*
X108100000Y-103046446D01*
X108100000Y-103052661D01*
X108127259Y-103154394D01*
X108179920Y-103245606D01*
X108254394Y-103320080D01*
X108345606Y-103372741D01*
X108447339Y-103400000D01*
X108453553Y-103400000D01*
X107774526Y-104079025D01*
X107847513Y-104130132D01*
X107847521Y-104130136D01*
X108053668Y-104226264D01*
X108053682Y-104226269D01*
X108273389Y-104285139D01*
X108273400Y-104285141D01*
X108499998Y-104304966D01*
X108500002Y-104304966D01*
X108726599Y-104285141D01*
X108726610Y-104285139D01*
X108946317Y-104226269D01*
X108946331Y-104226264D01*
X109152478Y-104130136D01*
X109225471Y-104079024D01*
X108546447Y-103400000D01*
X108552661Y-103400000D01*
X108654394Y-103372741D01*
X108745606Y-103320080D01*
X108820080Y-103245606D01*
X108872741Y-103154394D01*
X108900000Y-103052661D01*
X108900000Y-103046447D01*
X109579024Y-103725471D01*
X109630136Y-103652478D01*
X109726264Y-103446331D01*
X109726269Y-103446317D01*
X109785139Y-103226610D01*
X109785141Y-103226599D01*
X109804966Y-103000002D01*
X109804966Y-102999997D01*
X109785141Y-102773400D01*
X109785139Y-102773389D01*
X109726269Y-102553682D01*
X109726264Y-102553668D01*
X109719887Y-102539993D01*
X113594700Y-102539993D01*
X113594700Y-102540006D01*
X113613864Y-102771297D01*
X113613866Y-102771308D01*
X113670842Y-102996300D01*
X113764075Y-103208848D01*
X113891016Y-103403147D01*
X113891019Y-103403151D01*
X113891021Y-103403153D01*
X114048216Y-103573913D01*
X114048219Y-103573915D01*
X114048222Y-103573918D01*
X114231365Y-103716464D01*
X114231371Y-103716468D01*
X114231374Y-103716470D01*
X114435497Y-103826936D01*
X114549487Y-103866068D01*
X114655015Y-103902297D01*
X114655017Y-103902297D01*
X114655019Y-103902298D01*
X114883951Y-103940500D01*
X114883952Y-103940500D01*
X115116048Y-103940500D01*
X115116049Y-103940500D01*
X115344981Y-103902298D01*
X115564503Y-103826936D01*
X115768626Y-103716470D01*
X115951784Y-103573913D01*
X116108979Y-103403153D01*
X116235924Y-103208849D01*
X116327535Y-102999997D01*
X119695034Y-102999997D01*
X119695034Y-103000002D01*
X119714858Y-103226599D01*
X119714860Y-103226610D01*
X119773730Y-103446317D01*
X119773735Y-103446331D01*
X119869863Y-103652478D01*
X119920974Y-103725472D01*
X120600000Y-103046446D01*
X120600000Y-103052661D01*
X120627259Y-103154394D01*
X120679920Y-103245606D01*
X120754394Y-103320080D01*
X120845606Y-103372741D01*
X120947339Y-103400000D01*
X120953553Y-103400000D01*
X120274526Y-104079025D01*
X120347513Y-104130132D01*
X120347521Y-104130136D01*
X120553668Y-104226264D01*
X120553682Y-104226269D01*
X120773389Y-104285139D01*
X120773400Y-104285141D01*
X120999998Y-104304966D01*
X121000002Y-104304966D01*
X121226599Y-104285141D01*
X121226610Y-104285139D01*
X121446317Y-104226269D01*
X121446331Y-104226264D01*
X121652478Y-104130136D01*
X121725471Y-104079024D01*
X121046447Y-103400000D01*
X121052661Y-103400000D01*
X121154394Y-103372741D01*
X121245606Y-103320080D01*
X121320080Y-103245606D01*
X121372741Y-103154394D01*
X121400000Y-103052661D01*
X121400000Y-103046447D01*
X122079024Y-103725471D01*
X122130136Y-103652478D01*
X122226264Y-103446331D01*
X122226269Y-103446317D01*
X122285139Y-103226610D01*
X122285141Y-103226599D01*
X122304966Y-103000002D01*
X122304966Y-102999997D01*
X122285141Y-102773400D01*
X122285139Y-102773389D01*
X122226269Y-102553682D01*
X122226264Y-102553668D01*
X122219887Y-102539993D01*
X125594700Y-102539993D01*
X125594700Y-102540006D01*
X125613864Y-102771297D01*
X125613866Y-102771308D01*
X125670842Y-102996300D01*
X125764075Y-103208848D01*
X125891016Y-103403147D01*
X125891019Y-103403151D01*
X125891021Y-103403153D01*
X126048216Y-103573913D01*
X126048219Y-103573915D01*
X126048222Y-103573918D01*
X126231365Y-103716464D01*
X126231371Y-103716468D01*
X126231374Y-103716470D01*
X126435497Y-103826936D01*
X126549487Y-103866068D01*
X126655015Y-103902297D01*
X126655017Y-103902297D01*
X126655019Y-103902298D01*
X126883951Y-103940500D01*
X126883952Y-103940500D01*
X127116048Y-103940500D01*
X127116049Y-103940500D01*
X127344981Y-103902298D01*
X127564503Y-103826936D01*
X127768626Y-103716470D01*
X127951784Y-103573913D01*
X128108979Y-103403153D01*
X128235924Y-103208849D01*
X128327535Y-102999997D01*
X132195034Y-102999997D01*
X132195034Y-103000002D01*
X132214858Y-103226599D01*
X132214860Y-103226610D01*
X132273730Y-103446317D01*
X132273735Y-103446331D01*
X132369863Y-103652478D01*
X132420974Y-103725472D01*
X133100000Y-103046446D01*
X133100000Y-103052661D01*
X133127259Y-103154394D01*
X133179920Y-103245606D01*
X133254394Y-103320080D01*
X133345606Y-103372741D01*
X133447339Y-103400000D01*
X133453553Y-103400000D01*
X132774526Y-104079025D01*
X132847513Y-104130132D01*
X132847521Y-104130136D01*
X133053668Y-104226264D01*
X133053682Y-104226269D01*
X133273389Y-104285139D01*
X133273400Y-104285141D01*
X133499998Y-104304966D01*
X133500002Y-104304966D01*
X133726599Y-104285141D01*
X133726610Y-104285139D01*
X133946317Y-104226269D01*
X133946331Y-104226264D01*
X134152478Y-104130136D01*
X134225471Y-104079024D01*
X133546447Y-103400000D01*
X133552661Y-103400000D01*
X133654394Y-103372741D01*
X133745606Y-103320080D01*
X133820080Y-103245606D01*
X133872741Y-103154394D01*
X133900000Y-103052661D01*
X133900000Y-103046447D01*
X134579024Y-103725471D01*
X134630136Y-103652478D01*
X134726264Y-103446331D01*
X134726269Y-103446317D01*
X134785139Y-103226610D01*
X134785141Y-103226599D01*
X134804966Y-103000002D01*
X134804966Y-102999997D01*
X134785141Y-102773400D01*
X134785139Y-102773389D01*
X134726269Y-102553682D01*
X134726264Y-102553668D01*
X134719887Y-102539993D01*
X138594700Y-102539993D01*
X138594700Y-102540006D01*
X138613864Y-102771297D01*
X138613866Y-102771308D01*
X138670842Y-102996300D01*
X138764075Y-103208848D01*
X138891016Y-103403147D01*
X138891019Y-103403151D01*
X138891021Y-103403153D01*
X139048216Y-103573913D01*
X139048219Y-103573915D01*
X139048222Y-103573918D01*
X139231365Y-103716464D01*
X139231371Y-103716468D01*
X139231374Y-103716470D01*
X139435497Y-103826936D01*
X139549487Y-103866068D01*
X139655015Y-103902297D01*
X139655017Y-103902297D01*
X139655019Y-103902298D01*
X139883951Y-103940500D01*
X139883952Y-103940500D01*
X140116048Y-103940500D01*
X140116049Y-103940500D01*
X140344981Y-103902298D01*
X140564503Y-103826936D01*
X140768626Y-103716470D01*
X140951784Y-103573913D01*
X141108979Y-103403153D01*
X141235924Y-103208849D01*
X141327535Y-102999997D01*
X144695034Y-102999997D01*
X144695034Y-103000002D01*
X144714858Y-103226599D01*
X144714860Y-103226610D01*
X144773730Y-103446317D01*
X144773735Y-103446331D01*
X144869863Y-103652478D01*
X144920974Y-103725472D01*
X145600000Y-103046446D01*
X145600000Y-103052661D01*
X145627259Y-103154394D01*
X145679920Y-103245606D01*
X145754394Y-103320080D01*
X145845606Y-103372741D01*
X145947339Y-103400000D01*
X145953553Y-103400000D01*
X145274526Y-104079025D01*
X145347513Y-104130132D01*
X145347521Y-104130136D01*
X145553668Y-104226264D01*
X145553682Y-104226269D01*
X145773389Y-104285139D01*
X145773400Y-104285141D01*
X145999998Y-104304966D01*
X146000002Y-104304966D01*
X146226599Y-104285141D01*
X146226610Y-104285139D01*
X146446317Y-104226269D01*
X146446331Y-104226264D01*
X146652478Y-104130136D01*
X146725471Y-104079024D01*
X146046447Y-103400000D01*
X146052661Y-103400000D01*
X146154394Y-103372741D01*
X146245606Y-103320080D01*
X146320080Y-103245606D01*
X146372741Y-103154394D01*
X146400000Y-103052661D01*
X146400000Y-103046447D01*
X147079024Y-103725471D01*
X147130136Y-103652478D01*
X147226264Y-103446331D01*
X147226269Y-103446317D01*
X147285139Y-103226610D01*
X147285141Y-103226599D01*
X147304966Y-103000002D01*
X147304966Y-102999997D01*
X147285141Y-102773400D01*
X147285139Y-102773389D01*
X147226269Y-102553682D01*
X147226264Y-102553668D01*
X147219887Y-102539993D01*
X150594700Y-102539993D01*
X150594700Y-102540006D01*
X150613864Y-102771297D01*
X150613866Y-102771308D01*
X150670842Y-102996300D01*
X150764075Y-103208848D01*
X150891016Y-103403147D01*
X150891019Y-103403151D01*
X150891021Y-103403153D01*
X151048216Y-103573913D01*
X151048219Y-103573915D01*
X151048222Y-103573918D01*
X151231365Y-103716464D01*
X151231371Y-103716468D01*
X151231374Y-103716470D01*
X151435497Y-103826936D01*
X151549487Y-103866068D01*
X151655015Y-103902297D01*
X151655017Y-103902297D01*
X151655019Y-103902298D01*
X151883951Y-103940500D01*
X151883952Y-103940500D01*
X152116048Y-103940500D01*
X152116049Y-103940500D01*
X152344981Y-103902298D01*
X152564503Y-103826936D01*
X152768626Y-103716470D01*
X152951784Y-103573913D01*
X153108979Y-103403153D01*
X153235924Y-103208849D01*
X153327535Y-102999997D01*
X156695034Y-102999997D01*
X156695034Y-103000002D01*
X156714858Y-103226599D01*
X156714860Y-103226610D01*
X156773730Y-103446317D01*
X156773735Y-103446331D01*
X156869863Y-103652478D01*
X156920974Y-103725472D01*
X157600000Y-103046446D01*
X157600000Y-103052661D01*
X157627259Y-103154394D01*
X157679920Y-103245606D01*
X157754394Y-103320080D01*
X157845606Y-103372741D01*
X157947339Y-103400000D01*
X157953553Y-103400000D01*
X157274526Y-104079025D01*
X157347513Y-104130132D01*
X157347521Y-104130136D01*
X157553668Y-104226264D01*
X157553682Y-104226269D01*
X157773389Y-104285139D01*
X157773400Y-104285141D01*
X157999998Y-104304966D01*
X158000002Y-104304966D01*
X158226599Y-104285141D01*
X158226610Y-104285139D01*
X158446317Y-104226269D01*
X158446331Y-104226264D01*
X158652478Y-104130136D01*
X158725471Y-104079024D01*
X158046447Y-103400000D01*
X158052661Y-103400000D01*
X158154394Y-103372741D01*
X158245606Y-103320080D01*
X158320080Y-103245606D01*
X158372741Y-103154394D01*
X158400000Y-103052661D01*
X158400000Y-103046447D01*
X159079024Y-103725471D01*
X159130136Y-103652478D01*
X159226264Y-103446331D01*
X159226269Y-103446317D01*
X159285139Y-103226610D01*
X159285141Y-103226599D01*
X159304966Y-103000002D01*
X159304966Y-102999997D01*
X159285141Y-102773400D01*
X159285139Y-102773389D01*
X159226269Y-102553682D01*
X159226264Y-102553668D01*
X159219887Y-102539993D01*
X162594700Y-102539993D01*
X162594700Y-102540006D01*
X162613864Y-102771297D01*
X162613866Y-102771308D01*
X162670842Y-102996300D01*
X162764075Y-103208848D01*
X162891016Y-103403147D01*
X162891019Y-103403151D01*
X162891021Y-103403153D01*
X163048216Y-103573913D01*
X163048219Y-103573915D01*
X163048222Y-103573918D01*
X163231365Y-103716464D01*
X163231371Y-103716468D01*
X163231374Y-103716470D01*
X163435497Y-103826936D01*
X163549487Y-103866068D01*
X163655015Y-103902297D01*
X163655017Y-103902297D01*
X163655019Y-103902298D01*
X163883951Y-103940500D01*
X163883952Y-103940500D01*
X164116048Y-103940500D01*
X164116049Y-103940500D01*
X164344981Y-103902298D01*
X164564503Y-103826936D01*
X164768626Y-103716470D01*
X164951784Y-103573913D01*
X165108979Y-103403153D01*
X165235924Y-103208849D01*
X165327535Y-102999997D01*
X169195034Y-102999997D01*
X169195034Y-103000002D01*
X169214858Y-103226599D01*
X169214860Y-103226610D01*
X169273730Y-103446317D01*
X169273735Y-103446331D01*
X169369863Y-103652478D01*
X169420974Y-103725472D01*
X170100000Y-103046446D01*
X170100000Y-103052661D01*
X170127259Y-103154394D01*
X170179920Y-103245606D01*
X170254394Y-103320080D01*
X170345606Y-103372741D01*
X170447339Y-103400000D01*
X170453553Y-103400000D01*
X169774526Y-104079025D01*
X169847513Y-104130132D01*
X169847521Y-104130136D01*
X170053668Y-104226264D01*
X170053682Y-104226269D01*
X170273389Y-104285139D01*
X170273400Y-104285141D01*
X170499998Y-104304966D01*
X170500002Y-104304966D01*
X170726599Y-104285141D01*
X170726610Y-104285139D01*
X170946317Y-104226269D01*
X170946331Y-104226264D01*
X171152478Y-104130136D01*
X171225471Y-104079024D01*
X170546447Y-103400000D01*
X170552661Y-103400000D01*
X170654394Y-103372741D01*
X170745606Y-103320080D01*
X170820080Y-103245606D01*
X170872741Y-103154394D01*
X170900000Y-103052661D01*
X170900000Y-103046447D01*
X171579024Y-103725471D01*
X171630136Y-103652478D01*
X171726264Y-103446331D01*
X171726269Y-103446317D01*
X171785139Y-103226610D01*
X171785141Y-103226599D01*
X171804966Y-103000002D01*
X171804966Y-102999997D01*
X171785141Y-102773400D01*
X171785139Y-102773389D01*
X171726269Y-102553682D01*
X171726264Y-102553668D01*
X171630136Y-102347521D01*
X171630132Y-102347513D01*
X171579025Y-102274526D01*
X170900000Y-102953551D01*
X170900000Y-102947339D01*
X170872741Y-102845606D01*
X170820080Y-102754394D01*
X170745606Y-102679920D01*
X170654394Y-102627259D01*
X170552661Y-102600000D01*
X170546448Y-102600000D01*
X171225472Y-101920974D01*
X171152478Y-101869863D01*
X170946331Y-101773735D01*
X170946317Y-101773730D01*
X170726610Y-101714860D01*
X170726599Y-101714858D01*
X170500002Y-101695034D01*
X170499998Y-101695034D01*
X170273400Y-101714858D01*
X170273389Y-101714860D01*
X170053682Y-101773730D01*
X170053673Y-101773734D01*
X169847516Y-101869866D01*
X169847512Y-101869868D01*
X169774526Y-101920973D01*
X169774526Y-101920974D01*
X170453553Y-102600000D01*
X170447339Y-102600000D01*
X170345606Y-102627259D01*
X170254394Y-102679920D01*
X170179920Y-102754394D01*
X170127259Y-102845606D01*
X170100000Y-102947339D01*
X170100000Y-102953552D01*
X169420973Y-102274526D01*
X169369868Y-102347512D01*
X169369866Y-102347516D01*
X169273734Y-102553673D01*
X169273730Y-102553682D01*
X169214860Y-102773389D01*
X169214858Y-102773400D01*
X169195034Y-102999997D01*
X165327535Y-102999997D01*
X165329157Y-102996300D01*
X165386134Y-102771305D01*
X165386135Y-102771297D01*
X165405300Y-102540006D01*
X165405300Y-102539993D01*
X165386135Y-102308702D01*
X165386133Y-102308691D01*
X165329157Y-102083699D01*
X165235924Y-101871151D01*
X165108981Y-101676849D01*
X165013832Y-101573489D01*
X164982910Y-101510835D01*
X164990770Y-101441409D01*
X165034918Y-101387253D01*
X165061730Y-101373325D01*
X165142084Y-101343355D01*
X165142093Y-101343350D01*
X165257187Y-101257190D01*
X165257190Y-101257187D01*
X165343350Y-101142093D01*
X165343354Y-101142086D01*
X165393596Y-101007379D01*
X165393598Y-101007372D01*
X165399999Y-100947844D01*
X165400000Y-100947827D01*
X165400000Y-100250000D01*
X164375278Y-100250000D01*
X164419333Y-100173694D01*
X164450000Y-100059244D01*
X164450000Y-99999998D01*
X169194532Y-99999998D01*
X169194532Y-100000001D01*
X169214364Y-100226686D01*
X169214366Y-100226697D01*
X169273258Y-100446488D01*
X169273261Y-100446497D01*
X169369431Y-100652732D01*
X169369432Y-100652734D01*
X169499954Y-100839141D01*
X169660858Y-101000045D01*
X169660861Y-101000047D01*
X169847266Y-101130568D01*
X170053504Y-101226739D01*
X170273308Y-101285635D01*
X170435230Y-101299801D01*
X170499998Y-101305468D01*
X170500000Y-101305468D01*
X170500002Y-101305468D01*
X170556673Y-101300509D01*
X170726692Y-101285635D01*
X170946496Y-101226739D01*
X171152734Y-101130568D01*
X171339139Y-101000047D01*
X171500047Y-100839139D01*
X171630568Y-100652734D01*
X171726739Y-100446496D01*
X171785635Y-100226692D01*
X171805468Y-100000000D01*
X171785635Y-99773308D01*
X171726739Y-99553504D01*
X171630568Y-99347266D01*
X171500047Y-99160861D01*
X171500045Y-99160858D01*
X171339141Y-98999954D01*
X171152734Y-98869432D01*
X171152732Y-98869431D01*
X170946497Y-98773261D01*
X170946488Y-98773258D01*
X170726697Y-98714366D01*
X170726693Y-98714365D01*
X170726692Y-98714365D01*
X170726691Y-98714364D01*
X170726686Y-98714364D01*
X170500002Y-98694532D01*
X170499998Y-98694532D01*
X170273313Y-98714364D01*
X170273302Y-98714366D01*
X170053511Y-98773258D01*
X170053502Y-98773261D01*
X169847267Y-98869431D01*
X169847265Y-98869432D01*
X169660858Y-98999954D01*
X169499954Y-99160858D01*
X169369432Y-99347265D01*
X169369431Y-99347267D01*
X169273261Y-99553502D01*
X169273258Y-99553511D01*
X169214366Y-99773302D01*
X169214364Y-99773313D01*
X169194532Y-99999998D01*
X164450000Y-99999998D01*
X164450000Y-99940756D01*
X164419333Y-99826306D01*
X164375278Y-99750000D01*
X165400000Y-99750000D01*
X165400000Y-99052172D01*
X165399999Y-99052155D01*
X165393598Y-98992627D01*
X165393596Y-98992620D01*
X165343354Y-98857913D01*
X165343350Y-98857906D01*
X165257190Y-98742812D01*
X165257187Y-98742809D01*
X165142093Y-98656649D01*
X165142086Y-98656645D01*
X165007379Y-98606403D01*
X165007372Y-98606401D01*
X164947844Y-98600000D01*
X164250000Y-98600000D01*
X164250000Y-99624722D01*
X164173694Y-99580667D01*
X164059244Y-99550000D01*
X163940756Y-99550000D01*
X163826306Y-99580667D01*
X163750000Y-99624722D01*
X163750000Y-98600000D01*
X163052155Y-98600000D01*
X162992627Y-98606401D01*
X162992620Y-98606403D01*
X162857913Y-98656645D01*
X162857906Y-98656649D01*
X162742812Y-98742809D01*
X162742809Y-98742812D01*
X162656649Y-98857906D01*
X162656645Y-98857913D01*
X162606403Y-98992620D01*
X162606401Y-98992627D01*
X162600000Y-99052155D01*
X162600000Y-99750000D01*
X163624722Y-99750000D01*
X163580667Y-99826306D01*
X163550000Y-99940756D01*
X163550000Y-100059244D01*
X163580667Y-100173694D01*
X163624722Y-100250000D01*
X162600000Y-100250000D01*
X162600000Y-100947844D01*
X162606401Y-101007372D01*
X162606403Y-101007379D01*
X162656645Y-101142086D01*
X162656649Y-101142093D01*
X162742809Y-101257187D01*
X162742812Y-101257190D01*
X162857906Y-101343350D01*
X162857913Y-101343354D01*
X162938270Y-101373325D01*
X162994204Y-101415196D01*
X163018621Y-101480660D01*
X163003770Y-101548933D01*
X162986168Y-101573489D01*
X162891021Y-101676847D01*
X162891019Y-101676848D01*
X162891016Y-101676853D01*
X162764075Y-101871151D01*
X162670842Y-102083699D01*
X162613866Y-102308691D01*
X162613864Y-102308702D01*
X162594700Y-102539993D01*
X159219887Y-102539993D01*
X159130136Y-102347521D01*
X159130132Y-102347513D01*
X159079025Y-102274526D01*
X158400000Y-102953551D01*
X158400000Y-102947339D01*
X158372741Y-102845606D01*
X158320080Y-102754394D01*
X158245606Y-102679920D01*
X158154394Y-102627259D01*
X158052661Y-102600000D01*
X158046448Y-102600000D01*
X158725472Y-101920974D01*
X158652478Y-101869863D01*
X158446331Y-101773735D01*
X158446317Y-101773730D01*
X158226610Y-101714860D01*
X158226599Y-101714858D01*
X158000002Y-101695034D01*
X157999998Y-101695034D01*
X157773400Y-101714858D01*
X157773389Y-101714860D01*
X157553682Y-101773730D01*
X157553673Y-101773734D01*
X157347516Y-101869866D01*
X157347512Y-101869868D01*
X157274526Y-101920973D01*
X157274526Y-101920974D01*
X157953553Y-102600000D01*
X157947339Y-102600000D01*
X157845606Y-102627259D01*
X157754394Y-102679920D01*
X157679920Y-102754394D01*
X157627259Y-102845606D01*
X157600000Y-102947339D01*
X157600000Y-102953552D01*
X156920974Y-102274526D01*
X156920973Y-102274526D01*
X156869868Y-102347512D01*
X156869866Y-102347516D01*
X156773734Y-102553673D01*
X156773730Y-102553682D01*
X156714860Y-102773389D01*
X156714858Y-102773400D01*
X156695034Y-102999997D01*
X153327535Y-102999997D01*
X153329157Y-102996300D01*
X153386134Y-102771305D01*
X153386135Y-102771297D01*
X153405300Y-102540006D01*
X153405300Y-102539993D01*
X153386135Y-102308702D01*
X153386133Y-102308691D01*
X153329157Y-102083699D01*
X153235924Y-101871151D01*
X153108981Y-101676849D01*
X153013832Y-101573489D01*
X152982910Y-101510835D01*
X152990770Y-101441409D01*
X153034918Y-101387253D01*
X153061730Y-101373325D01*
X153142084Y-101343355D01*
X153142093Y-101343350D01*
X153257187Y-101257190D01*
X153257190Y-101257187D01*
X153343350Y-101142093D01*
X153343354Y-101142086D01*
X153393596Y-101007379D01*
X153393598Y-101007372D01*
X153399999Y-100947844D01*
X153400000Y-100947827D01*
X153400000Y-100250000D01*
X152375278Y-100250000D01*
X152419333Y-100173694D01*
X152450000Y-100059244D01*
X152450000Y-99999998D01*
X156694532Y-99999998D01*
X156694532Y-100000001D01*
X156714364Y-100226686D01*
X156714366Y-100226697D01*
X156773258Y-100446488D01*
X156773261Y-100446497D01*
X156869431Y-100652732D01*
X156869432Y-100652734D01*
X156999954Y-100839141D01*
X157160858Y-101000045D01*
X157160861Y-101000047D01*
X157347266Y-101130568D01*
X157553504Y-101226739D01*
X157773308Y-101285635D01*
X157935230Y-101299801D01*
X157999998Y-101305468D01*
X158000000Y-101305468D01*
X158000002Y-101305468D01*
X158056673Y-101300509D01*
X158226692Y-101285635D01*
X158446496Y-101226739D01*
X158652734Y-101130568D01*
X158839139Y-101000047D01*
X159000047Y-100839139D01*
X159130568Y-100652734D01*
X159226739Y-100446496D01*
X159285635Y-100226692D01*
X159305468Y-100000000D01*
X159285635Y-99773308D01*
X159226739Y-99553504D01*
X159130568Y-99347266D01*
X159000047Y-99160861D01*
X159000045Y-99160858D01*
X158839141Y-98999954D01*
X158652734Y-98869432D01*
X158652732Y-98869431D01*
X158446497Y-98773261D01*
X158446488Y-98773258D01*
X158226697Y-98714366D01*
X158226693Y-98714365D01*
X158226692Y-98714365D01*
X158226691Y-98714364D01*
X158226686Y-98714364D01*
X158000002Y-98694532D01*
X157999998Y-98694532D01*
X157773313Y-98714364D01*
X157773302Y-98714366D01*
X157553511Y-98773258D01*
X157553502Y-98773261D01*
X157347267Y-98869431D01*
X157347265Y-98869432D01*
X157160858Y-98999954D01*
X156999954Y-99160858D01*
X156869432Y-99347265D01*
X156869431Y-99347267D01*
X156773261Y-99553502D01*
X156773258Y-99553511D01*
X156714366Y-99773302D01*
X156714364Y-99773313D01*
X156694532Y-99999998D01*
X152450000Y-99999998D01*
X152450000Y-99940756D01*
X152419333Y-99826306D01*
X152375278Y-99750000D01*
X153400000Y-99750000D01*
X153400000Y-99052172D01*
X153399999Y-99052155D01*
X153393598Y-98992627D01*
X153393596Y-98992620D01*
X153343354Y-98857913D01*
X153343350Y-98857906D01*
X153257190Y-98742812D01*
X153257187Y-98742809D01*
X153142093Y-98656649D01*
X153142086Y-98656645D01*
X153007379Y-98606403D01*
X153007372Y-98606401D01*
X152947844Y-98600000D01*
X152250000Y-98600000D01*
X152250000Y-99624722D01*
X152173694Y-99580667D01*
X152059244Y-99550000D01*
X151940756Y-99550000D01*
X151826306Y-99580667D01*
X151750000Y-99624722D01*
X151750000Y-98600000D01*
X151052155Y-98600000D01*
X150992627Y-98606401D01*
X150992620Y-98606403D01*
X150857913Y-98656645D01*
X150857906Y-98656649D01*
X150742812Y-98742809D01*
X150742809Y-98742812D01*
X150656649Y-98857906D01*
X150656645Y-98857913D01*
X150606403Y-98992620D01*
X150606401Y-98992627D01*
X150600000Y-99052155D01*
X150600000Y-99750000D01*
X151624722Y-99750000D01*
X151580667Y-99826306D01*
X151550000Y-99940756D01*
X151550000Y-100059244D01*
X151580667Y-100173694D01*
X151624722Y-100250000D01*
X150600000Y-100250000D01*
X150600000Y-100947844D01*
X150606401Y-101007372D01*
X150606403Y-101007379D01*
X150656645Y-101142086D01*
X150656649Y-101142093D01*
X150742809Y-101257187D01*
X150742812Y-101257190D01*
X150857906Y-101343350D01*
X150857913Y-101343354D01*
X150938270Y-101373325D01*
X150994204Y-101415196D01*
X151018621Y-101480660D01*
X151003770Y-101548933D01*
X150986168Y-101573489D01*
X150891021Y-101676847D01*
X150891019Y-101676848D01*
X150891016Y-101676853D01*
X150764075Y-101871151D01*
X150670842Y-102083699D01*
X150613866Y-102308691D01*
X150613864Y-102308702D01*
X150594700Y-102539993D01*
X147219887Y-102539993D01*
X147130136Y-102347521D01*
X147130132Y-102347513D01*
X147079025Y-102274526D01*
X146400000Y-102953551D01*
X146400000Y-102947339D01*
X146372741Y-102845606D01*
X146320080Y-102754394D01*
X146245606Y-102679920D01*
X146154394Y-102627259D01*
X146052661Y-102600000D01*
X146046448Y-102600000D01*
X146725472Y-101920974D01*
X146652478Y-101869863D01*
X146446331Y-101773735D01*
X146446317Y-101773730D01*
X146226610Y-101714860D01*
X146226599Y-101714858D01*
X146000002Y-101695034D01*
X145999998Y-101695034D01*
X145773400Y-101714858D01*
X145773389Y-101714860D01*
X145553682Y-101773730D01*
X145553673Y-101773734D01*
X145347516Y-101869866D01*
X145347512Y-101869868D01*
X145274526Y-101920973D01*
X145274526Y-101920974D01*
X145953553Y-102600000D01*
X145947339Y-102600000D01*
X145845606Y-102627259D01*
X145754394Y-102679920D01*
X145679920Y-102754394D01*
X145627259Y-102845606D01*
X145600000Y-102947339D01*
X145600000Y-102953552D01*
X144920973Y-102274526D01*
X144869868Y-102347512D01*
X144869866Y-102347516D01*
X144773734Y-102553673D01*
X144773730Y-102553682D01*
X144714860Y-102773389D01*
X144714858Y-102773400D01*
X144695034Y-102999997D01*
X141327535Y-102999997D01*
X141329157Y-102996300D01*
X141386134Y-102771305D01*
X141386135Y-102771297D01*
X141405300Y-102540006D01*
X141405300Y-102539993D01*
X141386135Y-102308702D01*
X141386133Y-102308691D01*
X141329157Y-102083699D01*
X141235924Y-101871151D01*
X141108981Y-101676849D01*
X141013832Y-101573489D01*
X140982910Y-101510835D01*
X140990770Y-101441409D01*
X141034918Y-101387253D01*
X141061730Y-101373325D01*
X141142084Y-101343355D01*
X141142093Y-101343350D01*
X141257187Y-101257190D01*
X141257190Y-101257187D01*
X141343350Y-101142093D01*
X141343354Y-101142086D01*
X141393596Y-101007379D01*
X141393598Y-101007372D01*
X141399999Y-100947844D01*
X141400000Y-100947827D01*
X141400000Y-100250000D01*
X140375278Y-100250000D01*
X140419333Y-100173694D01*
X140450000Y-100059244D01*
X140450000Y-99999998D01*
X144694532Y-99999998D01*
X144694532Y-100000001D01*
X144714364Y-100226686D01*
X144714366Y-100226697D01*
X144773258Y-100446488D01*
X144773261Y-100446497D01*
X144869431Y-100652732D01*
X144869432Y-100652734D01*
X144999954Y-100839141D01*
X145160858Y-101000045D01*
X145160861Y-101000047D01*
X145347266Y-101130568D01*
X145553504Y-101226739D01*
X145773308Y-101285635D01*
X145935230Y-101299801D01*
X145999998Y-101305468D01*
X146000000Y-101305468D01*
X146000002Y-101305468D01*
X146056673Y-101300509D01*
X146226692Y-101285635D01*
X146446496Y-101226739D01*
X146652734Y-101130568D01*
X146839139Y-101000047D01*
X147000047Y-100839139D01*
X147130568Y-100652734D01*
X147226739Y-100446496D01*
X147285635Y-100226692D01*
X147305468Y-100000000D01*
X147285635Y-99773308D01*
X147226739Y-99553504D01*
X147130568Y-99347266D01*
X147000047Y-99160861D01*
X147000045Y-99160858D01*
X146839141Y-98999954D01*
X146652734Y-98869432D01*
X146652732Y-98869431D01*
X146446497Y-98773261D01*
X146446488Y-98773258D01*
X146226697Y-98714366D01*
X146226693Y-98714365D01*
X146226692Y-98714365D01*
X146226691Y-98714364D01*
X146226686Y-98714364D01*
X146000002Y-98694532D01*
X145999998Y-98694532D01*
X145773313Y-98714364D01*
X145773302Y-98714366D01*
X145553511Y-98773258D01*
X145553502Y-98773261D01*
X145347267Y-98869431D01*
X145347265Y-98869432D01*
X145160858Y-98999954D01*
X144999954Y-99160858D01*
X144869432Y-99347265D01*
X144869431Y-99347267D01*
X144773261Y-99553502D01*
X144773258Y-99553511D01*
X144714366Y-99773302D01*
X144714364Y-99773313D01*
X144694532Y-99999998D01*
X140450000Y-99999998D01*
X140450000Y-99940756D01*
X140419333Y-99826306D01*
X140375278Y-99750000D01*
X141400000Y-99750000D01*
X141400000Y-99052172D01*
X141399999Y-99052155D01*
X141393598Y-98992627D01*
X141393596Y-98992620D01*
X141343354Y-98857913D01*
X141343350Y-98857906D01*
X141257190Y-98742812D01*
X141257187Y-98742809D01*
X141142093Y-98656649D01*
X141142086Y-98656645D01*
X141007379Y-98606403D01*
X141007372Y-98606401D01*
X140947844Y-98600000D01*
X140250000Y-98600000D01*
X140250000Y-99624722D01*
X140173694Y-99580667D01*
X140059244Y-99550000D01*
X139940756Y-99550000D01*
X139826306Y-99580667D01*
X139750000Y-99624722D01*
X139750000Y-98600000D01*
X139052155Y-98600000D01*
X138992627Y-98606401D01*
X138992620Y-98606403D01*
X138857913Y-98656645D01*
X138857906Y-98656649D01*
X138742812Y-98742809D01*
X138742809Y-98742812D01*
X138656649Y-98857906D01*
X138656645Y-98857913D01*
X138606403Y-98992620D01*
X138606401Y-98992627D01*
X138600000Y-99052155D01*
X138600000Y-99750000D01*
X139624722Y-99750000D01*
X139580667Y-99826306D01*
X139550000Y-99940756D01*
X139550000Y-100059244D01*
X139580667Y-100173694D01*
X139624722Y-100250000D01*
X138600000Y-100250000D01*
X138600000Y-100947844D01*
X138606401Y-101007372D01*
X138606403Y-101007379D01*
X138656645Y-101142086D01*
X138656649Y-101142093D01*
X138742809Y-101257187D01*
X138742812Y-101257190D01*
X138857906Y-101343350D01*
X138857913Y-101343354D01*
X138938270Y-101373325D01*
X138994204Y-101415196D01*
X139018621Y-101480660D01*
X139003770Y-101548933D01*
X138986168Y-101573489D01*
X138891021Y-101676847D01*
X138891019Y-101676848D01*
X138891016Y-101676853D01*
X138764075Y-101871151D01*
X138670842Y-102083699D01*
X138613866Y-102308691D01*
X138613864Y-102308702D01*
X138594700Y-102539993D01*
X134719887Y-102539993D01*
X134630136Y-102347521D01*
X134630132Y-102347513D01*
X134579025Y-102274526D01*
X133900000Y-102953551D01*
X133900000Y-102947339D01*
X133872741Y-102845606D01*
X133820080Y-102754394D01*
X133745606Y-102679920D01*
X133654394Y-102627259D01*
X133552661Y-102600000D01*
X133546448Y-102600000D01*
X134225472Y-101920974D01*
X134152478Y-101869863D01*
X133946331Y-101773735D01*
X133946317Y-101773730D01*
X133726610Y-101714860D01*
X133726599Y-101714858D01*
X133500002Y-101695034D01*
X133499998Y-101695034D01*
X133273400Y-101714858D01*
X133273389Y-101714860D01*
X133053682Y-101773730D01*
X133053673Y-101773734D01*
X132847516Y-101869866D01*
X132847512Y-101869868D01*
X132774526Y-101920973D01*
X132774526Y-101920974D01*
X133453553Y-102600000D01*
X133447339Y-102600000D01*
X133345606Y-102627259D01*
X133254394Y-102679920D01*
X133179920Y-102754394D01*
X133127259Y-102845606D01*
X133100000Y-102947339D01*
X133100000Y-102953552D01*
X132420974Y-102274526D01*
X132420973Y-102274526D01*
X132369868Y-102347512D01*
X132369866Y-102347516D01*
X132273734Y-102553673D01*
X132273730Y-102553682D01*
X132214860Y-102773389D01*
X132214858Y-102773400D01*
X132195034Y-102999997D01*
X128327535Y-102999997D01*
X128329157Y-102996300D01*
X128386134Y-102771305D01*
X128386135Y-102771297D01*
X128405300Y-102540006D01*
X128405300Y-102539993D01*
X128386135Y-102308702D01*
X128386133Y-102308691D01*
X128329157Y-102083699D01*
X128235924Y-101871151D01*
X128108981Y-101676849D01*
X128013832Y-101573489D01*
X127982910Y-101510835D01*
X127990770Y-101441409D01*
X128034918Y-101387253D01*
X128061730Y-101373325D01*
X128142084Y-101343355D01*
X128142093Y-101343350D01*
X128257187Y-101257190D01*
X128257190Y-101257187D01*
X128343350Y-101142093D01*
X128343354Y-101142086D01*
X128393596Y-101007379D01*
X128393598Y-101007372D01*
X128399999Y-100947844D01*
X128400000Y-100947827D01*
X128400000Y-100250000D01*
X127375278Y-100250000D01*
X127419333Y-100173694D01*
X127450000Y-100059244D01*
X127450000Y-99999998D01*
X132194532Y-99999998D01*
X132194532Y-100000001D01*
X132214364Y-100226686D01*
X132214366Y-100226697D01*
X132273258Y-100446488D01*
X132273261Y-100446497D01*
X132369431Y-100652732D01*
X132369432Y-100652734D01*
X132499954Y-100839141D01*
X132660858Y-101000045D01*
X132660861Y-101000047D01*
X132847266Y-101130568D01*
X133053504Y-101226739D01*
X133273308Y-101285635D01*
X133435230Y-101299801D01*
X133499998Y-101305468D01*
X133500000Y-101305468D01*
X133500002Y-101305468D01*
X133556673Y-101300509D01*
X133726692Y-101285635D01*
X133946496Y-101226739D01*
X134152734Y-101130568D01*
X134339139Y-101000047D01*
X134500047Y-100839139D01*
X134630568Y-100652734D01*
X134726739Y-100446496D01*
X134785635Y-100226692D01*
X134805468Y-100000000D01*
X134785635Y-99773308D01*
X134726739Y-99553504D01*
X134630568Y-99347266D01*
X134500047Y-99160861D01*
X134500045Y-99160858D01*
X134339141Y-98999954D01*
X134152734Y-98869432D01*
X134152732Y-98869431D01*
X133946497Y-98773261D01*
X133946488Y-98773258D01*
X133726697Y-98714366D01*
X133726693Y-98714365D01*
X133726692Y-98714365D01*
X133726691Y-98714364D01*
X133726686Y-98714364D01*
X133500002Y-98694532D01*
X133499998Y-98694532D01*
X133273313Y-98714364D01*
X133273302Y-98714366D01*
X133053511Y-98773258D01*
X133053502Y-98773261D01*
X132847267Y-98869431D01*
X132847265Y-98869432D01*
X132660858Y-98999954D01*
X132499954Y-99160858D01*
X132369432Y-99347265D01*
X132369431Y-99347267D01*
X132273261Y-99553502D01*
X132273258Y-99553511D01*
X132214366Y-99773302D01*
X132214364Y-99773313D01*
X132194532Y-99999998D01*
X127450000Y-99999998D01*
X127450000Y-99940756D01*
X127419333Y-99826306D01*
X127375278Y-99750000D01*
X128400000Y-99750000D01*
X128400000Y-99052172D01*
X128399999Y-99052155D01*
X128393598Y-98992627D01*
X128393596Y-98992620D01*
X128343354Y-98857913D01*
X128343350Y-98857906D01*
X128257190Y-98742812D01*
X128257187Y-98742809D01*
X128142093Y-98656649D01*
X128142086Y-98656645D01*
X128007379Y-98606403D01*
X128007372Y-98606401D01*
X127947844Y-98600000D01*
X127250000Y-98600000D01*
X127250000Y-99624722D01*
X127173694Y-99580667D01*
X127059244Y-99550000D01*
X126940756Y-99550000D01*
X126826306Y-99580667D01*
X126750000Y-99624722D01*
X126750000Y-98600000D01*
X126052155Y-98600000D01*
X125992627Y-98606401D01*
X125992620Y-98606403D01*
X125857913Y-98656645D01*
X125857906Y-98656649D01*
X125742812Y-98742809D01*
X125742809Y-98742812D01*
X125656649Y-98857906D01*
X125656645Y-98857913D01*
X125606403Y-98992620D01*
X125606401Y-98992627D01*
X125600000Y-99052155D01*
X125600000Y-99750000D01*
X126624722Y-99750000D01*
X126580667Y-99826306D01*
X126550000Y-99940756D01*
X126550000Y-100059244D01*
X126580667Y-100173694D01*
X126624722Y-100250000D01*
X125600000Y-100250000D01*
X125600000Y-100947844D01*
X125606401Y-101007372D01*
X125606403Y-101007379D01*
X125656645Y-101142086D01*
X125656649Y-101142093D01*
X125742809Y-101257187D01*
X125742812Y-101257190D01*
X125857906Y-101343350D01*
X125857913Y-101343354D01*
X125938270Y-101373325D01*
X125994204Y-101415196D01*
X126018621Y-101480660D01*
X126003770Y-101548933D01*
X125986168Y-101573489D01*
X125891021Y-101676847D01*
X125891019Y-101676848D01*
X125891016Y-101676853D01*
X125764075Y-101871151D01*
X125670842Y-102083699D01*
X125613866Y-102308691D01*
X125613864Y-102308702D01*
X125594700Y-102539993D01*
X122219887Y-102539993D01*
X122130136Y-102347521D01*
X122130132Y-102347513D01*
X122079025Y-102274526D01*
X121400000Y-102953551D01*
X121400000Y-102947339D01*
X121372741Y-102845606D01*
X121320080Y-102754394D01*
X121245606Y-102679920D01*
X121154394Y-102627259D01*
X121052661Y-102600000D01*
X121046448Y-102600000D01*
X121725472Y-101920974D01*
X121652478Y-101869863D01*
X121446331Y-101773735D01*
X121446317Y-101773730D01*
X121226610Y-101714860D01*
X121226599Y-101714858D01*
X121000002Y-101695034D01*
X120999998Y-101695034D01*
X120773400Y-101714858D01*
X120773389Y-101714860D01*
X120553682Y-101773730D01*
X120553673Y-101773734D01*
X120347516Y-101869866D01*
X120347512Y-101869868D01*
X120274526Y-101920973D01*
X120274526Y-101920974D01*
X120953553Y-102600000D01*
X120947339Y-102600000D01*
X120845606Y-102627259D01*
X120754394Y-102679920D01*
X120679920Y-102754394D01*
X120627259Y-102845606D01*
X120600000Y-102947339D01*
X120600000Y-102953552D01*
X119920974Y-102274526D01*
X119920973Y-102274526D01*
X119869868Y-102347512D01*
X119869866Y-102347516D01*
X119773734Y-102553673D01*
X119773730Y-102553682D01*
X119714860Y-102773389D01*
X119714858Y-102773400D01*
X119695034Y-102999997D01*
X116327535Y-102999997D01*
X116329157Y-102996300D01*
X116386134Y-102771305D01*
X116386135Y-102771297D01*
X116405300Y-102540006D01*
X116405300Y-102539993D01*
X116386135Y-102308702D01*
X116386133Y-102308691D01*
X116329157Y-102083699D01*
X116235924Y-101871151D01*
X116108981Y-101676849D01*
X116013832Y-101573489D01*
X115982910Y-101510835D01*
X115990770Y-101441409D01*
X116034918Y-101387253D01*
X116061730Y-101373325D01*
X116142084Y-101343355D01*
X116142093Y-101343350D01*
X116257187Y-101257190D01*
X116257190Y-101257187D01*
X116343350Y-101142093D01*
X116343354Y-101142086D01*
X116393596Y-101007379D01*
X116393598Y-101007372D01*
X116399999Y-100947844D01*
X116400000Y-100947827D01*
X116400000Y-100250000D01*
X115375278Y-100250000D01*
X115419333Y-100173694D01*
X115450000Y-100059244D01*
X115450000Y-99999998D01*
X119694532Y-99999998D01*
X119694532Y-100000001D01*
X119714364Y-100226686D01*
X119714366Y-100226697D01*
X119773258Y-100446488D01*
X119773261Y-100446497D01*
X119869431Y-100652732D01*
X119869432Y-100652734D01*
X119999954Y-100839141D01*
X120160858Y-101000045D01*
X120160861Y-101000047D01*
X120347266Y-101130568D01*
X120553504Y-101226739D01*
X120773308Y-101285635D01*
X120935230Y-101299801D01*
X120999998Y-101305468D01*
X121000000Y-101305468D01*
X121000002Y-101305468D01*
X121056673Y-101300509D01*
X121226692Y-101285635D01*
X121446496Y-101226739D01*
X121652734Y-101130568D01*
X121839139Y-101000047D01*
X122000047Y-100839139D01*
X122130568Y-100652734D01*
X122226739Y-100446496D01*
X122285635Y-100226692D01*
X122305468Y-100000000D01*
X122285635Y-99773308D01*
X122226739Y-99553504D01*
X122130568Y-99347266D01*
X122000047Y-99160861D01*
X122000045Y-99160858D01*
X121839141Y-98999954D01*
X121652734Y-98869432D01*
X121652732Y-98869431D01*
X121446497Y-98773261D01*
X121446488Y-98773258D01*
X121226697Y-98714366D01*
X121226693Y-98714365D01*
X121226692Y-98714365D01*
X121226691Y-98714364D01*
X121226686Y-98714364D01*
X121000002Y-98694532D01*
X120999998Y-98694532D01*
X120773313Y-98714364D01*
X120773302Y-98714366D01*
X120553511Y-98773258D01*
X120553502Y-98773261D01*
X120347267Y-98869431D01*
X120347265Y-98869432D01*
X120160858Y-98999954D01*
X119999954Y-99160858D01*
X119869432Y-99347265D01*
X119869431Y-99347267D01*
X119773261Y-99553502D01*
X119773258Y-99553511D01*
X119714366Y-99773302D01*
X119714364Y-99773313D01*
X119694532Y-99999998D01*
X115450000Y-99999998D01*
X115450000Y-99940756D01*
X115419333Y-99826306D01*
X115375278Y-99750000D01*
X116400000Y-99750000D01*
X116400000Y-99052172D01*
X116399999Y-99052155D01*
X116393598Y-98992627D01*
X116393596Y-98992620D01*
X116343354Y-98857913D01*
X116343350Y-98857906D01*
X116257190Y-98742812D01*
X116257187Y-98742809D01*
X116142093Y-98656649D01*
X116142086Y-98656645D01*
X116007379Y-98606403D01*
X116007372Y-98606401D01*
X115947844Y-98600000D01*
X115250000Y-98600000D01*
X115250000Y-99624722D01*
X115173694Y-99580667D01*
X115059244Y-99550000D01*
X114940756Y-99550000D01*
X114826306Y-99580667D01*
X114750000Y-99624722D01*
X114750000Y-98600000D01*
X114052155Y-98600000D01*
X113992627Y-98606401D01*
X113992620Y-98606403D01*
X113857913Y-98656645D01*
X113857906Y-98656649D01*
X113742812Y-98742809D01*
X113742809Y-98742812D01*
X113656649Y-98857906D01*
X113656645Y-98857913D01*
X113606403Y-98992620D01*
X113606401Y-98992627D01*
X113600000Y-99052155D01*
X113600000Y-99750000D01*
X114624722Y-99750000D01*
X114580667Y-99826306D01*
X114550000Y-99940756D01*
X114550000Y-100059244D01*
X114580667Y-100173694D01*
X114624722Y-100250000D01*
X113600000Y-100250000D01*
X113600000Y-100947844D01*
X113606401Y-101007372D01*
X113606403Y-101007379D01*
X113656645Y-101142086D01*
X113656649Y-101142093D01*
X113742809Y-101257187D01*
X113742812Y-101257190D01*
X113857906Y-101343350D01*
X113857913Y-101343354D01*
X113938270Y-101373325D01*
X113994204Y-101415196D01*
X114018621Y-101480660D01*
X114003770Y-101548933D01*
X113986168Y-101573489D01*
X113891021Y-101676847D01*
X113891019Y-101676848D01*
X113891016Y-101676853D01*
X113764075Y-101871151D01*
X113670842Y-102083699D01*
X113613866Y-102308691D01*
X113613864Y-102308702D01*
X113594700Y-102539993D01*
X109719887Y-102539993D01*
X109630136Y-102347521D01*
X109630132Y-102347513D01*
X109579025Y-102274526D01*
X108900000Y-102953551D01*
X108900000Y-102947339D01*
X108872741Y-102845606D01*
X108820080Y-102754394D01*
X108745606Y-102679920D01*
X108654394Y-102627259D01*
X108552661Y-102600000D01*
X108546448Y-102600000D01*
X109225472Y-101920974D01*
X109152478Y-101869863D01*
X108946331Y-101773735D01*
X108946317Y-101773730D01*
X108726610Y-101714860D01*
X108726599Y-101714858D01*
X108500002Y-101695034D01*
X108499998Y-101695034D01*
X108273400Y-101714858D01*
X108273389Y-101714860D01*
X108053682Y-101773730D01*
X108053673Y-101773734D01*
X107847516Y-101869866D01*
X107847512Y-101869868D01*
X107774526Y-101920973D01*
X107774526Y-101920974D01*
X108453553Y-102600000D01*
X108447339Y-102600000D01*
X108345606Y-102627259D01*
X108254394Y-102679920D01*
X108179920Y-102754394D01*
X108127259Y-102845606D01*
X108100000Y-102947339D01*
X108100000Y-102953552D01*
X107420974Y-102274526D01*
X107420973Y-102274526D01*
X107369868Y-102347512D01*
X107369866Y-102347516D01*
X107273734Y-102553673D01*
X107273730Y-102553682D01*
X107214860Y-102773389D01*
X107214858Y-102773400D01*
X107195034Y-102999997D01*
X103327535Y-102999997D01*
X103329157Y-102996300D01*
X103386134Y-102771305D01*
X103386135Y-102771297D01*
X103405300Y-102540006D01*
X103405300Y-102539993D01*
X103386135Y-102308702D01*
X103386133Y-102308691D01*
X103329157Y-102083699D01*
X103235924Y-101871151D01*
X103108981Y-101676849D01*
X103013832Y-101573489D01*
X102982910Y-101510835D01*
X102990770Y-101441409D01*
X103034918Y-101387253D01*
X103061730Y-101373325D01*
X103142084Y-101343355D01*
X103142093Y-101343350D01*
X103257187Y-101257190D01*
X103257190Y-101257187D01*
X103343350Y-101142093D01*
X103343354Y-101142086D01*
X103393596Y-101007379D01*
X103393598Y-101007372D01*
X103399999Y-100947844D01*
X103400000Y-100947827D01*
X103400000Y-100250000D01*
X102375278Y-100250000D01*
X102419333Y-100173694D01*
X102450000Y-100059244D01*
X102450000Y-99999998D01*
X107194532Y-99999998D01*
X107194532Y-100000001D01*
X107214364Y-100226686D01*
X107214366Y-100226697D01*
X107273258Y-100446488D01*
X107273261Y-100446497D01*
X107369431Y-100652732D01*
X107369432Y-100652734D01*
X107499954Y-100839141D01*
X107660858Y-101000045D01*
X107660861Y-101000047D01*
X107847266Y-101130568D01*
X108053504Y-101226739D01*
X108273308Y-101285635D01*
X108435230Y-101299801D01*
X108499998Y-101305468D01*
X108500000Y-101305468D01*
X108500002Y-101305468D01*
X108556673Y-101300509D01*
X108726692Y-101285635D01*
X108946496Y-101226739D01*
X109152734Y-101130568D01*
X109339139Y-101000047D01*
X109500047Y-100839139D01*
X109630568Y-100652734D01*
X109726739Y-100446496D01*
X109785635Y-100226692D01*
X109805468Y-100000000D01*
X109785635Y-99773308D01*
X109726739Y-99553504D01*
X109630568Y-99347266D01*
X109500047Y-99160861D01*
X109500045Y-99160858D01*
X109339141Y-98999954D01*
X109152734Y-98869432D01*
X109152732Y-98869431D01*
X108946497Y-98773261D01*
X108946488Y-98773258D01*
X108726697Y-98714366D01*
X108726693Y-98714365D01*
X108726692Y-98714365D01*
X108726691Y-98714364D01*
X108726686Y-98714364D01*
X108500002Y-98694532D01*
X108499998Y-98694532D01*
X108273313Y-98714364D01*
X108273302Y-98714366D01*
X108053511Y-98773258D01*
X108053502Y-98773261D01*
X107847267Y-98869431D01*
X107847265Y-98869432D01*
X107660858Y-98999954D01*
X107499954Y-99160858D01*
X107369432Y-99347265D01*
X107369431Y-99347267D01*
X107273261Y-99553502D01*
X107273258Y-99553511D01*
X107214366Y-99773302D01*
X107214364Y-99773313D01*
X107194532Y-99999998D01*
X102450000Y-99999998D01*
X102450000Y-99940756D01*
X102419333Y-99826306D01*
X102375278Y-99750000D01*
X103400000Y-99750000D01*
X103400000Y-99052172D01*
X103399999Y-99052155D01*
X103393598Y-98992627D01*
X103393596Y-98992620D01*
X103343354Y-98857913D01*
X103343350Y-98857906D01*
X103257190Y-98742812D01*
X103257187Y-98742809D01*
X103142093Y-98656649D01*
X103142086Y-98656645D01*
X103007379Y-98606403D01*
X103007372Y-98606401D01*
X102947844Y-98600000D01*
X102250000Y-98600000D01*
X102250000Y-99624722D01*
X102173694Y-99580667D01*
X102059244Y-99550000D01*
X101940756Y-99550000D01*
X101826306Y-99580667D01*
X101750000Y-99624722D01*
X101750000Y-98600000D01*
X101052155Y-98600000D01*
X100992627Y-98606401D01*
X100992620Y-98606403D01*
X100857913Y-98656645D01*
X100857906Y-98656649D01*
X100742812Y-98742809D01*
X100742809Y-98742812D01*
X100656649Y-98857906D01*
X100656645Y-98857913D01*
X100606403Y-98992620D01*
X100606401Y-98992627D01*
X100600000Y-99052155D01*
X100600000Y-99750000D01*
X101624722Y-99750000D01*
X101580667Y-99826306D01*
X101550000Y-99940756D01*
X101550000Y-100059244D01*
X101580667Y-100173694D01*
X101624722Y-100250000D01*
X100600000Y-100250000D01*
X100600000Y-100947844D01*
X100606401Y-101007372D01*
X100606403Y-101007379D01*
X100656645Y-101142086D01*
X100656649Y-101142093D01*
X100742809Y-101257187D01*
X100742812Y-101257190D01*
X100857906Y-101343350D01*
X100857913Y-101343354D01*
X100938270Y-101373325D01*
X100994204Y-101415196D01*
X101018621Y-101480660D01*
X101003770Y-101548933D01*
X100986168Y-101573489D01*
X100891021Y-101676847D01*
X100891019Y-101676848D01*
X100891016Y-101676853D01*
X100764075Y-101871151D01*
X100670842Y-102083699D01*
X100613866Y-102308691D01*
X100613864Y-102308702D01*
X100594700Y-102539993D01*
X97219887Y-102539993D01*
X97130136Y-102347521D01*
X97130132Y-102347513D01*
X97079025Y-102274526D01*
X96400000Y-102953551D01*
X96400000Y-102947339D01*
X96372741Y-102845606D01*
X96320080Y-102754394D01*
X96245606Y-102679920D01*
X96154394Y-102627259D01*
X96052661Y-102600000D01*
X96046448Y-102600000D01*
X96725472Y-101920974D01*
X96652478Y-101869863D01*
X96446331Y-101773735D01*
X96446317Y-101773730D01*
X96226610Y-101714860D01*
X96226599Y-101714858D01*
X96000002Y-101695034D01*
X95999998Y-101695034D01*
X95773400Y-101714858D01*
X95773389Y-101714860D01*
X95553682Y-101773730D01*
X95553673Y-101773734D01*
X95347516Y-101869866D01*
X95347512Y-101869868D01*
X95274526Y-101920973D01*
X95274526Y-101920974D01*
X95953553Y-102600000D01*
X95947339Y-102600000D01*
X95845606Y-102627259D01*
X95754394Y-102679920D01*
X95679920Y-102754394D01*
X95627259Y-102845606D01*
X95600000Y-102947339D01*
X95600000Y-102953552D01*
X94920974Y-102274526D01*
X94920973Y-102274526D01*
X94869868Y-102347512D01*
X94869866Y-102347516D01*
X94773734Y-102553673D01*
X94773730Y-102553682D01*
X94714860Y-102773389D01*
X94714858Y-102773400D01*
X94695034Y-102999997D01*
X91300500Y-102999997D01*
X91300500Y-99999998D01*
X94694532Y-99999998D01*
X94694532Y-100000001D01*
X94714364Y-100226686D01*
X94714366Y-100226697D01*
X94773258Y-100446488D01*
X94773261Y-100446497D01*
X94869431Y-100652732D01*
X94869432Y-100652734D01*
X94999954Y-100839141D01*
X95160858Y-101000045D01*
X95160861Y-101000047D01*
X95347266Y-101130568D01*
X95553504Y-101226739D01*
X95773308Y-101285635D01*
X95935230Y-101299801D01*
X95999998Y-101305468D01*
X96000000Y-101305468D01*
X96000002Y-101305468D01*
X96056673Y-101300509D01*
X96226692Y-101285635D01*
X96446496Y-101226739D01*
X96652734Y-101130568D01*
X96839139Y-101000047D01*
X97000047Y-100839139D01*
X97130568Y-100652734D01*
X97226739Y-100446496D01*
X97285635Y-100226692D01*
X97305468Y-100000000D01*
X97285635Y-99773308D01*
X97226739Y-99553504D01*
X97130568Y-99347266D01*
X97000047Y-99160861D01*
X97000045Y-99160858D01*
X96839141Y-98999954D01*
X96652734Y-98869432D01*
X96652732Y-98869431D01*
X96446497Y-98773261D01*
X96446488Y-98773258D01*
X96226697Y-98714366D01*
X96226693Y-98714365D01*
X96226692Y-98714365D01*
X96226691Y-98714364D01*
X96226686Y-98714364D01*
X96000002Y-98694532D01*
X95999998Y-98694532D01*
X95773313Y-98714364D01*
X95773302Y-98714366D01*
X95553511Y-98773258D01*
X95553502Y-98773261D01*
X95347267Y-98869431D01*
X95347265Y-98869432D01*
X95160858Y-98999954D01*
X94999954Y-99160858D01*
X94869432Y-99347265D01*
X94869431Y-99347267D01*
X94773261Y-99553502D01*
X94773258Y-99553511D01*
X94714366Y-99773302D01*
X94714364Y-99773313D01*
X94694532Y-99999998D01*
X91300500Y-99999998D01*
X91300500Y-94579998D01*
X94694532Y-94579998D01*
X94694532Y-94580001D01*
X94714364Y-94806686D01*
X94714366Y-94806697D01*
X94773258Y-95026488D01*
X94773261Y-95026497D01*
X94869431Y-95232732D01*
X94869432Y-95232734D01*
X94999954Y-95419141D01*
X95160858Y-95580045D01*
X95160861Y-95580047D01*
X95347266Y-95710568D01*
X95553504Y-95806739D01*
X95773308Y-95865635D01*
X95935230Y-95879801D01*
X95999998Y-95885468D01*
X96000000Y-95885468D01*
X96000002Y-95885468D01*
X96056673Y-95880509D01*
X96226692Y-95865635D01*
X96446496Y-95806739D01*
X96652734Y-95710568D01*
X96839139Y-95580047D01*
X97000047Y-95419139D01*
X97130568Y-95232734D01*
X97226739Y-95026496D01*
X97285635Y-94806692D01*
X97305468Y-94580000D01*
X97305468Y-94579998D01*
X100694532Y-94579998D01*
X100694532Y-94580001D01*
X100714364Y-94806686D01*
X100714366Y-94806697D01*
X100773258Y-95026488D01*
X100773261Y-95026497D01*
X100869431Y-95232732D01*
X100869432Y-95232734D01*
X100999954Y-95419141D01*
X101160858Y-95580045D01*
X101160861Y-95580047D01*
X101347266Y-95710568D01*
X101553504Y-95806739D01*
X101773308Y-95865635D01*
X101935230Y-95879801D01*
X101999998Y-95885468D01*
X102000000Y-95885468D01*
X102000002Y-95885468D01*
X102056673Y-95880509D01*
X102226692Y-95865635D01*
X102446496Y-95806739D01*
X102652734Y-95710568D01*
X102839139Y-95580047D01*
X103000047Y-95419139D01*
X103130568Y-95232734D01*
X103226739Y-95026496D01*
X103285635Y-94806692D01*
X103305468Y-94580000D01*
X103305468Y-94579998D01*
X107194532Y-94579998D01*
X107194532Y-94580001D01*
X107214364Y-94806686D01*
X107214366Y-94806697D01*
X107273258Y-95026488D01*
X107273261Y-95026497D01*
X107369431Y-95232732D01*
X107369432Y-95232734D01*
X107499954Y-95419141D01*
X107660858Y-95580045D01*
X107660861Y-95580047D01*
X107847266Y-95710568D01*
X108053504Y-95806739D01*
X108273308Y-95865635D01*
X108435230Y-95879801D01*
X108499998Y-95885468D01*
X108500000Y-95885468D01*
X108500002Y-95885468D01*
X108556673Y-95880509D01*
X108726692Y-95865635D01*
X108946496Y-95806739D01*
X109152734Y-95710568D01*
X109339139Y-95580047D01*
X109500047Y-95419139D01*
X109630568Y-95232734D01*
X109726739Y-95026496D01*
X109785635Y-94806692D01*
X109798469Y-94659998D01*
X119694532Y-94659998D01*
X119694532Y-94660001D01*
X119714364Y-94886686D01*
X119714366Y-94886697D01*
X119773258Y-95106488D01*
X119773261Y-95106497D01*
X119869431Y-95312732D01*
X119869432Y-95312734D01*
X119999954Y-95499141D01*
X120160858Y-95660045D01*
X120160861Y-95660047D01*
X120347266Y-95790568D01*
X120553504Y-95886739D01*
X120773308Y-95945635D01*
X120935230Y-95959801D01*
X120999998Y-95965468D01*
X121000000Y-95965468D01*
X121000002Y-95965468D01*
X121056673Y-95960509D01*
X121226692Y-95945635D01*
X121446496Y-95886739D01*
X121652734Y-95790568D01*
X121839139Y-95660047D01*
X122000047Y-95499139D01*
X122130568Y-95312734D01*
X122226739Y-95106496D01*
X122285635Y-94886692D01*
X122305468Y-94660000D01*
X122305468Y-94659998D01*
X132194532Y-94659998D01*
X132194532Y-94660001D01*
X132214364Y-94886686D01*
X132214366Y-94886697D01*
X132273258Y-95106488D01*
X132273261Y-95106497D01*
X132369431Y-95312732D01*
X132369432Y-95312734D01*
X132499954Y-95499141D01*
X132660858Y-95660045D01*
X132660861Y-95660047D01*
X132847266Y-95790568D01*
X133053504Y-95886739D01*
X133273308Y-95945635D01*
X133435230Y-95959801D01*
X133499998Y-95965468D01*
X133500000Y-95965468D01*
X133500002Y-95965468D01*
X133556673Y-95960509D01*
X133726692Y-95945635D01*
X133946496Y-95886739D01*
X134152734Y-95790568D01*
X134339139Y-95660047D01*
X134500047Y-95499139D01*
X134630568Y-95312734D01*
X134726739Y-95106496D01*
X134785635Y-94886692D01*
X134805468Y-94660000D01*
X134798469Y-94579998D01*
X144694532Y-94579998D01*
X144694532Y-94580001D01*
X144714364Y-94806686D01*
X144714366Y-94806697D01*
X144773258Y-95026488D01*
X144773261Y-95026497D01*
X144869431Y-95232732D01*
X144869432Y-95232734D01*
X144999954Y-95419141D01*
X145160858Y-95580045D01*
X145160861Y-95580047D01*
X145347266Y-95710568D01*
X145553504Y-95806739D01*
X145773308Y-95865635D01*
X145935230Y-95879801D01*
X145999998Y-95885468D01*
X146000000Y-95885468D01*
X146000002Y-95885468D01*
X146056673Y-95880509D01*
X146226692Y-95865635D01*
X146446496Y-95806739D01*
X146652734Y-95710568D01*
X146839139Y-95580047D01*
X147000047Y-95419139D01*
X147130568Y-95232734D01*
X147226739Y-95026496D01*
X147285635Y-94806692D01*
X147305468Y-94580000D01*
X147305468Y-94579998D01*
X156694532Y-94579998D01*
X156694532Y-94580001D01*
X156714364Y-94806686D01*
X156714366Y-94806697D01*
X156773258Y-95026488D01*
X156773261Y-95026497D01*
X156869431Y-95232732D01*
X156869432Y-95232734D01*
X156999954Y-95419141D01*
X157160858Y-95580045D01*
X157160861Y-95580047D01*
X157347266Y-95710568D01*
X157553504Y-95806739D01*
X157773308Y-95865635D01*
X157935230Y-95879801D01*
X157999998Y-95885468D01*
X158000000Y-95885468D01*
X158000002Y-95885468D01*
X158056673Y-95880509D01*
X158226692Y-95865635D01*
X158446496Y-95806739D01*
X158652734Y-95710568D01*
X158839139Y-95580047D01*
X159000047Y-95419139D01*
X159130568Y-95232734D01*
X159226739Y-95026496D01*
X159285635Y-94806692D01*
X159298469Y-94659998D01*
X169194532Y-94659998D01*
X169194532Y-94660001D01*
X169214364Y-94886686D01*
X169214366Y-94886697D01*
X169273258Y-95106488D01*
X169273261Y-95106497D01*
X169369431Y-95312732D01*
X169369432Y-95312734D01*
X169499954Y-95499141D01*
X169660858Y-95660045D01*
X169660861Y-95660047D01*
X169847266Y-95790568D01*
X170053504Y-95886739D01*
X170273308Y-95945635D01*
X170435230Y-95959801D01*
X170499998Y-95965468D01*
X170500000Y-95965468D01*
X170500002Y-95965468D01*
X170556673Y-95960509D01*
X170726692Y-95945635D01*
X170946496Y-95886739D01*
X171152734Y-95790568D01*
X171339139Y-95660047D01*
X171500047Y-95499139D01*
X171630568Y-95312734D01*
X171726739Y-95106496D01*
X171785635Y-94886692D01*
X171805468Y-94660000D01*
X171785635Y-94433308D01*
X171726739Y-94213504D01*
X171630568Y-94007266D01*
X171500047Y-93820861D01*
X171500045Y-93820858D01*
X171339141Y-93659954D01*
X171152734Y-93529432D01*
X171152732Y-93529431D01*
X170946497Y-93433261D01*
X170946488Y-93433258D01*
X170726697Y-93374366D01*
X170726693Y-93374365D01*
X170726692Y-93374365D01*
X170726691Y-93374364D01*
X170726686Y-93374364D01*
X170500002Y-93354532D01*
X170499998Y-93354532D01*
X170273313Y-93374364D01*
X170273302Y-93374366D01*
X170053511Y-93433258D01*
X170053502Y-93433261D01*
X169847267Y-93529431D01*
X169847265Y-93529432D01*
X169660858Y-93659954D01*
X169499954Y-93820858D01*
X169369432Y-94007265D01*
X169369431Y-94007267D01*
X169273261Y-94213502D01*
X169273258Y-94213511D01*
X169214366Y-94433302D01*
X169214364Y-94433313D01*
X169194532Y-94659998D01*
X159298469Y-94659998D01*
X159305468Y-94580000D01*
X159285635Y-94353308D01*
X159226739Y-94133504D01*
X159130568Y-93927266D01*
X159000047Y-93740861D01*
X159000045Y-93740858D01*
X158839141Y-93579954D01*
X158652734Y-93449432D01*
X158652732Y-93449431D01*
X158446497Y-93353261D01*
X158446488Y-93353258D01*
X158226697Y-93294366D01*
X158226693Y-93294365D01*
X158226692Y-93294365D01*
X158226691Y-93294364D01*
X158226686Y-93294364D01*
X158000002Y-93274532D01*
X157999998Y-93274532D01*
X157773313Y-93294364D01*
X157773302Y-93294366D01*
X157553511Y-93353258D01*
X157553502Y-93353261D01*
X157347267Y-93449431D01*
X157347265Y-93449432D01*
X157160858Y-93579954D01*
X156999954Y-93740858D01*
X156869432Y-93927265D01*
X156869431Y-93927267D01*
X156773261Y-94133502D01*
X156773258Y-94133511D01*
X156714366Y-94353302D01*
X156714364Y-94353313D01*
X156694532Y-94579998D01*
X147305468Y-94579998D01*
X147285635Y-94353308D01*
X147226739Y-94133504D01*
X147130568Y-93927266D01*
X147000047Y-93740861D01*
X147000045Y-93740858D01*
X146839141Y-93579954D01*
X146652734Y-93449432D01*
X146652732Y-93449431D01*
X146446497Y-93353261D01*
X146446488Y-93353258D01*
X146226697Y-93294366D01*
X146226693Y-93294365D01*
X146226692Y-93294365D01*
X146226691Y-93294364D01*
X146226686Y-93294364D01*
X146000002Y-93274532D01*
X145999998Y-93274532D01*
X145773313Y-93294364D01*
X145773302Y-93294366D01*
X145553511Y-93353258D01*
X145553502Y-93353261D01*
X145347267Y-93449431D01*
X145347265Y-93449432D01*
X145160858Y-93579954D01*
X144999954Y-93740858D01*
X144869432Y-93927265D01*
X144869431Y-93927267D01*
X144773261Y-94133502D01*
X144773258Y-94133511D01*
X144714366Y-94353302D01*
X144714364Y-94353313D01*
X144694532Y-94579998D01*
X134798469Y-94579998D01*
X134785635Y-94433308D01*
X134726739Y-94213504D01*
X134630568Y-94007266D01*
X134500047Y-93820861D01*
X134500045Y-93820858D01*
X134339141Y-93659954D01*
X134152734Y-93529432D01*
X134152732Y-93529431D01*
X133946497Y-93433261D01*
X133946488Y-93433258D01*
X133726697Y-93374366D01*
X133726693Y-93374365D01*
X133726692Y-93374365D01*
X133726691Y-93374364D01*
X133726686Y-93374364D01*
X133500002Y-93354532D01*
X133499998Y-93354532D01*
X133273313Y-93374364D01*
X133273302Y-93374366D01*
X133053511Y-93433258D01*
X133053502Y-93433261D01*
X132847267Y-93529431D01*
X132847265Y-93529432D01*
X132660858Y-93659954D01*
X132499954Y-93820858D01*
X132369432Y-94007265D01*
X132369431Y-94007267D01*
X132273261Y-94213502D01*
X132273258Y-94213511D01*
X132214366Y-94433302D01*
X132214364Y-94433313D01*
X132194532Y-94659998D01*
X122305468Y-94659998D01*
X122285635Y-94433308D01*
X122226739Y-94213504D01*
X122130568Y-94007266D01*
X122000047Y-93820861D01*
X122000045Y-93820858D01*
X121839141Y-93659954D01*
X121652734Y-93529432D01*
X121652732Y-93529431D01*
X121446497Y-93433261D01*
X121446488Y-93433258D01*
X121226697Y-93374366D01*
X121226693Y-93374365D01*
X121226692Y-93374365D01*
X121226691Y-93374364D01*
X121226686Y-93374364D01*
X121000002Y-93354532D01*
X120999998Y-93354532D01*
X120773313Y-93374364D01*
X120773302Y-93374366D01*
X120553511Y-93433258D01*
X120553502Y-93433261D01*
X120347267Y-93529431D01*
X120347265Y-93529432D01*
X120160858Y-93659954D01*
X119999954Y-93820858D01*
X119869432Y-94007265D01*
X119869431Y-94007267D01*
X119773261Y-94213502D01*
X119773258Y-94213511D01*
X119714366Y-94433302D01*
X119714364Y-94433313D01*
X119694532Y-94659998D01*
X109798469Y-94659998D01*
X109805468Y-94580000D01*
X109785635Y-94353308D01*
X109726739Y-94133504D01*
X109630568Y-93927266D01*
X109500047Y-93740861D01*
X109500045Y-93740858D01*
X109339141Y-93579954D01*
X109152734Y-93449432D01*
X109152732Y-93449431D01*
X108946497Y-93353261D01*
X108946488Y-93353258D01*
X108726697Y-93294366D01*
X108726693Y-93294365D01*
X108726692Y-93294365D01*
X108726691Y-93294364D01*
X108726686Y-93294364D01*
X108500002Y-93274532D01*
X108499998Y-93274532D01*
X108273313Y-93294364D01*
X108273302Y-93294366D01*
X108053511Y-93353258D01*
X108053502Y-93353261D01*
X107847267Y-93449431D01*
X107847265Y-93449432D01*
X107660858Y-93579954D01*
X107499954Y-93740858D01*
X107369432Y-93927265D01*
X107369431Y-93927267D01*
X107273261Y-94133502D01*
X107273258Y-94133511D01*
X107214366Y-94353302D01*
X107214364Y-94353313D01*
X107194532Y-94579998D01*
X103305468Y-94579998D01*
X103285635Y-94353308D01*
X103226739Y-94133504D01*
X103130568Y-93927266D01*
X103000047Y-93740861D01*
X103000045Y-93740858D01*
X102839141Y-93579954D01*
X102652734Y-93449432D01*
X102652732Y-93449431D01*
X102446497Y-93353261D01*
X102446488Y-93353258D01*
X102226697Y-93294366D01*
X102226693Y-93294365D01*
X102226692Y-93294365D01*
X102226691Y-93294364D01*
X102226686Y-93294364D01*
X102000002Y-93274532D01*
X101999998Y-93274532D01*
X101773313Y-93294364D01*
X101773302Y-93294366D01*
X101553511Y-93353258D01*
X101553502Y-93353261D01*
X101347267Y-93449431D01*
X101347265Y-93449432D01*
X101160858Y-93579954D01*
X100999954Y-93740858D01*
X100869432Y-93927265D01*
X100869431Y-93927267D01*
X100773261Y-94133502D01*
X100773258Y-94133511D01*
X100714366Y-94353302D01*
X100714364Y-94353313D01*
X100694532Y-94579998D01*
X97305468Y-94579998D01*
X97285635Y-94353308D01*
X97226739Y-94133504D01*
X97130568Y-93927266D01*
X97000047Y-93740861D01*
X97000045Y-93740858D01*
X96839141Y-93579954D01*
X96652734Y-93449432D01*
X96652732Y-93449431D01*
X96446497Y-93353261D01*
X96446488Y-93353258D01*
X96226697Y-93294366D01*
X96226693Y-93294365D01*
X96226692Y-93294365D01*
X96226691Y-93294364D01*
X96226686Y-93294364D01*
X96000002Y-93274532D01*
X95999998Y-93274532D01*
X95773313Y-93294364D01*
X95773302Y-93294366D01*
X95553511Y-93353258D01*
X95553502Y-93353261D01*
X95347267Y-93449431D01*
X95347265Y-93449432D01*
X95160858Y-93579954D01*
X94999954Y-93740858D01*
X94869432Y-93927265D01*
X94869431Y-93927267D01*
X94773261Y-94133502D01*
X94773258Y-94133511D01*
X94714366Y-94353302D01*
X94714364Y-94353313D01*
X94694532Y-94579998D01*
X91300500Y-94579998D01*
X91300500Y-84419998D01*
X94694532Y-84419998D01*
X94694532Y-84420001D01*
X94714364Y-84646686D01*
X94714366Y-84646697D01*
X94773258Y-84866488D01*
X94773261Y-84866497D01*
X94869431Y-85072732D01*
X94869432Y-85072734D01*
X94999954Y-85259141D01*
X95160858Y-85420045D01*
X95160861Y-85420047D01*
X95347266Y-85550568D01*
X95553504Y-85646739D01*
X95773308Y-85705635D01*
X95935230Y-85719801D01*
X95999998Y-85725468D01*
X96000000Y-85725468D01*
X96000002Y-85725468D01*
X96056673Y-85720509D01*
X96226692Y-85705635D01*
X96446496Y-85646739D01*
X96652734Y-85550568D01*
X96839139Y-85420047D01*
X97000047Y-85259139D01*
X97130568Y-85072734D01*
X97226739Y-84866496D01*
X97285635Y-84646692D01*
X97305468Y-84420000D01*
X97305468Y-84419998D01*
X100694532Y-84419998D01*
X100694532Y-84420001D01*
X100714364Y-84646686D01*
X100714366Y-84646697D01*
X100773258Y-84866488D01*
X100773261Y-84866497D01*
X100869431Y-85072732D01*
X100869432Y-85072734D01*
X100999954Y-85259141D01*
X101160858Y-85420045D01*
X101160861Y-85420047D01*
X101347266Y-85550568D01*
X101553504Y-85646739D01*
X101773308Y-85705635D01*
X101935230Y-85719801D01*
X101999998Y-85725468D01*
X102000000Y-85725468D01*
X102000002Y-85725468D01*
X102056673Y-85720509D01*
X102226692Y-85705635D01*
X102446496Y-85646739D01*
X102652734Y-85550568D01*
X102839139Y-85420047D01*
X103000047Y-85259139D01*
X103130568Y-85072734D01*
X103226739Y-84866496D01*
X103285635Y-84646692D01*
X103305468Y-84420000D01*
X103305468Y-84419998D01*
X107194532Y-84419998D01*
X107194532Y-84420001D01*
X107214364Y-84646686D01*
X107214366Y-84646697D01*
X107273258Y-84866488D01*
X107273261Y-84866497D01*
X107369431Y-85072732D01*
X107369432Y-85072734D01*
X107499954Y-85259141D01*
X107660858Y-85420045D01*
X107660861Y-85420047D01*
X107847266Y-85550568D01*
X108053504Y-85646739D01*
X108273308Y-85705635D01*
X108435230Y-85719801D01*
X108499998Y-85725468D01*
X108500000Y-85725468D01*
X108500002Y-85725468D01*
X108556673Y-85720509D01*
X108726692Y-85705635D01*
X108946496Y-85646739D01*
X109152734Y-85550568D01*
X109339139Y-85420047D01*
X109500047Y-85259139D01*
X109630568Y-85072734D01*
X109726739Y-84866496D01*
X109785635Y-84646692D01*
X109798469Y-84499998D01*
X119694532Y-84499998D01*
X119694532Y-84500001D01*
X119714364Y-84726686D01*
X119714366Y-84726697D01*
X119773258Y-84946488D01*
X119773261Y-84946497D01*
X119869431Y-85152732D01*
X119869432Y-85152734D01*
X119999954Y-85339141D01*
X120160858Y-85500045D01*
X120160861Y-85500047D01*
X120347266Y-85630568D01*
X120553504Y-85726739D01*
X120773308Y-85785635D01*
X120935230Y-85799801D01*
X120999998Y-85805468D01*
X121000000Y-85805468D01*
X121000002Y-85805468D01*
X121056673Y-85800509D01*
X121226692Y-85785635D01*
X121446496Y-85726739D01*
X121652734Y-85630568D01*
X121839139Y-85500047D01*
X122000047Y-85339139D01*
X122130568Y-85152734D01*
X122226739Y-84946496D01*
X122285635Y-84726692D01*
X122305468Y-84500000D01*
X122305468Y-84499998D01*
X132194532Y-84499998D01*
X132194532Y-84500001D01*
X132214364Y-84726686D01*
X132214366Y-84726697D01*
X132273258Y-84946488D01*
X132273261Y-84946497D01*
X132369431Y-85152732D01*
X132369432Y-85152734D01*
X132499954Y-85339141D01*
X132660858Y-85500045D01*
X132660861Y-85500047D01*
X132847266Y-85630568D01*
X133053504Y-85726739D01*
X133273308Y-85785635D01*
X133435230Y-85799801D01*
X133499998Y-85805468D01*
X133500000Y-85805468D01*
X133500002Y-85805468D01*
X133556673Y-85800509D01*
X133726692Y-85785635D01*
X133946496Y-85726739D01*
X134152734Y-85630568D01*
X134339139Y-85500047D01*
X134500047Y-85339139D01*
X134630568Y-85152734D01*
X134726739Y-84946496D01*
X134785635Y-84726692D01*
X134805468Y-84500000D01*
X134798469Y-84419998D01*
X144694532Y-84419998D01*
X144694532Y-84420001D01*
X144714364Y-84646686D01*
X144714366Y-84646697D01*
X144773258Y-84866488D01*
X144773261Y-84866497D01*
X144869431Y-85072732D01*
X144869432Y-85072734D01*
X144999954Y-85259141D01*
X145160858Y-85420045D01*
X145160861Y-85420047D01*
X145347266Y-85550568D01*
X145553504Y-85646739D01*
X145773308Y-85705635D01*
X145935230Y-85719801D01*
X145999998Y-85725468D01*
X146000000Y-85725468D01*
X146000002Y-85725468D01*
X146056673Y-85720509D01*
X146226692Y-85705635D01*
X146446496Y-85646739D01*
X146652734Y-85550568D01*
X146839139Y-85420047D01*
X147000047Y-85259139D01*
X147130568Y-85072734D01*
X147226739Y-84866496D01*
X147285635Y-84646692D01*
X147305468Y-84420000D01*
X147305468Y-84419998D01*
X156694532Y-84419998D01*
X156694532Y-84420001D01*
X156714364Y-84646686D01*
X156714366Y-84646697D01*
X156773258Y-84866488D01*
X156773261Y-84866497D01*
X156869431Y-85072732D01*
X156869432Y-85072734D01*
X156999954Y-85259141D01*
X157160858Y-85420045D01*
X157160861Y-85420047D01*
X157347266Y-85550568D01*
X157553504Y-85646739D01*
X157773308Y-85705635D01*
X157935230Y-85719801D01*
X157999998Y-85725468D01*
X158000000Y-85725468D01*
X158000002Y-85725468D01*
X158056673Y-85720509D01*
X158226692Y-85705635D01*
X158446496Y-85646739D01*
X158652734Y-85550568D01*
X158839139Y-85420047D01*
X159000047Y-85259139D01*
X159130568Y-85072734D01*
X159226739Y-84866496D01*
X159285635Y-84646692D01*
X159298469Y-84499998D01*
X169194532Y-84499998D01*
X169194532Y-84500001D01*
X169214364Y-84726686D01*
X169214366Y-84726697D01*
X169273258Y-84946488D01*
X169273261Y-84946497D01*
X169369431Y-85152732D01*
X169369432Y-85152734D01*
X169499954Y-85339141D01*
X169660858Y-85500045D01*
X169660861Y-85500047D01*
X169847266Y-85630568D01*
X170053504Y-85726739D01*
X170273308Y-85785635D01*
X170435230Y-85799801D01*
X170499998Y-85805468D01*
X170500000Y-85805468D01*
X170500002Y-85805468D01*
X170556673Y-85800509D01*
X170726692Y-85785635D01*
X170946496Y-85726739D01*
X171152734Y-85630568D01*
X171339139Y-85500047D01*
X171500047Y-85339139D01*
X171630568Y-85152734D01*
X171726739Y-84946496D01*
X171785635Y-84726692D01*
X171805468Y-84500000D01*
X171785635Y-84273308D01*
X171726739Y-84053504D01*
X171630568Y-83847266D01*
X171500047Y-83660861D01*
X171500045Y-83660858D01*
X171339141Y-83499954D01*
X171152734Y-83369432D01*
X171152732Y-83369431D01*
X170946497Y-83273261D01*
X170946488Y-83273258D01*
X170726697Y-83214366D01*
X170726693Y-83214365D01*
X170726692Y-83214365D01*
X170726691Y-83214364D01*
X170726686Y-83214364D01*
X170500002Y-83194532D01*
X170499998Y-83194532D01*
X170273313Y-83214364D01*
X170273302Y-83214366D01*
X170053511Y-83273258D01*
X170053502Y-83273261D01*
X169847267Y-83369431D01*
X169847265Y-83369432D01*
X169660858Y-83499954D01*
X169499954Y-83660858D01*
X169369432Y-83847265D01*
X169369431Y-83847267D01*
X169273261Y-84053502D01*
X169273258Y-84053511D01*
X169214366Y-84273302D01*
X169214364Y-84273313D01*
X169194532Y-84499998D01*
X159298469Y-84499998D01*
X159305468Y-84420000D01*
X159285635Y-84193308D01*
X159226739Y-83973504D01*
X159130568Y-83767266D01*
X159000047Y-83580861D01*
X159000045Y-83580858D01*
X158839141Y-83419954D01*
X158652734Y-83289432D01*
X158652732Y-83289431D01*
X158446497Y-83193261D01*
X158446488Y-83193258D01*
X158226697Y-83134366D01*
X158226693Y-83134365D01*
X158226692Y-83134365D01*
X158226691Y-83134364D01*
X158226686Y-83134364D01*
X158000002Y-83114532D01*
X157999998Y-83114532D01*
X157773313Y-83134364D01*
X157773302Y-83134366D01*
X157553511Y-83193258D01*
X157553502Y-83193261D01*
X157347267Y-83289431D01*
X157347265Y-83289432D01*
X157160858Y-83419954D01*
X156999954Y-83580858D01*
X156869432Y-83767265D01*
X156869431Y-83767267D01*
X156773261Y-83973502D01*
X156773258Y-83973511D01*
X156714366Y-84193302D01*
X156714364Y-84193313D01*
X156694532Y-84419998D01*
X147305468Y-84419998D01*
X147285635Y-84193308D01*
X147226739Y-83973504D01*
X147130568Y-83767266D01*
X147000047Y-83580861D01*
X147000045Y-83580858D01*
X146839141Y-83419954D01*
X146652734Y-83289432D01*
X146652732Y-83289431D01*
X146446497Y-83193261D01*
X146446488Y-83193258D01*
X146226697Y-83134366D01*
X146226693Y-83134365D01*
X146226692Y-83134365D01*
X146226691Y-83134364D01*
X146226686Y-83134364D01*
X146000002Y-83114532D01*
X145999998Y-83114532D01*
X145773313Y-83134364D01*
X145773302Y-83134366D01*
X145553511Y-83193258D01*
X145553502Y-83193261D01*
X145347267Y-83289431D01*
X145347265Y-83289432D01*
X145160858Y-83419954D01*
X144999954Y-83580858D01*
X144869432Y-83767265D01*
X144869431Y-83767267D01*
X144773261Y-83973502D01*
X144773258Y-83973511D01*
X144714366Y-84193302D01*
X144714364Y-84193313D01*
X144694532Y-84419998D01*
X134798469Y-84419998D01*
X134785635Y-84273308D01*
X134726739Y-84053504D01*
X134630568Y-83847266D01*
X134500047Y-83660861D01*
X134500045Y-83660858D01*
X134339141Y-83499954D01*
X134152734Y-83369432D01*
X134152732Y-83369431D01*
X133946497Y-83273261D01*
X133946488Y-83273258D01*
X133726697Y-83214366D01*
X133726693Y-83214365D01*
X133726692Y-83214365D01*
X133726691Y-83214364D01*
X133726686Y-83214364D01*
X133500002Y-83194532D01*
X133499998Y-83194532D01*
X133273313Y-83214364D01*
X133273302Y-83214366D01*
X133053511Y-83273258D01*
X133053502Y-83273261D01*
X132847267Y-83369431D01*
X132847265Y-83369432D01*
X132660858Y-83499954D01*
X132499954Y-83660858D01*
X132369432Y-83847265D01*
X132369431Y-83847267D01*
X132273261Y-84053502D01*
X132273258Y-84053511D01*
X132214366Y-84273302D01*
X132214364Y-84273313D01*
X132194532Y-84499998D01*
X122305468Y-84499998D01*
X122285635Y-84273308D01*
X122226739Y-84053504D01*
X122130568Y-83847266D01*
X122000047Y-83660861D01*
X122000045Y-83660858D01*
X121839141Y-83499954D01*
X121652734Y-83369432D01*
X121652732Y-83369431D01*
X121446497Y-83273261D01*
X121446488Y-83273258D01*
X121226697Y-83214366D01*
X121226693Y-83214365D01*
X121226692Y-83214365D01*
X121226691Y-83214364D01*
X121226686Y-83214364D01*
X121000002Y-83194532D01*
X120999998Y-83194532D01*
X120773313Y-83214364D01*
X120773302Y-83214366D01*
X120553511Y-83273258D01*
X120553502Y-83273261D01*
X120347267Y-83369431D01*
X120347265Y-83369432D01*
X120160858Y-83499954D01*
X119999954Y-83660858D01*
X119869432Y-83847265D01*
X119869431Y-83847267D01*
X119773261Y-84053502D01*
X119773258Y-84053511D01*
X119714366Y-84273302D01*
X119714364Y-84273313D01*
X119694532Y-84499998D01*
X109798469Y-84499998D01*
X109805468Y-84420000D01*
X109785635Y-84193308D01*
X109726739Y-83973504D01*
X109630568Y-83767266D01*
X109500047Y-83580861D01*
X109500045Y-83580858D01*
X109339141Y-83419954D01*
X109152734Y-83289432D01*
X109152732Y-83289431D01*
X108946497Y-83193261D01*
X108946488Y-83193258D01*
X108726697Y-83134366D01*
X108726693Y-83134365D01*
X108726692Y-83134365D01*
X108726691Y-83134364D01*
X108726686Y-83134364D01*
X108500002Y-83114532D01*
X108499998Y-83114532D01*
X108273313Y-83134364D01*
X108273302Y-83134366D01*
X108053511Y-83193258D01*
X108053502Y-83193261D01*
X107847267Y-83289431D01*
X107847265Y-83289432D01*
X107660858Y-83419954D01*
X107499954Y-83580858D01*
X107369432Y-83767265D01*
X107369431Y-83767267D01*
X107273261Y-83973502D01*
X107273258Y-83973511D01*
X107214366Y-84193302D01*
X107214364Y-84193313D01*
X107194532Y-84419998D01*
X103305468Y-84419998D01*
X103285635Y-84193308D01*
X103226739Y-83973504D01*
X103130568Y-83767266D01*
X103000047Y-83580861D01*
X103000045Y-83580858D01*
X102839141Y-83419954D01*
X102652734Y-83289432D01*
X102652732Y-83289431D01*
X102446497Y-83193261D01*
X102446488Y-83193258D01*
X102226697Y-83134366D01*
X102226693Y-83134365D01*
X102226692Y-83134365D01*
X102226691Y-83134364D01*
X102226686Y-83134364D01*
X102000002Y-83114532D01*
X101999998Y-83114532D01*
X101773313Y-83134364D01*
X101773302Y-83134366D01*
X101553511Y-83193258D01*
X101553502Y-83193261D01*
X101347267Y-83289431D01*
X101347265Y-83289432D01*
X101160858Y-83419954D01*
X100999954Y-83580858D01*
X100869432Y-83767265D01*
X100869431Y-83767267D01*
X100773261Y-83973502D01*
X100773258Y-83973511D01*
X100714366Y-84193302D01*
X100714364Y-84193313D01*
X100694532Y-84419998D01*
X97305468Y-84419998D01*
X97285635Y-84193308D01*
X97226739Y-83973504D01*
X97130568Y-83767266D01*
X97000047Y-83580861D01*
X97000045Y-83580858D01*
X96839141Y-83419954D01*
X96652734Y-83289432D01*
X96652732Y-83289431D01*
X96446497Y-83193261D01*
X96446488Y-83193258D01*
X96226697Y-83134366D01*
X96226693Y-83134365D01*
X96226692Y-83134365D01*
X96226691Y-83134364D01*
X96226686Y-83134364D01*
X96000002Y-83114532D01*
X95999998Y-83114532D01*
X95773313Y-83134364D01*
X95773302Y-83134366D01*
X95553511Y-83193258D01*
X95553502Y-83193261D01*
X95347267Y-83289431D01*
X95347265Y-83289432D01*
X95160858Y-83419954D01*
X94999954Y-83580858D01*
X94869432Y-83767265D01*
X94869431Y-83767267D01*
X94773261Y-83973502D01*
X94773258Y-83973511D01*
X94714366Y-84193302D01*
X94714364Y-84193313D01*
X94694532Y-84419998D01*
X91300500Y-84419998D01*
X91300500Y-74102135D01*
X96874500Y-74102135D01*
X96874500Y-75897870D01*
X96874501Y-75897876D01*
X96880908Y-75957483D01*
X96931202Y-76092328D01*
X96931206Y-76092335D01*
X97017452Y-76207544D01*
X97017455Y-76207547D01*
X97132664Y-76293793D01*
X97132671Y-76293797D01*
X97267517Y-76344091D01*
X97267516Y-76344091D01*
X97274444Y-76344835D01*
X97327127Y-76350500D01*
X99122872Y-76350499D01*
X99182483Y-76344091D01*
X99317331Y-76293796D01*
X99432546Y-76207546D01*
X99518796Y-76092331D01*
X99568002Y-75960401D01*
X99609872Y-75904468D01*
X99675337Y-75880050D01*
X99743610Y-75894901D01*
X99771865Y-75916053D01*
X99893917Y-76038105D01*
X100087421Y-76173600D01*
X100301507Y-76273429D01*
X100301516Y-76273433D01*
X100515000Y-76330634D01*
X100515000Y-75433012D01*
X100572007Y-75465925D01*
X100699174Y-75500000D01*
X100830826Y-75500000D01*
X100957993Y-75465925D01*
X101015000Y-75433012D01*
X101015000Y-76330633D01*
X101228483Y-76273433D01*
X101228492Y-76273429D01*
X101442578Y-76173600D01*
X101636082Y-76038105D01*
X101803105Y-75871082D01*
X101938600Y-75677578D01*
X102038429Y-75463492D01*
X102038432Y-75463486D01*
X102095636Y-75250000D01*
X101198012Y-75250000D01*
X101230925Y-75192993D01*
X101265000Y-75065826D01*
X101265000Y-74934174D01*
X101230925Y-74807007D01*
X101198012Y-74750000D01*
X102095636Y-74750000D01*
X102095635Y-74749999D01*
X102038432Y-74536513D01*
X102038429Y-74536507D01*
X101938600Y-74322422D01*
X101938599Y-74322420D01*
X101803113Y-74128926D01*
X101803108Y-74128920D01*
X101776323Y-74102135D01*
X129489500Y-74102135D01*
X129489500Y-75897870D01*
X129489501Y-75897876D01*
X129495908Y-75957483D01*
X129546202Y-76092328D01*
X129546206Y-76092335D01*
X129632452Y-76207544D01*
X129632455Y-76207547D01*
X129747664Y-76293793D01*
X129747671Y-76293797D01*
X129882517Y-76344091D01*
X129882516Y-76344091D01*
X129889444Y-76344835D01*
X129942127Y-76350500D01*
X131737872Y-76350499D01*
X131797483Y-76344091D01*
X131932331Y-76293796D01*
X132047546Y-76207546D01*
X132133796Y-76092331D01*
X132182810Y-75960916D01*
X132224681Y-75904984D01*
X132290145Y-75880566D01*
X132358418Y-75895417D01*
X132386673Y-75916569D01*
X132508599Y-76038495D01*
X132605384Y-76106265D01*
X132702165Y-76174032D01*
X132702167Y-76174033D01*
X132702170Y-76174035D01*
X132916337Y-76273903D01*
X133144592Y-76335063D01*
X133321034Y-76350500D01*
X133379999Y-76355659D01*
X133380000Y-76355659D01*
X133380001Y-76355659D01*
X133438966Y-76350500D01*
X133615408Y-76335063D01*
X133843663Y-76273903D01*
X134057830Y-76174035D01*
X134251401Y-76038495D01*
X134418495Y-75871401D01*
X134548425Y-75685842D01*
X134603002Y-75642217D01*
X134672500Y-75635023D01*
X134734855Y-75666546D01*
X134751575Y-75685842D01*
X134881500Y-75871395D01*
X134881505Y-75871401D01*
X135048599Y-76038495D01*
X135145384Y-76106265D01*
X135242165Y-76174032D01*
X135242167Y-76174033D01*
X135242170Y-76174035D01*
X135456337Y-76273903D01*
X135684592Y-76335063D01*
X135861034Y-76350500D01*
X135919999Y-76355659D01*
X135920000Y-76355659D01*
X135920001Y-76355659D01*
X135978966Y-76350500D01*
X136155408Y-76335063D01*
X136383663Y-76273903D01*
X136597830Y-76174035D01*
X136791401Y-76038495D01*
X136958495Y-75871401D01*
X137088425Y-75685842D01*
X137143002Y-75642217D01*
X137212500Y-75635023D01*
X137274855Y-75666546D01*
X137291575Y-75685842D01*
X137421500Y-75871395D01*
X137421505Y-75871401D01*
X137588599Y-76038495D01*
X137685384Y-76106265D01*
X137782165Y-76174032D01*
X137782167Y-76174033D01*
X137782170Y-76174035D01*
X137996337Y-76273903D01*
X138224592Y-76335063D01*
X138401034Y-76350500D01*
X138459999Y-76355659D01*
X138460000Y-76355659D01*
X138460001Y-76355659D01*
X138518966Y-76350500D01*
X138695408Y-76335063D01*
X138923663Y-76273903D01*
X139137830Y-76174035D01*
X139331401Y-76038495D01*
X139498495Y-75871401D01*
X139628425Y-75685842D01*
X139683002Y-75642217D01*
X139752500Y-75635023D01*
X139814855Y-75666546D01*
X139831575Y-75685842D01*
X139961500Y-75871395D01*
X139961505Y-75871401D01*
X140128599Y-76038495D01*
X140225384Y-76106265D01*
X140322165Y-76174032D01*
X140322167Y-76174033D01*
X140322170Y-76174035D01*
X140536337Y-76273903D01*
X140764592Y-76335063D01*
X140941034Y-76350500D01*
X140999999Y-76355659D01*
X141000000Y-76355659D01*
X141000001Y-76355659D01*
X141058966Y-76350500D01*
X141235408Y-76335063D01*
X141463663Y-76273903D01*
X141677830Y-76174035D01*
X141871401Y-76038495D01*
X142038495Y-75871401D01*
X142168425Y-75685842D01*
X142223002Y-75642217D01*
X142292500Y-75635023D01*
X142354855Y-75666546D01*
X142371575Y-75685842D01*
X142501500Y-75871395D01*
X142501505Y-75871401D01*
X142668599Y-76038495D01*
X142765384Y-76106265D01*
X142862165Y-76174032D01*
X142862167Y-76174033D01*
X142862170Y-76174035D01*
X143076337Y-76273903D01*
X143304592Y-76335063D01*
X143481034Y-76350500D01*
X143539999Y-76355659D01*
X143540000Y-76355659D01*
X143540001Y-76355659D01*
X143598966Y-76350500D01*
X143775408Y-76335063D01*
X144003663Y-76273903D01*
X144217830Y-76174035D01*
X144411401Y-76038495D01*
X144578495Y-75871401D01*
X144708425Y-75685842D01*
X144763002Y-75642217D01*
X144832500Y-75635023D01*
X144894855Y-75666546D01*
X144911575Y-75685842D01*
X145041500Y-75871395D01*
X145041505Y-75871401D01*
X145208599Y-76038495D01*
X145305384Y-76106265D01*
X145402165Y-76174032D01*
X145402167Y-76174033D01*
X145402170Y-76174035D01*
X145616337Y-76273903D01*
X145844592Y-76335063D01*
X146021034Y-76350500D01*
X146079999Y-76355659D01*
X146080000Y-76355659D01*
X146080001Y-76355659D01*
X146138966Y-76350500D01*
X146315408Y-76335063D01*
X146543663Y-76273903D01*
X146757830Y-76174035D01*
X146951401Y-76038495D01*
X147118495Y-75871401D01*
X147254035Y-75677830D01*
X147353903Y-75463663D01*
X147415063Y-75235408D01*
X147435659Y-75000000D01*
X147415063Y-74764592D01*
X147353903Y-74536337D01*
X147254035Y-74322171D01*
X147248425Y-74314158D01*
X147118494Y-74128597D01*
X146951402Y-73961506D01*
X146951395Y-73961501D01*
X146757834Y-73825967D01*
X146757830Y-73825965D01*
X146757828Y-73825964D01*
X146543663Y-73726097D01*
X146543659Y-73726096D01*
X146543655Y-73726094D01*
X146315413Y-73664938D01*
X146315403Y-73664936D01*
X146080001Y-73644341D01*
X146079999Y-73644341D01*
X145844596Y-73664936D01*
X145844586Y-73664938D01*
X145616344Y-73726094D01*
X145616335Y-73726098D01*
X145402171Y-73825964D01*
X145402169Y-73825965D01*
X145208597Y-73961505D01*
X145041505Y-74128597D01*
X144911575Y-74314158D01*
X144856998Y-74357783D01*
X144787500Y-74364977D01*
X144725145Y-74333454D01*
X144708425Y-74314158D01*
X144578494Y-74128597D01*
X144411402Y-73961506D01*
X144411395Y-73961501D01*
X144217834Y-73825967D01*
X144217830Y-73825965D01*
X144217828Y-73825964D01*
X144003663Y-73726097D01*
X144003659Y-73726096D01*
X144003655Y-73726094D01*
X143775413Y-73664938D01*
X143775403Y-73664936D01*
X143540001Y-73644341D01*
X143539999Y-73644341D01*
X143304596Y-73664936D01*
X143304586Y-73664938D01*
X143076344Y-73726094D01*
X143076335Y-73726098D01*
X142862171Y-73825964D01*
X142862169Y-73825965D01*
X142668597Y-73961505D01*
X142501505Y-74128597D01*
X142371575Y-74314158D01*
X142316998Y-74357783D01*
X142247500Y-74364977D01*
X142185145Y-74333454D01*
X142168425Y-74314158D01*
X142038494Y-74128597D01*
X141871402Y-73961506D01*
X141871395Y-73961501D01*
X141677834Y-73825967D01*
X141677830Y-73825965D01*
X141677828Y-73825964D01*
X141463663Y-73726097D01*
X141463659Y-73726096D01*
X141463655Y-73726094D01*
X141235413Y-73664938D01*
X141235403Y-73664936D01*
X141000001Y-73644341D01*
X140999999Y-73644341D01*
X140764596Y-73664936D01*
X140764586Y-73664938D01*
X140536344Y-73726094D01*
X140536335Y-73726098D01*
X140322171Y-73825964D01*
X140322169Y-73825965D01*
X140128597Y-73961505D01*
X139961505Y-74128597D01*
X139831575Y-74314158D01*
X139776998Y-74357783D01*
X139707500Y-74364977D01*
X139645145Y-74333454D01*
X139628425Y-74314158D01*
X139498494Y-74128597D01*
X139331402Y-73961506D01*
X139331395Y-73961501D01*
X139137834Y-73825967D01*
X139137830Y-73825965D01*
X139137828Y-73825964D01*
X138923663Y-73726097D01*
X138923659Y-73726096D01*
X138923655Y-73726094D01*
X138695413Y-73664938D01*
X138695403Y-73664936D01*
X138460001Y-73644341D01*
X138459999Y-73644341D01*
X138224596Y-73664936D01*
X138224586Y-73664938D01*
X137996344Y-73726094D01*
X137996335Y-73726098D01*
X137782171Y-73825964D01*
X137782169Y-73825965D01*
X137588597Y-73961505D01*
X137421505Y-74128597D01*
X137291575Y-74314158D01*
X137236998Y-74357783D01*
X137167500Y-74364977D01*
X137105145Y-74333454D01*
X137088425Y-74314158D01*
X136958494Y-74128597D01*
X136791402Y-73961506D01*
X136791395Y-73961501D01*
X136597834Y-73825967D01*
X136597830Y-73825965D01*
X136597828Y-73825964D01*
X136383663Y-73726097D01*
X136383659Y-73726096D01*
X136383655Y-73726094D01*
X136155413Y-73664938D01*
X136155403Y-73664936D01*
X135920001Y-73644341D01*
X135919999Y-73644341D01*
X135684596Y-73664936D01*
X135684586Y-73664938D01*
X135456344Y-73726094D01*
X135456335Y-73726098D01*
X135242171Y-73825964D01*
X135242169Y-73825965D01*
X135048597Y-73961505D01*
X134881505Y-74128597D01*
X134751575Y-74314158D01*
X134696998Y-74357783D01*
X134627500Y-74364977D01*
X134565145Y-74333454D01*
X134548425Y-74314158D01*
X134418494Y-74128597D01*
X134251402Y-73961506D01*
X134251395Y-73961501D01*
X134057834Y-73825967D01*
X134057830Y-73825965D01*
X134057828Y-73825964D01*
X133843663Y-73726097D01*
X133843659Y-73726096D01*
X133843655Y-73726094D01*
X133615413Y-73664938D01*
X133615403Y-73664936D01*
X133380001Y-73644341D01*
X133379999Y-73644341D01*
X133144596Y-73664936D01*
X133144586Y-73664938D01*
X132916344Y-73726094D01*
X132916335Y-73726098D01*
X132702171Y-73825964D01*
X132702169Y-73825965D01*
X132508600Y-73961503D01*
X132386673Y-74083430D01*
X132325350Y-74116914D01*
X132255658Y-74111930D01*
X132199725Y-74070058D01*
X132182810Y-74039081D01*
X132133797Y-73907671D01*
X132133793Y-73907664D01*
X132047547Y-73792455D01*
X132047544Y-73792452D01*
X131932335Y-73706206D01*
X131932328Y-73706202D01*
X131797482Y-73655908D01*
X131797483Y-73655908D01*
X131737883Y-73649501D01*
X131737881Y-73649500D01*
X131737873Y-73649500D01*
X131737864Y-73649500D01*
X129942129Y-73649500D01*
X129942123Y-73649501D01*
X129882516Y-73655908D01*
X129747671Y-73706202D01*
X129747664Y-73706206D01*
X129632455Y-73792452D01*
X129632452Y-73792455D01*
X129546206Y-73907664D01*
X129546202Y-73907671D01*
X129495908Y-74042517D01*
X129489501Y-74102116D01*
X129489500Y-74102135D01*
X101776323Y-74102135D01*
X101636082Y-73961894D01*
X101442578Y-73826399D01*
X101228492Y-73726570D01*
X101228486Y-73726567D01*
X101015000Y-73669364D01*
X101015000Y-74566988D01*
X100957993Y-74534075D01*
X100830826Y-74500000D01*
X100699174Y-74500000D01*
X100572007Y-74534075D01*
X100515000Y-74566988D01*
X100515000Y-73669364D01*
X100514999Y-73669364D01*
X100301513Y-73726567D01*
X100301507Y-73726570D01*
X100087422Y-73826399D01*
X100087420Y-73826400D01*
X99893926Y-73961886D01*
X99771865Y-74083947D01*
X99710542Y-74117431D01*
X99640850Y-74112447D01*
X99584917Y-74070575D01*
X99568002Y-74039598D01*
X99518797Y-73907671D01*
X99518793Y-73907664D01*
X99432547Y-73792455D01*
X99432544Y-73792452D01*
X99317335Y-73706206D01*
X99317328Y-73706202D01*
X99182482Y-73655908D01*
X99182483Y-73655908D01*
X99122883Y-73649501D01*
X99122881Y-73649500D01*
X99122873Y-73649500D01*
X99122864Y-73649500D01*
X97327129Y-73649500D01*
X97327123Y-73649501D01*
X97267516Y-73655908D01*
X97132671Y-73706202D01*
X97132664Y-73706206D01*
X97017455Y-73792452D01*
X97017452Y-73792455D01*
X96931206Y-73907664D01*
X96931202Y-73907671D01*
X96880908Y-74042517D01*
X96874501Y-74102116D01*
X96874500Y-74102135D01*
X91300500Y-74102135D01*
X91300500Y-60499999D01*
X91794922Y-60499999D01*
X91794922Y-60500000D01*
X91815219Y-60887287D01*
X91875886Y-61270323D01*
X91875887Y-61270330D01*
X91976262Y-61644936D01*
X92115244Y-62006994D01*
X92291310Y-62352543D01*
X92502531Y-62677793D01*
X92711095Y-62935350D01*
X92711096Y-62935350D01*
X94205748Y-61440698D01*
X94279588Y-61542330D01*
X94457670Y-61720412D01*
X94559300Y-61794251D01*
X93064648Y-63288903D01*
X93064649Y-63288904D01*
X93322206Y-63497468D01*
X93647456Y-63708689D01*
X93993005Y-63884755D01*
X94355063Y-64023737D01*
X94729669Y-64124112D01*
X94729676Y-64124113D01*
X95112712Y-64184780D01*
X95499999Y-64205078D01*
X95500001Y-64205078D01*
X95887287Y-64184780D01*
X96270323Y-64124113D01*
X96270330Y-64124112D01*
X96644936Y-64023737D01*
X97006994Y-63884755D01*
X97352543Y-63708689D01*
X97677783Y-63497476D01*
X97677785Y-63497475D01*
X97935349Y-63288902D01*
X96440698Y-61794251D01*
X96542330Y-61720412D01*
X96720412Y-61542330D01*
X96794251Y-61440698D01*
X98288902Y-62935349D01*
X98497475Y-62677785D01*
X98497476Y-62677783D01*
X98708689Y-62352543D01*
X98884755Y-62006994D01*
X99023737Y-61644936D01*
X99124112Y-61270330D01*
X99124113Y-61270323D01*
X99184780Y-60887287D01*
X99205078Y-60500000D01*
X99205078Y-60499999D01*
X166794922Y-60499999D01*
X166794922Y-60500000D01*
X166815219Y-60887287D01*
X166875886Y-61270323D01*
X166875887Y-61270330D01*
X166976262Y-61644936D01*
X167115244Y-62006994D01*
X167291310Y-62352543D01*
X167502531Y-62677793D01*
X167711095Y-62935350D01*
X167711096Y-62935350D01*
X169205748Y-61440698D01*
X169279588Y-61542330D01*
X169457670Y-61720412D01*
X169559300Y-61794251D01*
X168064648Y-63288903D01*
X168064649Y-63288904D01*
X168322206Y-63497468D01*
X168647456Y-63708689D01*
X168993005Y-63884755D01*
X169355063Y-64023737D01*
X169729669Y-64124112D01*
X169729676Y-64124113D01*
X170112712Y-64184780D01*
X170499999Y-64205078D01*
X170500001Y-64205078D01*
X170887287Y-64184780D01*
X171270323Y-64124113D01*
X171270330Y-64124112D01*
X171644936Y-64023737D01*
X172006994Y-63884755D01*
X172352543Y-63708689D01*
X172677783Y-63497476D01*
X172677785Y-63497475D01*
X172935349Y-63288902D01*
X171440698Y-61794251D01*
X171542330Y-61720412D01*
X171720412Y-61542330D01*
X171794251Y-61440698D01*
X173288902Y-62935349D01*
X173497475Y-62677785D01*
X173497476Y-62677783D01*
X173708689Y-62352543D01*
X173884755Y-62006994D01*
X174023737Y-61644936D01*
X174124112Y-61270330D01*
X174124113Y-61270323D01*
X174184780Y-60887287D01*
X174205078Y-60500000D01*
X174205078Y-60499999D01*
X174184780Y-60112712D01*
X174124113Y-59729676D01*
X174124112Y-59729669D01*
X174023737Y-59355063D01*
X173884755Y-58993005D01*
X173708689Y-58647456D01*
X173497468Y-58322206D01*
X173288904Y-58064649D01*
X173288903Y-58064648D01*
X171794251Y-59559300D01*
X171720412Y-59457670D01*
X171542330Y-59279588D01*
X171440698Y-59205748D01*
X172935350Y-57711096D01*
X172935350Y-57711095D01*
X172677793Y-57502531D01*
X172352543Y-57291310D01*
X172006994Y-57115244D01*
X171644936Y-56976262D01*
X171270330Y-56875887D01*
X171270323Y-56875886D01*
X170887287Y-56815219D01*
X170500001Y-56794922D01*
X170499999Y-56794922D01*
X170112712Y-56815219D01*
X169729676Y-56875886D01*
X169729669Y-56875887D01*
X169355063Y-56976262D01*
X168993005Y-57115244D01*
X168647456Y-57291310D01*
X168322206Y-57502531D01*
X168064648Y-57711095D01*
X168064648Y-57711096D01*
X169559301Y-59205748D01*
X169457670Y-59279588D01*
X169279588Y-59457670D01*
X169205748Y-59559300D01*
X167711096Y-58064648D01*
X167711095Y-58064648D01*
X167502531Y-58322206D01*
X167291310Y-58647456D01*
X167115244Y-58993005D01*
X166976262Y-59355063D01*
X166875887Y-59729669D01*
X166875886Y-59729676D01*
X166815219Y-60112712D01*
X166794922Y-60499999D01*
X99205078Y-60499999D01*
X99184780Y-60112712D01*
X99124113Y-59729676D01*
X99124112Y-59729669D01*
X99023737Y-59355063D01*
X98884755Y-58993005D01*
X98708689Y-58647456D01*
X98497468Y-58322206D01*
X98288904Y-58064649D01*
X98288903Y-58064648D01*
X96794251Y-59559300D01*
X96720412Y-59457670D01*
X96542330Y-59279588D01*
X96440698Y-59205748D01*
X97935350Y-57711096D01*
X97935350Y-57711095D01*
X97677793Y-57502531D01*
X97352543Y-57291310D01*
X97006994Y-57115244D01*
X96644936Y-56976262D01*
X96270330Y-56875887D01*
X96270323Y-56875886D01*
X95887287Y-56815219D01*
X95500001Y-56794922D01*
X95499999Y-56794922D01*
X95112712Y-56815219D01*
X94729676Y-56875886D01*
X94729669Y-56875887D01*
X94355063Y-56976262D01*
X93993005Y-57115244D01*
X93647456Y-57291310D01*
X93322206Y-57502531D01*
X93064648Y-57711095D01*
X93064648Y-57711096D01*
X94559301Y-59205748D01*
X94457670Y-59279588D01*
X94279588Y-59457670D01*
X94205748Y-59559300D01*
X92711096Y-58064648D01*
X92711095Y-58064648D01*
X92502531Y-58322206D01*
X92291310Y-58647456D01*
X92115244Y-58993005D01*
X91976262Y-59355063D01*
X91875887Y-59729669D01*
X91875886Y-59729676D01*
X91815219Y-60112712D01*
X91794922Y-60499999D01*
X91300500Y-60499999D01*
X91300500Y-56424500D01*
X91320185Y-56357461D01*
X91372989Y-56311706D01*
X91424500Y-56300500D01*
X174575500Y-56300500D01*
X174642539Y-56320185D01*
G37*
%TD.AperFunction*%
%TD*%
M02*
