M48
; DRILL file {KiCad 8.0.6} date 2024-11-04T15:21:45-0800
; FORMAT={-:-/ absolute / inch / decimal}
; #@! TF.CreationDate,2024-11-04T15:21:45-08:00
; #@! TF.GenerationSoftware,Kicad,Pcbnew,8.0.6
; #@! TF.FileFunction,MixedPlating,1,2
FMAT,2
INCH
; #@! TA.AperFunction,Plated,PTH,ComponentDrill
T1C0.0315
; #@! TA.AperFunction,Plated,PTH,ComponentDrill
T2C0.0354
; #@! TA.AperFunction,Plated,PTH,ComponentDrill
T3C0.0394
; #@! TA.AperFunction,Plated,PTH,ComponentDrill
T4C0.1260
%
G90
G05
T1
X3.7795Y-3.3236
X3.7795Y-3.7236
X3.7795Y-3.937
X3.7795Y-4.0551
X4.0157Y-3.3236
X4.0157Y-3.7236
X4.2717Y-3.3236
X4.2717Y-3.7236
X4.2717Y-3.937
X4.2717Y-4.0551
X4.7638Y-3.3268
X4.7638Y-3.7268
X4.7638Y-3.937
X4.7638Y-4.0551
X5.2559Y-3.3268
X5.2559Y-3.7268
X5.2559Y-3.937
X5.2559Y-4.0551
X5.748Y-3.3236
X5.748Y-3.7236
X5.748Y-3.937
X5.748Y-4.0551
X6.2205Y-3.3236
X6.2205Y-3.7236
X6.2205Y-3.937
X6.2205Y-4.0551
X6.7126Y-3.3268
X6.7126Y-3.7268
X6.7126Y-3.937
X6.7126Y-4.0551
T2
X4.0157Y-3.937
X4.0157Y-4.037
X4.5276Y-3.937
X4.5276Y-4.037
X5.0Y-3.937
X5.0Y-4.037
X5.5118Y-3.937
X5.5118Y-4.037
X5.9843Y-3.937
X5.9843Y-4.037
X6.4567Y-3.937
X6.4567Y-4.037
T3
X3.8671Y-2.9528
X3.9671Y-2.9528
X5.1512Y-2.9528
X5.2512Y-2.9528
X5.3512Y-2.9528
X5.4512Y-2.9528
X5.5512Y-2.9528
X5.6512Y-2.9528
X5.7512Y-2.9528
T4
X3.7598Y-2.3819
X3.7598Y-4.3504
X6.7126Y-2.3819
X6.7126Y-4.3504
M30
