%TF.GenerationSoftware,KiCad,Pcbnew,8.0.6*%
%TF.CreationDate,2024-11-04T15:23:11-08:00*%
%TF.ProjectId,201_final_project_sensor_array,3230315f-6669-46e6-916c-5f70726f6a65,rev?*%
%TF.SameCoordinates,Original*%
%TF.FileFunction,Legend,Top*%
%TF.FilePolarity,Positive*%
%FSLAX46Y46*%
G04 Gerber Fmt 4.6, Leading zero omitted, Abs format (unit mm)*
G04 Created by KiCad (PCBNEW 8.0.6) date 2024-11-04 15:23:11*
%MOMM*%
%LPD*%
G01*
G04 APERTURE LIST*
%ADD10C,0.150000*%
%ADD11C,0.120000*%
G04 APERTURE END LIST*
D10*
X143584104Y-72710839D02*
X143584104Y-72234649D01*
X143869819Y-72806077D02*
X142869819Y-72472744D01*
X142869819Y-72472744D02*
X143869819Y-72139411D01*
X143869819Y-71282268D02*
X143869819Y-71853696D01*
X143869819Y-71567982D02*
X142869819Y-71567982D01*
X142869819Y-71567982D02*
X143012676Y-71663220D01*
X143012676Y-71663220D02*
X143107914Y-71758458D01*
X143107914Y-71758458D02*
X143155533Y-71853696D01*
X142869819Y-70948934D02*
X142869819Y-70329887D01*
X142869819Y-70329887D02*
X143250771Y-70663220D01*
X143250771Y-70663220D02*
X143250771Y-70520363D01*
X143250771Y-70520363D02*
X143298390Y-70425125D01*
X143298390Y-70425125D02*
X143346009Y-70377506D01*
X143346009Y-70377506D02*
X143441247Y-70329887D01*
X143441247Y-70329887D02*
X143679342Y-70329887D01*
X143679342Y-70329887D02*
X143774580Y-70377506D01*
X143774580Y-70377506D02*
X143822200Y-70425125D01*
X143822200Y-70425125D02*
X143869819Y-70520363D01*
X143869819Y-70520363D02*
X143869819Y-70806077D01*
X143869819Y-70806077D02*
X143822200Y-70901315D01*
X143822200Y-70901315D02*
X143774580Y-70948934D01*
X167615599Y-66039987D02*
X167282266Y-65563796D01*
X167044171Y-66039987D02*
X167044171Y-65039987D01*
X167044171Y-65039987D02*
X167425123Y-65039987D01*
X167425123Y-65039987D02*
X167520361Y-65087606D01*
X167520361Y-65087606D02*
X167567980Y-65135225D01*
X167567980Y-65135225D02*
X167615599Y-65230463D01*
X167615599Y-65230463D02*
X167615599Y-65373320D01*
X167615599Y-65373320D02*
X167567980Y-65468558D01*
X167567980Y-65468558D02*
X167520361Y-65516177D01*
X167520361Y-65516177D02*
X167425123Y-65563796D01*
X167425123Y-65563796D02*
X167044171Y-65563796D01*
X167901314Y-65039987D02*
X168472742Y-65039987D01*
X168187028Y-66039987D02*
X168187028Y-65039987D01*
X169901314Y-65516177D02*
X169567981Y-65516177D01*
X169567981Y-66039987D02*
X169567981Y-65039987D01*
X169567981Y-65039987D02*
X170044171Y-65039987D01*
X170567981Y-66039987D02*
X170472743Y-65992368D01*
X170472743Y-65992368D02*
X170425124Y-65897129D01*
X170425124Y-65897129D02*
X170425124Y-65039987D01*
X171091791Y-66039987D02*
X170996553Y-65992368D01*
X170996553Y-65992368D02*
X170948934Y-65944748D01*
X170948934Y-65944748D02*
X170901315Y-65849510D01*
X170901315Y-65849510D02*
X170901315Y-65563796D01*
X170901315Y-65563796D02*
X170948934Y-65468558D01*
X170948934Y-65468558D02*
X170996553Y-65420939D01*
X170996553Y-65420939D02*
X171091791Y-65373320D01*
X171091791Y-65373320D02*
X171234648Y-65373320D01*
X171234648Y-65373320D02*
X171329886Y-65420939D01*
X171329886Y-65420939D02*
X171377505Y-65468558D01*
X171377505Y-65468558D02*
X171425124Y-65563796D01*
X171425124Y-65563796D02*
X171425124Y-65849510D01*
X171425124Y-65849510D02*
X171377505Y-65944748D01*
X171377505Y-65944748D02*
X171329886Y-65992368D01*
X171329886Y-65992368D02*
X171234648Y-66039987D01*
X171234648Y-66039987D02*
X171091791Y-66039987D01*
X171853696Y-66039987D02*
X171853696Y-65373320D01*
X171853696Y-65563796D02*
X171901315Y-65468558D01*
X171901315Y-65468558D02*
X171948934Y-65420939D01*
X171948934Y-65420939D02*
X172044172Y-65373320D01*
X172044172Y-65373320D02*
X172139410Y-65373320D01*
X172853696Y-65992368D02*
X172758458Y-66039987D01*
X172758458Y-66039987D02*
X172567982Y-66039987D01*
X172567982Y-66039987D02*
X172472744Y-65992368D01*
X172472744Y-65992368D02*
X172425125Y-65897129D01*
X172425125Y-65897129D02*
X172425125Y-65516177D01*
X172425125Y-65516177D02*
X172472744Y-65420939D01*
X172472744Y-65420939D02*
X172567982Y-65373320D01*
X172567982Y-65373320D02*
X172758458Y-65373320D01*
X172758458Y-65373320D02*
X172853696Y-65420939D01*
X172853696Y-65420939D02*
X172901315Y-65516177D01*
X172901315Y-65516177D02*
X172901315Y-65611415D01*
X172901315Y-65611415D02*
X172425125Y-65706653D01*
X173282268Y-65992368D02*
X173377506Y-66039987D01*
X173377506Y-66039987D02*
X173567982Y-66039987D01*
X173567982Y-66039987D02*
X173663220Y-65992368D01*
X173663220Y-65992368D02*
X173710839Y-65897129D01*
X173710839Y-65897129D02*
X173710839Y-65849510D01*
X173710839Y-65849510D02*
X173663220Y-65754272D01*
X173663220Y-65754272D02*
X173567982Y-65706653D01*
X173567982Y-65706653D02*
X173425125Y-65706653D01*
X173425125Y-65706653D02*
X173329887Y-65659034D01*
X173329887Y-65659034D02*
X173282268Y-65563796D01*
X173282268Y-65563796D02*
X173282268Y-65516177D01*
X173282268Y-65516177D02*
X173329887Y-65420939D01*
X173329887Y-65420939D02*
X173425125Y-65373320D01*
X173425125Y-65373320D02*
X173567982Y-65373320D01*
X173567982Y-65373320D02*
X173663220Y-65420939D01*
X164472744Y-66649931D02*
X165044172Y-66649931D01*
X164758458Y-67649931D02*
X164758458Y-66649931D01*
X165520363Y-67649931D02*
X165425125Y-67602312D01*
X165425125Y-67602312D02*
X165377506Y-67554692D01*
X165377506Y-67554692D02*
X165329887Y-67459454D01*
X165329887Y-67459454D02*
X165329887Y-67173740D01*
X165329887Y-67173740D02*
X165377506Y-67078502D01*
X165377506Y-67078502D02*
X165425125Y-67030883D01*
X165425125Y-67030883D02*
X165520363Y-66983264D01*
X165520363Y-66983264D02*
X165663220Y-66983264D01*
X165663220Y-66983264D02*
X165758458Y-67030883D01*
X165758458Y-67030883D02*
X165806077Y-67078502D01*
X165806077Y-67078502D02*
X165853696Y-67173740D01*
X165853696Y-67173740D02*
X165853696Y-67459454D01*
X165853696Y-67459454D02*
X165806077Y-67554692D01*
X165806077Y-67554692D02*
X165758458Y-67602312D01*
X165758458Y-67602312D02*
X165663220Y-67649931D01*
X165663220Y-67649931D02*
X165520363Y-67649931D01*
X166282268Y-67649931D02*
X166282268Y-66983264D01*
X166282268Y-67078502D02*
X166329887Y-67030883D01*
X166329887Y-67030883D02*
X166425125Y-66983264D01*
X166425125Y-66983264D02*
X166567982Y-66983264D01*
X166567982Y-66983264D02*
X166663220Y-67030883D01*
X166663220Y-67030883D02*
X166710839Y-67126121D01*
X166710839Y-67126121D02*
X166710839Y-67649931D01*
X166710839Y-67126121D02*
X166758458Y-67030883D01*
X166758458Y-67030883D02*
X166853696Y-66983264D01*
X166853696Y-66983264D02*
X166996553Y-66983264D01*
X166996553Y-66983264D02*
X167091792Y-67030883D01*
X167091792Y-67030883D02*
X167139411Y-67126121D01*
X167139411Y-67126121D02*
X167139411Y-67649931D01*
X167615601Y-67649931D02*
X167615601Y-66983264D01*
X167615601Y-67078502D02*
X167663220Y-67030883D01*
X167663220Y-67030883D02*
X167758458Y-66983264D01*
X167758458Y-66983264D02*
X167901315Y-66983264D01*
X167901315Y-66983264D02*
X167996553Y-67030883D01*
X167996553Y-67030883D02*
X168044172Y-67126121D01*
X168044172Y-67126121D02*
X168044172Y-67649931D01*
X168044172Y-67126121D02*
X168091791Y-67030883D01*
X168091791Y-67030883D02*
X168187029Y-66983264D01*
X168187029Y-66983264D02*
X168329886Y-66983264D01*
X168329886Y-66983264D02*
X168425125Y-67030883D01*
X168425125Y-67030883D02*
X168472744Y-67126121D01*
X168472744Y-67126121D02*
X168472744Y-67649931D01*
X168853696Y-66983264D02*
X169091791Y-67649931D01*
X169329886Y-66983264D02*
X169091791Y-67649931D01*
X169091791Y-67649931D02*
X168996553Y-67888026D01*
X168996553Y-67888026D02*
X168948934Y-67935645D01*
X168948934Y-67935645D02*
X168853696Y-67983264D01*
X170377506Y-66649931D02*
X171044172Y-66649931D01*
X171044172Y-66649931D02*
X170377506Y-67649931D01*
X170377506Y-67649931D02*
X171044172Y-67649931D01*
X171425125Y-67649931D02*
X171425125Y-66649931D01*
X171853696Y-67649931D02*
X171853696Y-67126121D01*
X171853696Y-67126121D02*
X171806077Y-67030883D01*
X171806077Y-67030883D02*
X171710839Y-66983264D01*
X171710839Y-66983264D02*
X171567982Y-66983264D01*
X171567982Y-66983264D02*
X171472744Y-67030883D01*
X171472744Y-67030883D02*
X171425125Y-67078502D01*
X172758458Y-67649931D02*
X172758458Y-67126121D01*
X172758458Y-67126121D02*
X172710839Y-67030883D01*
X172710839Y-67030883D02*
X172615601Y-66983264D01*
X172615601Y-66983264D02*
X172425125Y-66983264D01*
X172425125Y-66983264D02*
X172329887Y-67030883D01*
X172758458Y-67602312D02*
X172663220Y-67649931D01*
X172663220Y-67649931D02*
X172425125Y-67649931D01*
X172425125Y-67649931D02*
X172329887Y-67602312D01*
X172329887Y-67602312D02*
X172282268Y-67507073D01*
X172282268Y-67507073D02*
X172282268Y-67411835D01*
X172282268Y-67411835D02*
X172329887Y-67316597D01*
X172329887Y-67316597D02*
X172425125Y-67268978D01*
X172425125Y-67268978D02*
X172663220Y-67268978D01*
X172663220Y-67268978D02*
X172758458Y-67221359D01*
X173377506Y-67649931D02*
X173282268Y-67602312D01*
X173282268Y-67602312D02*
X173234649Y-67554692D01*
X173234649Y-67554692D02*
X173187030Y-67459454D01*
X173187030Y-67459454D02*
X173187030Y-67173740D01*
X173187030Y-67173740D02*
X173234649Y-67078502D01*
X173234649Y-67078502D02*
X173282268Y-67030883D01*
X173282268Y-67030883D02*
X173377506Y-66983264D01*
X173377506Y-66983264D02*
X173520363Y-66983264D01*
X173520363Y-66983264D02*
X173615601Y-67030883D01*
X173615601Y-67030883D02*
X173663220Y-67078502D01*
X173663220Y-67078502D02*
X173710839Y-67173740D01*
X173710839Y-67173740D02*
X173710839Y-67459454D01*
X173710839Y-67459454D02*
X173663220Y-67554692D01*
X173663220Y-67554692D02*
X173615601Y-67602312D01*
X173615601Y-67602312D02*
X173520363Y-67649931D01*
X173520363Y-67649931D02*
X173377506Y-67649931D01*
X163996553Y-69212256D02*
X164139410Y-69259875D01*
X164139410Y-69259875D02*
X164377505Y-69259875D01*
X164377505Y-69259875D02*
X164472743Y-69212256D01*
X164472743Y-69212256D02*
X164520362Y-69164636D01*
X164520362Y-69164636D02*
X164567981Y-69069398D01*
X164567981Y-69069398D02*
X164567981Y-68974160D01*
X164567981Y-68974160D02*
X164520362Y-68878922D01*
X164520362Y-68878922D02*
X164472743Y-68831303D01*
X164472743Y-68831303D02*
X164377505Y-68783684D01*
X164377505Y-68783684D02*
X164187029Y-68736065D01*
X164187029Y-68736065D02*
X164091791Y-68688446D01*
X164091791Y-68688446D02*
X164044172Y-68640827D01*
X164044172Y-68640827D02*
X163996553Y-68545589D01*
X163996553Y-68545589D02*
X163996553Y-68450351D01*
X163996553Y-68450351D02*
X164044172Y-68355113D01*
X164044172Y-68355113D02*
X164091791Y-68307494D01*
X164091791Y-68307494D02*
X164187029Y-68259875D01*
X164187029Y-68259875D02*
X164425124Y-68259875D01*
X164425124Y-68259875D02*
X164567981Y-68307494D01*
X165377505Y-69212256D02*
X165282267Y-69259875D01*
X165282267Y-69259875D02*
X165091791Y-69259875D01*
X165091791Y-69259875D02*
X164996553Y-69212256D01*
X164996553Y-69212256D02*
X164948934Y-69117017D01*
X164948934Y-69117017D02*
X164948934Y-68736065D01*
X164948934Y-68736065D02*
X164996553Y-68640827D01*
X164996553Y-68640827D02*
X165091791Y-68593208D01*
X165091791Y-68593208D02*
X165282267Y-68593208D01*
X165282267Y-68593208D02*
X165377505Y-68640827D01*
X165377505Y-68640827D02*
X165425124Y-68736065D01*
X165425124Y-68736065D02*
X165425124Y-68831303D01*
X165425124Y-68831303D02*
X164948934Y-68926541D01*
X165710839Y-68593208D02*
X166091791Y-68593208D01*
X165853696Y-68259875D02*
X165853696Y-69117017D01*
X165853696Y-69117017D02*
X165901315Y-69212256D01*
X165901315Y-69212256D02*
X165996553Y-69259875D01*
X165996553Y-69259875D02*
X166091791Y-69259875D01*
X166425125Y-69259875D02*
X166425125Y-68259875D01*
X166853696Y-69259875D02*
X166853696Y-68736065D01*
X166853696Y-68736065D02*
X166806077Y-68640827D01*
X166806077Y-68640827D02*
X166710839Y-68593208D01*
X166710839Y-68593208D02*
X166567982Y-68593208D01*
X166567982Y-68593208D02*
X166472744Y-68640827D01*
X166472744Y-68640827D02*
X166425125Y-68688446D01*
X168091792Y-69259875D02*
X168091792Y-68259875D01*
X168091792Y-68259875D02*
X168425125Y-68974160D01*
X168425125Y-68974160D02*
X168758458Y-68259875D01*
X168758458Y-68259875D02*
X168758458Y-69259875D01*
X169663220Y-68593208D02*
X169663220Y-69259875D01*
X169234649Y-68593208D02*
X169234649Y-69117017D01*
X169234649Y-69117017D02*
X169282268Y-69212256D01*
X169282268Y-69212256D02*
X169377506Y-69259875D01*
X169377506Y-69259875D02*
X169520363Y-69259875D01*
X169520363Y-69259875D02*
X169615601Y-69212256D01*
X169615601Y-69212256D02*
X169663220Y-69164636D01*
X170567982Y-69212256D02*
X170472744Y-69259875D01*
X170472744Y-69259875D02*
X170282268Y-69259875D01*
X170282268Y-69259875D02*
X170187030Y-69212256D01*
X170187030Y-69212256D02*
X170139411Y-69164636D01*
X170139411Y-69164636D02*
X170091792Y-69069398D01*
X170091792Y-69069398D02*
X170091792Y-68783684D01*
X170091792Y-68783684D02*
X170139411Y-68688446D01*
X170139411Y-68688446D02*
X170187030Y-68640827D01*
X170187030Y-68640827D02*
X170282268Y-68593208D01*
X170282268Y-68593208D02*
X170472744Y-68593208D01*
X170472744Y-68593208D02*
X170567982Y-68640827D01*
X171425125Y-69212256D02*
X171329887Y-69259875D01*
X171329887Y-69259875D02*
X171139411Y-69259875D01*
X171139411Y-69259875D02*
X171044173Y-69212256D01*
X171044173Y-69212256D02*
X170996554Y-69164636D01*
X170996554Y-69164636D02*
X170948935Y-69069398D01*
X170948935Y-69069398D02*
X170948935Y-68783684D01*
X170948935Y-68783684D02*
X170996554Y-68688446D01*
X170996554Y-68688446D02*
X171044173Y-68640827D01*
X171044173Y-68640827D02*
X171139411Y-68593208D01*
X171139411Y-68593208D02*
X171329887Y-68593208D01*
X171329887Y-68593208D02*
X171425125Y-68640827D01*
X171853697Y-69259875D02*
X171853697Y-68593208D01*
X171853697Y-68259875D02*
X171806078Y-68307494D01*
X171806078Y-68307494D02*
X171853697Y-68355113D01*
X171853697Y-68355113D02*
X171901316Y-68307494D01*
X171901316Y-68307494D02*
X171853697Y-68259875D01*
X171853697Y-68259875D02*
X171853697Y-68355113D01*
X172329887Y-68593208D02*
X172329887Y-69259875D01*
X172329887Y-68688446D02*
X172377506Y-68640827D01*
X172377506Y-68640827D02*
X172472744Y-68593208D01*
X172472744Y-68593208D02*
X172615601Y-68593208D01*
X172615601Y-68593208D02*
X172710839Y-68640827D01*
X172710839Y-68640827D02*
X172758458Y-68736065D01*
X172758458Y-68736065D02*
X172758458Y-69259875D01*
X173377506Y-69259875D02*
X173282268Y-69212256D01*
X173282268Y-69212256D02*
X173234649Y-69164636D01*
X173234649Y-69164636D02*
X173187030Y-69069398D01*
X173187030Y-69069398D02*
X173187030Y-68783684D01*
X173187030Y-68783684D02*
X173234649Y-68688446D01*
X173234649Y-68688446D02*
X173282268Y-68640827D01*
X173282268Y-68640827D02*
X173377506Y-68593208D01*
X173377506Y-68593208D02*
X173520363Y-68593208D01*
X173520363Y-68593208D02*
X173615601Y-68640827D01*
X173615601Y-68640827D02*
X173663220Y-68688446D01*
X173663220Y-68688446D02*
X173710839Y-68783684D01*
X173710839Y-68783684D02*
X173710839Y-69069398D01*
X173710839Y-69069398D02*
X173663220Y-69164636D01*
X173663220Y-69164636D02*
X173615601Y-69212256D01*
X173615601Y-69212256D02*
X173520363Y-69259875D01*
X173520363Y-69259875D02*
X173377506Y-69259875D01*
X162472743Y-70869819D02*
X162472743Y-69869819D01*
X162472743Y-70346009D02*
X163044171Y-70346009D01*
X163044171Y-70869819D02*
X163044171Y-69869819D01*
X163948933Y-70869819D02*
X163948933Y-70346009D01*
X163948933Y-70346009D02*
X163901314Y-70250771D01*
X163901314Y-70250771D02*
X163806076Y-70203152D01*
X163806076Y-70203152D02*
X163615600Y-70203152D01*
X163615600Y-70203152D02*
X163520362Y-70250771D01*
X163948933Y-70822200D02*
X163853695Y-70869819D01*
X163853695Y-70869819D02*
X163615600Y-70869819D01*
X163615600Y-70869819D02*
X163520362Y-70822200D01*
X163520362Y-70822200D02*
X163472743Y-70726961D01*
X163472743Y-70726961D02*
X163472743Y-70631723D01*
X163472743Y-70631723D02*
X163520362Y-70536485D01*
X163520362Y-70536485D02*
X163615600Y-70488866D01*
X163615600Y-70488866D02*
X163853695Y-70488866D01*
X163853695Y-70488866D02*
X163948933Y-70441247D01*
X164425124Y-70869819D02*
X164425124Y-70203152D01*
X164425124Y-70393628D02*
X164472743Y-70298390D01*
X164472743Y-70298390D02*
X164520362Y-70250771D01*
X164520362Y-70250771D02*
X164615600Y-70203152D01*
X164615600Y-70203152D02*
X164710838Y-70203152D01*
X164996553Y-70822200D02*
X165091791Y-70869819D01*
X165091791Y-70869819D02*
X165282267Y-70869819D01*
X165282267Y-70869819D02*
X165377505Y-70822200D01*
X165377505Y-70822200D02*
X165425124Y-70726961D01*
X165425124Y-70726961D02*
X165425124Y-70679342D01*
X165425124Y-70679342D02*
X165377505Y-70584104D01*
X165377505Y-70584104D02*
X165282267Y-70536485D01*
X165282267Y-70536485D02*
X165139410Y-70536485D01*
X165139410Y-70536485D02*
X165044172Y-70488866D01*
X165044172Y-70488866D02*
X164996553Y-70393628D01*
X164996553Y-70393628D02*
X164996553Y-70346009D01*
X164996553Y-70346009D02*
X165044172Y-70250771D01*
X165044172Y-70250771D02*
X165139410Y-70203152D01*
X165139410Y-70203152D02*
X165282267Y-70203152D01*
X165282267Y-70203152D02*
X165377505Y-70250771D01*
X165853696Y-70869819D02*
X165853696Y-69869819D01*
X166282267Y-70869819D02*
X166282267Y-70346009D01*
X166282267Y-70346009D02*
X166234648Y-70250771D01*
X166234648Y-70250771D02*
X166139410Y-70203152D01*
X166139410Y-70203152D02*
X165996553Y-70203152D01*
X165996553Y-70203152D02*
X165901315Y-70250771D01*
X165901315Y-70250771D02*
X165853696Y-70298390D01*
X166758458Y-70869819D02*
X166758458Y-70203152D01*
X166758458Y-69869819D02*
X166710839Y-69917438D01*
X166710839Y-69917438D02*
X166758458Y-69965057D01*
X166758458Y-69965057D02*
X166806077Y-69917438D01*
X166806077Y-69917438D02*
X166758458Y-69869819D01*
X166758458Y-69869819D02*
X166758458Y-69965057D01*
X167377505Y-70869819D02*
X167282267Y-70822200D01*
X167282267Y-70822200D02*
X167234648Y-70726961D01*
X167234648Y-70726961D02*
X167234648Y-69869819D01*
X168472744Y-70822200D02*
X168615601Y-70869819D01*
X168615601Y-70869819D02*
X168853696Y-70869819D01*
X168853696Y-70869819D02*
X168948934Y-70822200D01*
X168948934Y-70822200D02*
X168996553Y-70774580D01*
X168996553Y-70774580D02*
X169044172Y-70679342D01*
X169044172Y-70679342D02*
X169044172Y-70584104D01*
X169044172Y-70584104D02*
X168996553Y-70488866D01*
X168996553Y-70488866D02*
X168948934Y-70441247D01*
X168948934Y-70441247D02*
X168853696Y-70393628D01*
X168853696Y-70393628D02*
X168663220Y-70346009D01*
X168663220Y-70346009D02*
X168567982Y-70298390D01*
X168567982Y-70298390D02*
X168520363Y-70250771D01*
X168520363Y-70250771D02*
X168472744Y-70155533D01*
X168472744Y-70155533D02*
X168472744Y-70060295D01*
X168472744Y-70060295D02*
X168520363Y-69965057D01*
X168520363Y-69965057D02*
X168567982Y-69917438D01*
X168567982Y-69917438D02*
X168663220Y-69869819D01*
X168663220Y-69869819D02*
X168901315Y-69869819D01*
X168901315Y-69869819D02*
X169044172Y-69917438D01*
X169472744Y-70869819D02*
X169472744Y-69869819D01*
X169901315Y-70869819D02*
X169901315Y-70346009D01*
X169901315Y-70346009D02*
X169853696Y-70250771D01*
X169853696Y-70250771D02*
X169758458Y-70203152D01*
X169758458Y-70203152D02*
X169615601Y-70203152D01*
X169615601Y-70203152D02*
X169520363Y-70250771D01*
X169520363Y-70250771D02*
X169472744Y-70298390D01*
X170806077Y-70869819D02*
X170806077Y-70346009D01*
X170806077Y-70346009D02*
X170758458Y-70250771D01*
X170758458Y-70250771D02*
X170663220Y-70203152D01*
X170663220Y-70203152D02*
X170472744Y-70203152D01*
X170472744Y-70203152D02*
X170377506Y-70250771D01*
X170806077Y-70822200D02*
X170710839Y-70869819D01*
X170710839Y-70869819D02*
X170472744Y-70869819D01*
X170472744Y-70869819D02*
X170377506Y-70822200D01*
X170377506Y-70822200D02*
X170329887Y-70726961D01*
X170329887Y-70726961D02*
X170329887Y-70631723D01*
X170329887Y-70631723D02*
X170377506Y-70536485D01*
X170377506Y-70536485D02*
X170472744Y-70488866D01*
X170472744Y-70488866D02*
X170710839Y-70488866D01*
X170710839Y-70488866D02*
X170806077Y-70441247D01*
X171282268Y-70869819D02*
X171282268Y-70203152D01*
X171282268Y-70393628D02*
X171329887Y-70298390D01*
X171329887Y-70298390D02*
X171377506Y-70250771D01*
X171377506Y-70250771D02*
X171472744Y-70203152D01*
X171472744Y-70203152D02*
X171567982Y-70203152D01*
X171901316Y-70869819D02*
X171901316Y-70203152D01*
X171901316Y-70298390D02*
X171948935Y-70250771D01*
X171948935Y-70250771D02*
X172044173Y-70203152D01*
X172044173Y-70203152D02*
X172187030Y-70203152D01*
X172187030Y-70203152D02*
X172282268Y-70250771D01*
X172282268Y-70250771D02*
X172329887Y-70346009D01*
X172329887Y-70346009D02*
X172329887Y-70869819D01*
X172329887Y-70346009D02*
X172377506Y-70250771D01*
X172377506Y-70250771D02*
X172472744Y-70203152D01*
X172472744Y-70203152D02*
X172615601Y-70203152D01*
X172615601Y-70203152D02*
X172710840Y-70250771D01*
X172710840Y-70250771D02*
X172758459Y-70346009D01*
X172758459Y-70346009D02*
X172758459Y-70869819D01*
X173663220Y-70869819D02*
X173663220Y-70346009D01*
X173663220Y-70346009D02*
X173615601Y-70250771D01*
X173615601Y-70250771D02*
X173520363Y-70203152D01*
X173520363Y-70203152D02*
X173329887Y-70203152D01*
X173329887Y-70203152D02*
X173234649Y-70250771D01*
X173663220Y-70822200D02*
X173567982Y-70869819D01*
X173567982Y-70869819D02*
X173329887Y-70869819D01*
X173329887Y-70869819D02*
X173234649Y-70822200D01*
X173234649Y-70822200D02*
X173187030Y-70726961D01*
X173187030Y-70726961D02*
X173187030Y-70631723D01*
X173187030Y-70631723D02*
X173234649Y-70536485D01*
X173234649Y-70536485D02*
X173329887Y-70488866D01*
X173329887Y-70488866D02*
X173567982Y-70488866D01*
X173567982Y-70488866D02*
X173663220Y-70441247D01*
X131084104Y-72710839D02*
X131084104Y-72234649D01*
X131369819Y-72806077D02*
X130369819Y-72472744D01*
X130369819Y-72472744D02*
X131369819Y-72139411D01*
X130798390Y-71663220D02*
X130750771Y-71758458D01*
X130750771Y-71758458D02*
X130703152Y-71806077D01*
X130703152Y-71806077D02*
X130607914Y-71853696D01*
X130607914Y-71853696D02*
X130560295Y-71853696D01*
X130560295Y-71853696D02*
X130465057Y-71806077D01*
X130465057Y-71806077D02*
X130417438Y-71758458D01*
X130417438Y-71758458D02*
X130369819Y-71663220D01*
X130369819Y-71663220D02*
X130369819Y-71472744D01*
X130369819Y-71472744D02*
X130417438Y-71377506D01*
X130417438Y-71377506D02*
X130465057Y-71329887D01*
X130465057Y-71329887D02*
X130560295Y-71282268D01*
X130560295Y-71282268D02*
X130607914Y-71282268D01*
X130607914Y-71282268D02*
X130703152Y-71329887D01*
X130703152Y-71329887D02*
X130750771Y-71377506D01*
X130750771Y-71377506D02*
X130798390Y-71472744D01*
X130798390Y-71472744D02*
X130798390Y-71663220D01*
X130798390Y-71663220D02*
X130846009Y-71758458D01*
X130846009Y-71758458D02*
X130893628Y-71806077D01*
X130893628Y-71806077D02*
X130988866Y-71853696D01*
X130988866Y-71853696D02*
X131179342Y-71853696D01*
X131179342Y-71853696D02*
X131274580Y-71806077D01*
X131274580Y-71806077D02*
X131322200Y-71758458D01*
X131322200Y-71758458D02*
X131369819Y-71663220D01*
X131369819Y-71663220D02*
X131369819Y-71472744D01*
X131369819Y-71472744D02*
X131322200Y-71377506D01*
X131322200Y-71377506D02*
X131274580Y-71329887D01*
X131274580Y-71329887D02*
X131179342Y-71282268D01*
X131179342Y-71282268D02*
X130988866Y-71282268D01*
X130988866Y-71282268D02*
X130893628Y-71329887D01*
X130893628Y-71329887D02*
X130846009Y-71377506D01*
X130846009Y-71377506D02*
X130798390Y-71472744D01*
X92336779Y-65039987D02*
X92336779Y-65849510D01*
X92336779Y-65849510D02*
X92384398Y-65944748D01*
X92384398Y-65944748D02*
X92432017Y-65992368D01*
X92432017Y-65992368D02*
X92527255Y-66039987D01*
X92527255Y-66039987D02*
X92717731Y-66039987D01*
X92717731Y-66039987D02*
X92812969Y-65992368D01*
X92812969Y-65992368D02*
X92860588Y-65944748D01*
X92860588Y-65944748D02*
X92908207Y-65849510D01*
X92908207Y-65849510D02*
X92908207Y-65039987D01*
X93384398Y-65373320D02*
X93384398Y-66039987D01*
X93384398Y-65468558D02*
X93432017Y-65420939D01*
X93432017Y-65420939D02*
X93527255Y-65373320D01*
X93527255Y-65373320D02*
X93670112Y-65373320D01*
X93670112Y-65373320D02*
X93765350Y-65420939D01*
X93765350Y-65420939D02*
X93812969Y-65516177D01*
X93812969Y-65516177D02*
X93812969Y-66039987D01*
X94289160Y-66039987D02*
X94289160Y-65373320D01*
X94289160Y-65039987D02*
X94241541Y-65087606D01*
X94241541Y-65087606D02*
X94289160Y-65135225D01*
X94289160Y-65135225D02*
X94336779Y-65087606D01*
X94336779Y-65087606D02*
X94289160Y-65039987D01*
X94289160Y-65039987D02*
X94289160Y-65135225D01*
X94670112Y-65373320D02*
X94908207Y-66039987D01*
X94908207Y-66039987D02*
X95146302Y-65373320D01*
X95908207Y-65992368D02*
X95812969Y-66039987D01*
X95812969Y-66039987D02*
X95622493Y-66039987D01*
X95622493Y-66039987D02*
X95527255Y-65992368D01*
X95527255Y-65992368D02*
X95479636Y-65897129D01*
X95479636Y-65897129D02*
X95479636Y-65516177D01*
X95479636Y-65516177D02*
X95527255Y-65420939D01*
X95527255Y-65420939D02*
X95622493Y-65373320D01*
X95622493Y-65373320D02*
X95812969Y-65373320D01*
X95812969Y-65373320D02*
X95908207Y-65420939D01*
X95908207Y-65420939D02*
X95955826Y-65516177D01*
X95955826Y-65516177D02*
X95955826Y-65611415D01*
X95955826Y-65611415D02*
X95479636Y-65706653D01*
X96384398Y-66039987D02*
X96384398Y-65373320D01*
X96384398Y-65563796D02*
X96432017Y-65468558D01*
X96432017Y-65468558D02*
X96479636Y-65420939D01*
X96479636Y-65420939D02*
X96574874Y-65373320D01*
X96574874Y-65373320D02*
X96670112Y-65373320D01*
X96955827Y-65992368D02*
X97051065Y-66039987D01*
X97051065Y-66039987D02*
X97241541Y-66039987D01*
X97241541Y-66039987D02*
X97336779Y-65992368D01*
X97336779Y-65992368D02*
X97384398Y-65897129D01*
X97384398Y-65897129D02*
X97384398Y-65849510D01*
X97384398Y-65849510D02*
X97336779Y-65754272D01*
X97336779Y-65754272D02*
X97241541Y-65706653D01*
X97241541Y-65706653D02*
X97098684Y-65706653D01*
X97098684Y-65706653D02*
X97003446Y-65659034D01*
X97003446Y-65659034D02*
X96955827Y-65563796D01*
X96955827Y-65563796D02*
X96955827Y-65516177D01*
X96955827Y-65516177D02*
X97003446Y-65420939D01*
X97003446Y-65420939D02*
X97098684Y-65373320D01*
X97098684Y-65373320D02*
X97241541Y-65373320D01*
X97241541Y-65373320D02*
X97336779Y-65420939D01*
X97812970Y-66039987D02*
X97812970Y-65373320D01*
X97812970Y-65039987D02*
X97765351Y-65087606D01*
X97765351Y-65087606D02*
X97812970Y-65135225D01*
X97812970Y-65135225D02*
X97860589Y-65087606D01*
X97860589Y-65087606D02*
X97812970Y-65039987D01*
X97812970Y-65039987D02*
X97812970Y-65135225D01*
X98146303Y-65373320D02*
X98527255Y-65373320D01*
X98289160Y-65039987D02*
X98289160Y-65897129D01*
X98289160Y-65897129D02*
X98336779Y-65992368D01*
X98336779Y-65992368D02*
X98432017Y-66039987D01*
X98432017Y-66039987D02*
X98527255Y-66039987D01*
X98765351Y-65373320D02*
X99003446Y-66039987D01*
X99241541Y-65373320D02*
X99003446Y-66039987D01*
X99003446Y-66039987D02*
X98908208Y-66278082D01*
X98908208Y-66278082D02*
X98860589Y-66325701D01*
X98860589Y-66325701D02*
X98765351Y-66373320D01*
X100527256Y-66039987D02*
X100432018Y-65992368D01*
X100432018Y-65992368D02*
X100384399Y-65944748D01*
X100384399Y-65944748D02*
X100336780Y-65849510D01*
X100336780Y-65849510D02*
X100336780Y-65563796D01*
X100336780Y-65563796D02*
X100384399Y-65468558D01*
X100384399Y-65468558D02*
X100432018Y-65420939D01*
X100432018Y-65420939D02*
X100527256Y-65373320D01*
X100527256Y-65373320D02*
X100670113Y-65373320D01*
X100670113Y-65373320D02*
X100765351Y-65420939D01*
X100765351Y-65420939D02*
X100812970Y-65468558D01*
X100812970Y-65468558D02*
X100860589Y-65563796D01*
X100860589Y-65563796D02*
X100860589Y-65849510D01*
X100860589Y-65849510D02*
X100812970Y-65944748D01*
X100812970Y-65944748D02*
X100765351Y-65992368D01*
X100765351Y-65992368D02*
X100670113Y-66039987D01*
X100670113Y-66039987D02*
X100527256Y-66039987D01*
X101146304Y-65373320D02*
X101527256Y-65373320D01*
X101289161Y-66039987D02*
X101289161Y-65182844D01*
X101289161Y-65182844D02*
X101336780Y-65087606D01*
X101336780Y-65087606D02*
X101432018Y-65039987D01*
X101432018Y-65039987D02*
X101527256Y-65039987D01*
X102527257Y-65039987D02*
X102765352Y-66039987D01*
X102765352Y-66039987D02*
X102955828Y-65325701D01*
X102955828Y-65325701D02*
X103146304Y-66039987D01*
X103146304Y-66039987D02*
X103384400Y-65039987D01*
X104193923Y-66039987D02*
X104193923Y-65516177D01*
X104193923Y-65516177D02*
X104146304Y-65420939D01*
X104146304Y-65420939D02*
X104051066Y-65373320D01*
X104051066Y-65373320D02*
X103860590Y-65373320D01*
X103860590Y-65373320D02*
X103765352Y-65420939D01*
X104193923Y-65992368D02*
X104098685Y-66039987D01*
X104098685Y-66039987D02*
X103860590Y-66039987D01*
X103860590Y-66039987D02*
X103765352Y-65992368D01*
X103765352Y-65992368D02*
X103717733Y-65897129D01*
X103717733Y-65897129D02*
X103717733Y-65801891D01*
X103717733Y-65801891D02*
X103765352Y-65706653D01*
X103765352Y-65706653D02*
X103860590Y-65659034D01*
X103860590Y-65659034D02*
X104098685Y-65659034D01*
X104098685Y-65659034D02*
X104193923Y-65611415D01*
X104622495Y-65992368D02*
X104717733Y-66039987D01*
X104717733Y-66039987D02*
X104908209Y-66039987D01*
X104908209Y-66039987D02*
X105003447Y-65992368D01*
X105003447Y-65992368D02*
X105051066Y-65897129D01*
X105051066Y-65897129D02*
X105051066Y-65849510D01*
X105051066Y-65849510D02*
X105003447Y-65754272D01*
X105003447Y-65754272D02*
X104908209Y-65706653D01*
X104908209Y-65706653D02*
X104765352Y-65706653D01*
X104765352Y-65706653D02*
X104670114Y-65659034D01*
X104670114Y-65659034D02*
X104622495Y-65563796D01*
X104622495Y-65563796D02*
X104622495Y-65516177D01*
X104622495Y-65516177D02*
X104670114Y-65420939D01*
X104670114Y-65420939D02*
X104765352Y-65373320D01*
X104765352Y-65373320D02*
X104908209Y-65373320D01*
X104908209Y-65373320D02*
X105003447Y-65420939D01*
X105479638Y-66039987D02*
X105479638Y-65039987D01*
X105908209Y-66039987D02*
X105908209Y-65516177D01*
X105908209Y-65516177D02*
X105860590Y-65420939D01*
X105860590Y-65420939D02*
X105765352Y-65373320D01*
X105765352Y-65373320D02*
X105622495Y-65373320D01*
X105622495Y-65373320D02*
X105527257Y-65420939D01*
X105527257Y-65420939D02*
X105479638Y-65468558D01*
X106384400Y-66039987D02*
X106384400Y-65373320D01*
X106384400Y-65039987D02*
X106336781Y-65087606D01*
X106336781Y-65087606D02*
X106384400Y-65135225D01*
X106384400Y-65135225D02*
X106432019Y-65087606D01*
X106432019Y-65087606D02*
X106384400Y-65039987D01*
X106384400Y-65039987D02*
X106384400Y-65135225D01*
X106860590Y-65373320D02*
X106860590Y-66039987D01*
X106860590Y-65468558D02*
X106908209Y-65420939D01*
X106908209Y-65420939D02*
X107003447Y-65373320D01*
X107003447Y-65373320D02*
X107146304Y-65373320D01*
X107146304Y-65373320D02*
X107241542Y-65420939D01*
X107241542Y-65420939D02*
X107289161Y-65516177D01*
X107289161Y-65516177D02*
X107289161Y-66039987D01*
X108193923Y-65373320D02*
X108193923Y-66182844D01*
X108193923Y-66182844D02*
X108146304Y-66278082D01*
X108146304Y-66278082D02*
X108098685Y-66325701D01*
X108098685Y-66325701D02*
X108003447Y-66373320D01*
X108003447Y-66373320D02*
X107860590Y-66373320D01*
X107860590Y-66373320D02*
X107765352Y-66325701D01*
X108193923Y-65992368D02*
X108098685Y-66039987D01*
X108098685Y-66039987D02*
X107908209Y-66039987D01*
X107908209Y-66039987D02*
X107812971Y-65992368D01*
X107812971Y-65992368D02*
X107765352Y-65944748D01*
X107765352Y-65944748D02*
X107717733Y-65849510D01*
X107717733Y-65849510D02*
X107717733Y-65563796D01*
X107717733Y-65563796D02*
X107765352Y-65468558D01*
X107765352Y-65468558D02*
X107812971Y-65420939D01*
X107812971Y-65420939D02*
X107908209Y-65373320D01*
X107908209Y-65373320D02*
X108098685Y-65373320D01*
X108098685Y-65373320D02*
X108193923Y-65420939D01*
X108527257Y-65373320D02*
X108908209Y-65373320D01*
X108670114Y-65039987D02*
X108670114Y-65897129D01*
X108670114Y-65897129D02*
X108717733Y-65992368D01*
X108717733Y-65992368D02*
X108812971Y-66039987D01*
X108812971Y-66039987D02*
X108908209Y-66039987D01*
X109384400Y-66039987D02*
X109289162Y-65992368D01*
X109289162Y-65992368D02*
X109241543Y-65944748D01*
X109241543Y-65944748D02*
X109193924Y-65849510D01*
X109193924Y-65849510D02*
X109193924Y-65563796D01*
X109193924Y-65563796D02*
X109241543Y-65468558D01*
X109241543Y-65468558D02*
X109289162Y-65420939D01*
X109289162Y-65420939D02*
X109384400Y-65373320D01*
X109384400Y-65373320D02*
X109527257Y-65373320D01*
X109527257Y-65373320D02*
X109622495Y-65420939D01*
X109622495Y-65420939D02*
X109670114Y-65468558D01*
X109670114Y-65468558D02*
X109717733Y-65563796D01*
X109717733Y-65563796D02*
X109717733Y-65849510D01*
X109717733Y-65849510D02*
X109670114Y-65944748D01*
X109670114Y-65944748D02*
X109622495Y-65992368D01*
X109622495Y-65992368D02*
X109527257Y-66039987D01*
X109527257Y-66039987D02*
X109384400Y-66039987D01*
X110146305Y-65373320D02*
X110146305Y-66039987D01*
X110146305Y-65468558D02*
X110193924Y-65420939D01*
X110193924Y-65420939D02*
X110289162Y-65373320D01*
X110289162Y-65373320D02*
X110432019Y-65373320D01*
X110432019Y-65373320D02*
X110527257Y-65420939D01*
X110527257Y-65420939D02*
X110574876Y-65516177D01*
X110574876Y-65516177D02*
X110574876Y-66039987D01*
X92336779Y-67126121D02*
X92670112Y-67126121D01*
X92812969Y-67649931D02*
X92336779Y-67649931D01*
X92336779Y-67649931D02*
X92336779Y-66649931D01*
X92336779Y-66649931D02*
X92812969Y-66649931D01*
X93241541Y-67126121D02*
X93574874Y-67126121D01*
X93717731Y-67649931D02*
X93241541Y-67649931D01*
X93241541Y-67649931D02*
X93241541Y-66649931D01*
X93241541Y-66649931D02*
X93717731Y-66649931D01*
X94860589Y-66745169D02*
X94908208Y-66697550D01*
X94908208Y-66697550D02*
X95003446Y-66649931D01*
X95003446Y-66649931D02*
X95241541Y-66649931D01*
X95241541Y-66649931D02*
X95336779Y-66697550D01*
X95336779Y-66697550D02*
X95384398Y-66745169D01*
X95384398Y-66745169D02*
X95432017Y-66840407D01*
X95432017Y-66840407D02*
X95432017Y-66935645D01*
X95432017Y-66935645D02*
X95384398Y-67078502D01*
X95384398Y-67078502D02*
X94812970Y-67649931D01*
X94812970Y-67649931D02*
X95432017Y-67649931D01*
X96051065Y-66649931D02*
X96146303Y-66649931D01*
X96146303Y-66649931D02*
X96241541Y-66697550D01*
X96241541Y-66697550D02*
X96289160Y-66745169D01*
X96289160Y-66745169D02*
X96336779Y-66840407D01*
X96336779Y-66840407D02*
X96384398Y-67030883D01*
X96384398Y-67030883D02*
X96384398Y-67268978D01*
X96384398Y-67268978D02*
X96336779Y-67459454D01*
X96336779Y-67459454D02*
X96289160Y-67554692D01*
X96289160Y-67554692D02*
X96241541Y-67602312D01*
X96241541Y-67602312D02*
X96146303Y-67649931D01*
X96146303Y-67649931D02*
X96051065Y-67649931D01*
X96051065Y-67649931D02*
X95955827Y-67602312D01*
X95955827Y-67602312D02*
X95908208Y-67554692D01*
X95908208Y-67554692D02*
X95860589Y-67459454D01*
X95860589Y-67459454D02*
X95812970Y-67268978D01*
X95812970Y-67268978D02*
X95812970Y-67030883D01*
X95812970Y-67030883D02*
X95860589Y-66840407D01*
X95860589Y-66840407D02*
X95908208Y-66745169D01*
X95908208Y-66745169D02*
X95955827Y-66697550D01*
X95955827Y-66697550D02*
X96051065Y-66649931D01*
X97336779Y-67649931D02*
X96765351Y-67649931D01*
X97051065Y-67649931D02*
X97051065Y-66649931D01*
X97051065Y-66649931D02*
X96955827Y-66792788D01*
X96955827Y-66792788D02*
X96860589Y-66888026D01*
X96860589Y-66888026D02*
X96765351Y-66935645D01*
X98860589Y-67126121D02*
X98527256Y-67126121D01*
X98527256Y-67649931D02*
X98527256Y-66649931D01*
X98527256Y-66649931D02*
X99003446Y-66649931D01*
X99812970Y-67649931D02*
X99812970Y-67126121D01*
X99812970Y-67126121D02*
X99765351Y-67030883D01*
X99765351Y-67030883D02*
X99670113Y-66983264D01*
X99670113Y-66983264D02*
X99479637Y-66983264D01*
X99479637Y-66983264D02*
X99384399Y-67030883D01*
X99812970Y-67602312D02*
X99717732Y-67649931D01*
X99717732Y-67649931D02*
X99479637Y-67649931D01*
X99479637Y-67649931D02*
X99384399Y-67602312D01*
X99384399Y-67602312D02*
X99336780Y-67507073D01*
X99336780Y-67507073D02*
X99336780Y-67411835D01*
X99336780Y-67411835D02*
X99384399Y-67316597D01*
X99384399Y-67316597D02*
X99479637Y-67268978D01*
X99479637Y-67268978D02*
X99717732Y-67268978D01*
X99717732Y-67268978D02*
X99812970Y-67221359D01*
X100432018Y-67649931D02*
X100336780Y-67602312D01*
X100336780Y-67602312D02*
X100289161Y-67507073D01*
X100289161Y-67507073D02*
X100289161Y-66649931D01*
X100955828Y-67649931D02*
X100860590Y-67602312D01*
X100860590Y-67602312D02*
X100812971Y-67507073D01*
X100812971Y-67507073D02*
X100812971Y-66649931D01*
X102051067Y-66745169D02*
X102098686Y-66697550D01*
X102098686Y-66697550D02*
X102193924Y-66649931D01*
X102193924Y-66649931D02*
X102432019Y-66649931D01*
X102432019Y-66649931D02*
X102527257Y-66697550D01*
X102527257Y-66697550D02*
X102574876Y-66745169D01*
X102574876Y-66745169D02*
X102622495Y-66840407D01*
X102622495Y-66840407D02*
X102622495Y-66935645D01*
X102622495Y-66935645D02*
X102574876Y-67078502D01*
X102574876Y-67078502D02*
X102003448Y-67649931D01*
X102003448Y-67649931D02*
X102622495Y-67649931D01*
X103241543Y-66649931D02*
X103336781Y-66649931D01*
X103336781Y-66649931D02*
X103432019Y-66697550D01*
X103432019Y-66697550D02*
X103479638Y-66745169D01*
X103479638Y-66745169D02*
X103527257Y-66840407D01*
X103527257Y-66840407D02*
X103574876Y-67030883D01*
X103574876Y-67030883D02*
X103574876Y-67268978D01*
X103574876Y-67268978D02*
X103527257Y-67459454D01*
X103527257Y-67459454D02*
X103479638Y-67554692D01*
X103479638Y-67554692D02*
X103432019Y-67602312D01*
X103432019Y-67602312D02*
X103336781Y-67649931D01*
X103336781Y-67649931D02*
X103241543Y-67649931D01*
X103241543Y-67649931D02*
X103146305Y-67602312D01*
X103146305Y-67602312D02*
X103098686Y-67554692D01*
X103098686Y-67554692D02*
X103051067Y-67459454D01*
X103051067Y-67459454D02*
X103003448Y-67268978D01*
X103003448Y-67268978D02*
X103003448Y-67030883D01*
X103003448Y-67030883D02*
X103051067Y-66840407D01*
X103051067Y-66840407D02*
X103098686Y-66745169D01*
X103098686Y-66745169D02*
X103146305Y-66697550D01*
X103146305Y-66697550D02*
X103241543Y-66649931D01*
X103955829Y-66745169D02*
X104003448Y-66697550D01*
X104003448Y-66697550D02*
X104098686Y-66649931D01*
X104098686Y-66649931D02*
X104336781Y-66649931D01*
X104336781Y-66649931D02*
X104432019Y-66697550D01*
X104432019Y-66697550D02*
X104479638Y-66745169D01*
X104479638Y-66745169D02*
X104527257Y-66840407D01*
X104527257Y-66840407D02*
X104527257Y-66935645D01*
X104527257Y-66935645D02*
X104479638Y-67078502D01*
X104479638Y-67078502D02*
X103908210Y-67649931D01*
X103908210Y-67649931D02*
X104527257Y-67649931D01*
X105384400Y-66983264D02*
X105384400Y-67649931D01*
X105146305Y-66602312D02*
X104908210Y-67316597D01*
X104908210Y-67316597D02*
X105527257Y-67316597D01*
X92670112Y-68736065D02*
X92336779Y-68736065D01*
X92336779Y-69259875D02*
X92336779Y-68259875D01*
X92336779Y-68259875D02*
X92812969Y-68259875D01*
X93193922Y-69259875D02*
X93193922Y-68593208D01*
X93193922Y-68259875D02*
X93146303Y-68307494D01*
X93146303Y-68307494D02*
X93193922Y-68355113D01*
X93193922Y-68355113D02*
X93241541Y-68307494D01*
X93241541Y-68307494D02*
X93193922Y-68259875D01*
X93193922Y-68259875D02*
X93193922Y-68355113D01*
X93670112Y-68593208D02*
X93670112Y-69259875D01*
X93670112Y-68688446D02*
X93717731Y-68640827D01*
X93717731Y-68640827D02*
X93812969Y-68593208D01*
X93812969Y-68593208D02*
X93955826Y-68593208D01*
X93955826Y-68593208D02*
X94051064Y-68640827D01*
X94051064Y-68640827D02*
X94098683Y-68736065D01*
X94098683Y-68736065D02*
X94098683Y-69259875D01*
X95003445Y-69259875D02*
X95003445Y-68736065D01*
X95003445Y-68736065D02*
X94955826Y-68640827D01*
X94955826Y-68640827D02*
X94860588Y-68593208D01*
X94860588Y-68593208D02*
X94670112Y-68593208D01*
X94670112Y-68593208D02*
X94574874Y-68640827D01*
X95003445Y-69212256D02*
X94908207Y-69259875D01*
X94908207Y-69259875D02*
X94670112Y-69259875D01*
X94670112Y-69259875D02*
X94574874Y-69212256D01*
X94574874Y-69212256D02*
X94527255Y-69117017D01*
X94527255Y-69117017D02*
X94527255Y-69021779D01*
X94527255Y-69021779D02*
X94574874Y-68926541D01*
X94574874Y-68926541D02*
X94670112Y-68878922D01*
X94670112Y-68878922D02*
X94908207Y-68878922D01*
X94908207Y-68878922D02*
X95003445Y-68831303D01*
X95622493Y-69259875D02*
X95527255Y-69212256D01*
X95527255Y-69212256D02*
X95479636Y-69117017D01*
X95479636Y-69117017D02*
X95479636Y-68259875D01*
X96765351Y-69259875D02*
X96765351Y-68259875D01*
X96765351Y-68259875D02*
X97146303Y-68259875D01*
X97146303Y-68259875D02*
X97241541Y-68307494D01*
X97241541Y-68307494D02*
X97289160Y-68355113D01*
X97289160Y-68355113D02*
X97336779Y-68450351D01*
X97336779Y-68450351D02*
X97336779Y-68593208D01*
X97336779Y-68593208D02*
X97289160Y-68688446D01*
X97289160Y-68688446D02*
X97241541Y-68736065D01*
X97241541Y-68736065D02*
X97146303Y-68783684D01*
X97146303Y-68783684D02*
X96765351Y-68783684D01*
X97765351Y-69259875D02*
X97765351Y-68593208D01*
X97765351Y-68783684D02*
X97812970Y-68688446D01*
X97812970Y-68688446D02*
X97860589Y-68640827D01*
X97860589Y-68640827D02*
X97955827Y-68593208D01*
X97955827Y-68593208D02*
X98051065Y-68593208D01*
X98527256Y-69259875D02*
X98432018Y-69212256D01*
X98432018Y-69212256D02*
X98384399Y-69164636D01*
X98384399Y-69164636D02*
X98336780Y-69069398D01*
X98336780Y-69069398D02*
X98336780Y-68783684D01*
X98336780Y-68783684D02*
X98384399Y-68688446D01*
X98384399Y-68688446D02*
X98432018Y-68640827D01*
X98432018Y-68640827D02*
X98527256Y-68593208D01*
X98527256Y-68593208D02*
X98670113Y-68593208D01*
X98670113Y-68593208D02*
X98765351Y-68640827D01*
X98765351Y-68640827D02*
X98812970Y-68688446D01*
X98812970Y-68688446D02*
X98860589Y-68783684D01*
X98860589Y-68783684D02*
X98860589Y-69069398D01*
X98860589Y-69069398D02*
X98812970Y-69164636D01*
X98812970Y-69164636D02*
X98765351Y-69212256D01*
X98765351Y-69212256D02*
X98670113Y-69259875D01*
X98670113Y-69259875D02*
X98527256Y-69259875D01*
X99289161Y-68593208D02*
X99289161Y-69450351D01*
X99289161Y-69450351D02*
X99241542Y-69545589D01*
X99241542Y-69545589D02*
X99146304Y-69593208D01*
X99146304Y-69593208D02*
X99098685Y-69593208D01*
X99289161Y-68259875D02*
X99241542Y-68307494D01*
X99241542Y-68307494D02*
X99289161Y-68355113D01*
X99289161Y-68355113D02*
X99336780Y-68307494D01*
X99336780Y-68307494D02*
X99289161Y-68259875D01*
X99289161Y-68259875D02*
X99289161Y-68355113D01*
X100146303Y-69212256D02*
X100051065Y-69259875D01*
X100051065Y-69259875D02*
X99860589Y-69259875D01*
X99860589Y-69259875D02*
X99765351Y-69212256D01*
X99765351Y-69212256D02*
X99717732Y-69117017D01*
X99717732Y-69117017D02*
X99717732Y-68736065D01*
X99717732Y-68736065D02*
X99765351Y-68640827D01*
X99765351Y-68640827D02*
X99860589Y-68593208D01*
X99860589Y-68593208D02*
X100051065Y-68593208D01*
X100051065Y-68593208D02*
X100146303Y-68640827D01*
X100146303Y-68640827D02*
X100193922Y-68736065D01*
X100193922Y-68736065D02*
X100193922Y-68831303D01*
X100193922Y-68831303D02*
X99717732Y-68926541D01*
X101051065Y-69212256D02*
X100955827Y-69259875D01*
X100955827Y-69259875D02*
X100765351Y-69259875D01*
X100765351Y-69259875D02*
X100670113Y-69212256D01*
X100670113Y-69212256D02*
X100622494Y-69164636D01*
X100622494Y-69164636D02*
X100574875Y-69069398D01*
X100574875Y-69069398D02*
X100574875Y-68783684D01*
X100574875Y-68783684D02*
X100622494Y-68688446D01*
X100622494Y-68688446D02*
X100670113Y-68640827D01*
X100670113Y-68640827D02*
X100765351Y-68593208D01*
X100765351Y-68593208D02*
X100955827Y-68593208D01*
X100955827Y-68593208D02*
X101051065Y-68640827D01*
X101336780Y-68593208D02*
X101717732Y-68593208D01*
X101479637Y-68259875D02*
X101479637Y-69117017D01*
X101479637Y-69117017D02*
X101527256Y-69212256D01*
X101527256Y-69212256D02*
X101622494Y-69259875D01*
X101622494Y-69259875D02*
X101717732Y-69259875D01*
X102765352Y-69212256D02*
X102908209Y-69259875D01*
X102908209Y-69259875D02*
X103146304Y-69259875D01*
X103146304Y-69259875D02*
X103241542Y-69212256D01*
X103241542Y-69212256D02*
X103289161Y-69164636D01*
X103289161Y-69164636D02*
X103336780Y-69069398D01*
X103336780Y-69069398D02*
X103336780Y-68974160D01*
X103336780Y-68974160D02*
X103289161Y-68878922D01*
X103289161Y-68878922D02*
X103241542Y-68831303D01*
X103241542Y-68831303D02*
X103146304Y-68783684D01*
X103146304Y-68783684D02*
X102955828Y-68736065D01*
X102955828Y-68736065D02*
X102860590Y-68688446D01*
X102860590Y-68688446D02*
X102812971Y-68640827D01*
X102812971Y-68640827D02*
X102765352Y-68545589D01*
X102765352Y-68545589D02*
X102765352Y-68450351D01*
X102765352Y-68450351D02*
X102812971Y-68355113D01*
X102812971Y-68355113D02*
X102860590Y-68307494D01*
X102860590Y-68307494D02*
X102955828Y-68259875D01*
X102955828Y-68259875D02*
X103193923Y-68259875D01*
X103193923Y-68259875D02*
X103336780Y-68307494D01*
X104146304Y-69212256D02*
X104051066Y-69259875D01*
X104051066Y-69259875D02*
X103860590Y-69259875D01*
X103860590Y-69259875D02*
X103765352Y-69212256D01*
X103765352Y-69212256D02*
X103717733Y-69117017D01*
X103717733Y-69117017D02*
X103717733Y-68736065D01*
X103717733Y-68736065D02*
X103765352Y-68640827D01*
X103765352Y-68640827D02*
X103860590Y-68593208D01*
X103860590Y-68593208D02*
X104051066Y-68593208D01*
X104051066Y-68593208D02*
X104146304Y-68640827D01*
X104146304Y-68640827D02*
X104193923Y-68736065D01*
X104193923Y-68736065D02*
X104193923Y-68831303D01*
X104193923Y-68831303D02*
X103717733Y-68926541D01*
X104622495Y-68593208D02*
X104622495Y-69259875D01*
X104622495Y-68688446D02*
X104670114Y-68640827D01*
X104670114Y-68640827D02*
X104765352Y-68593208D01*
X104765352Y-68593208D02*
X104908209Y-68593208D01*
X104908209Y-68593208D02*
X105003447Y-68640827D01*
X105003447Y-68640827D02*
X105051066Y-68736065D01*
X105051066Y-68736065D02*
X105051066Y-69259875D01*
X105479638Y-69212256D02*
X105574876Y-69259875D01*
X105574876Y-69259875D02*
X105765352Y-69259875D01*
X105765352Y-69259875D02*
X105860590Y-69212256D01*
X105860590Y-69212256D02*
X105908209Y-69117017D01*
X105908209Y-69117017D02*
X105908209Y-69069398D01*
X105908209Y-69069398D02*
X105860590Y-68974160D01*
X105860590Y-68974160D02*
X105765352Y-68926541D01*
X105765352Y-68926541D02*
X105622495Y-68926541D01*
X105622495Y-68926541D02*
X105527257Y-68878922D01*
X105527257Y-68878922D02*
X105479638Y-68783684D01*
X105479638Y-68783684D02*
X105479638Y-68736065D01*
X105479638Y-68736065D02*
X105527257Y-68640827D01*
X105527257Y-68640827D02*
X105622495Y-68593208D01*
X105622495Y-68593208D02*
X105765352Y-68593208D01*
X105765352Y-68593208D02*
X105860590Y-68640827D01*
X106479638Y-69259875D02*
X106384400Y-69212256D01*
X106384400Y-69212256D02*
X106336781Y-69164636D01*
X106336781Y-69164636D02*
X106289162Y-69069398D01*
X106289162Y-69069398D02*
X106289162Y-68783684D01*
X106289162Y-68783684D02*
X106336781Y-68688446D01*
X106336781Y-68688446D02*
X106384400Y-68640827D01*
X106384400Y-68640827D02*
X106479638Y-68593208D01*
X106479638Y-68593208D02*
X106622495Y-68593208D01*
X106622495Y-68593208D02*
X106717733Y-68640827D01*
X106717733Y-68640827D02*
X106765352Y-68688446D01*
X106765352Y-68688446D02*
X106812971Y-68783684D01*
X106812971Y-68783684D02*
X106812971Y-69069398D01*
X106812971Y-69069398D02*
X106765352Y-69164636D01*
X106765352Y-69164636D02*
X106717733Y-69212256D01*
X106717733Y-69212256D02*
X106622495Y-69259875D01*
X106622495Y-69259875D02*
X106479638Y-69259875D01*
X107241543Y-69259875D02*
X107241543Y-68593208D01*
X107241543Y-68783684D02*
X107289162Y-68688446D01*
X107289162Y-68688446D02*
X107336781Y-68640827D01*
X107336781Y-68640827D02*
X107432019Y-68593208D01*
X107432019Y-68593208D02*
X107527257Y-68593208D01*
X108574877Y-68974160D02*
X109051067Y-68974160D01*
X108479639Y-69259875D02*
X108812972Y-68259875D01*
X108812972Y-68259875D02*
X109146305Y-69259875D01*
X109479639Y-69259875D02*
X109479639Y-68593208D01*
X109479639Y-68783684D02*
X109527258Y-68688446D01*
X109527258Y-68688446D02*
X109574877Y-68640827D01*
X109574877Y-68640827D02*
X109670115Y-68593208D01*
X109670115Y-68593208D02*
X109765353Y-68593208D01*
X110098687Y-69259875D02*
X110098687Y-68593208D01*
X110098687Y-68783684D02*
X110146306Y-68688446D01*
X110146306Y-68688446D02*
X110193925Y-68640827D01*
X110193925Y-68640827D02*
X110289163Y-68593208D01*
X110289163Y-68593208D02*
X110384401Y-68593208D01*
X111146306Y-69259875D02*
X111146306Y-68736065D01*
X111146306Y-68736065D02*
X111098687Y-68640827D01*
X111098687Y-68640827D02*
X111003449Y-68593208D01*
X111003449Y-68593208D02*
X110812973Y-68593208D01*
X110812973Y-68593208D02*
X110717735Y-68640827D01*
X111146306Y-69212256D02*
X111051068Y-69259875D01*
X111051068Y-69259875D02*
X110812973Y-69259875D01*
X110812973Y-69259875D02*
X110717735Y-69212256D01*
X110717735Y-69212256D02*
X110670116Y-69117017D01*
X110670116Y-69117017D02*
X110670116Y-69021779D01*
X110670116Y-69021779D02*
X110717735Y-68926541D01*
X110717735Y-68926541D02*
X110812973Y-68878922D01*
X110812973Y-68878922D02*
X111051068Y-68878922D01*
X111051068Y-68878922D02*
X111146306Y-68831303D01*
X111527259Y-68593208D02*
X111765354Y-69259875D01*
X112003449Y-68593208D02*
X111765354Y-69259875D01*
X111765354Y-69259875D02*
X111670116Y-69497970D01*
X111670116Y-69497970D02*
X111622497Y-69545589D01*
X111622497Y-69545589D02*
X111527259Y-69593208D01*
X92193922Y-69869819D02*
X92527255Y-70869819D01*
X92527255Y-70869819D02*
X92860588Y-69869819D01*
X93574874Y-70822200D02*
X93479636Y-70869819D01*
X93479636Y-70869819D02*
X93289160Y-70869819D01*
X93289160Y-70869819D02*
X93193922Y-70822200D01*
X93193922Y-70822200D02*
X93146303Y-70726961D01*
X93146303Y-70726961D02*
X93146303Y-70346009D01*
X93146303Y-70346009D02*
X93193922Y-70250771D01*
X93193922Y-70250771D02*
X93289160Y-70203152D01*
X93289160Y-70203152D02*
X93479636Y-70203152D01*
X93479636Y-70203152D02*
X93574874Y-70250771D01*
X93574874Y-70250771D02*
X93622493Y-70346009D01*
X93622493Y-70346009D02*
X93622493Y-70441247D01*
X93622493Y-70441247D02*
X93146303Y-70536485D01*
X94051065Y-70869819D02*
X94051065Y-70203152D01*
X94051065Y-70393628D02*
X94098684Y-70298390D01*
X94098684Y-70298390D02*
X94146303Y-70250771D01*
X94146303Y-70250771D02*
X94241541Y-70203152D01*
X94241541Y-70203152D02*
X94336779Y-70203152D01*
X94622494Y-70822200D02*
X94717732Y-70869819D01*
X94717732Y-70869819D02*
X94908208Y-70869819D01*
X94908208Y-70869819D02*
X95003446Y-70822200D01*
X95003446Y-70822200D02*
X95051065Y-70726961D01*
X95051065Y-70726961D02*
X95051065Y-70679342D01*
X95051065Y-70679342D02*
X95003446Y-70584104D01*
X95003446Y-70584104D02*
X94908208Y-70536485D01*
X94908208Y-70536485D02*
X94765351Y-70536485D01*
X94765351Y-70536485D02*
X94670113Y-70488866D01*
X94670113Y-70488866D02*
X94622494Y-70393628D01*
X94622494Y-70393628D02*
X94622494Y-70346009D01*
X94622494Y-70346009D02*
X94670113Y-70250771D01*
X94670113Y-70250771D02*
X94765351Y-70203152D01*
X94765351Y-70203152D02*
X94908208Y-70203152D01*
X94908208Y-70203152D02*
X95003446Y-70250771D01*
X95479637Y-70869819D02*
X95479637Y-70203152D01*
X95479637Y-69869819D02*
X95432018Y-69917438D01*
X95432018Y-69917438D02*
X95479637Y-69965057D01*
X95479637Y-69965057D02*
X95527256Y-69917438D01*
X95527256Y-69917438D02*
X95479637Y-69869819D01*
X95479637Y-69869819D02*
X95479637Y-69965057D01*
X96098684Y-70869819D02*
X96003446Y-70822200D01*
X96003446Y-70822200D02*
X95955827Y-70774580D01*
X95955827Y-70774580D02*
X95908208Y-70679342D01*
X95908208Y-70679342D02*
X95908208Y-70393628D01*
X95908208Y-70393628D02*
X95955827Y-70298390D01*
X95955827Y-70298390D02*
X96003446Y-70250771D01*
X96003446Y-70250771D02*
X96098684Y-70203152D01*
X96098684Y-70203152D02*
X96241541Y-70203152D01*
X96241541Y-70203152D02*
X96336779Y-70250771D01*
X96336779Y-70250771D02*
X96384398Y-70298390D01*
X96384398Y-70298390D02*
X96432017Y-70393628D01*
X96432017Y-70393628D02*
X96432017Y-70679342D01*
X96432017Y-70679342D02*
X96384398Y-70774580D01*
X96384398Y-70774580D02*
X96336779Y-70822200D01*
X96336779Y-70822200D02*
X96241541Y-70869819D01*
X96241541Y-70869819D02*
X96098684Y-70869819D01*
X96860589Y-70203152D02*
X96860589Y-70869819D01*
X96860589Y-70298390D02*
X96908208Y-70250771D01*
X96908208Y-70250771D02*
X97003446Y-70203152D01*
X97003446Y-70203152D02*
X97146303Y-70203152D01*
X97146303Y-70203152D02*
X97241541Y-70250771D01*
X97241541Y-70250771D02*
X97289160Y-70346009D01*
X97289160Y-70346009D02*
X97289160Y-70869819D01*
X98717732Y-69869819D02*
X98812970Y-69869819D01*
X98812970Y-69869819D02*
X98908208Y-69917438D01*
X98908208Y-69917438D02*
X98955827Y-69965057D01*
X98955827Y-69965057D02*
X99003446Y-70060295D01*
X99003446Y-70060295D02*
X99051065Y-70250771D01*
X99051065Y-70250771D02*
X99051065Y-70488866D01*
X99051065Y-70488866D02*
X99003446Y-70679342D01*
X99003446Y-70679342D02*
X98955827Y-70774580D01*
X98955827Y-70774580D02*
X98908208Y-70822200D01*
X98908208Y-70822200D02*
X98812970Y-70869819D01*
X98812970Y-70869819D02*
X98717732Y-70869819D01*
X98717732Y-70869819D02*
X98622494Y-70822200D01*
X98622494Y-70822200D02*
X98574875Y-70774580D01*
X98574875Y-70774580D02*
X98527256Y-70679342D01*
X98527256Y-70679342D02*
X98479637Y-70488866D01*
X98479637Y-70488866D02*
X98479637Y-70250771D01*
X98479637Y-70250771D02*
X98527256Y-70060295D01*
X98527256Y-70060295D02*
X98574875Y-69965057D01*
X98574875Y-69965057D02*
X98622494Y-69917438D01*
X98622494Y-69917438D02*
X98717732Y-69869819D01*
X99479637Y-70774580D02*
X99527256Y-70822200D01*
X99527256Y-70822200D02*
X99479637Y-70869819D01*
X99479637Y-70869819D02*
X99432018Y-70822200D01*
X99432018Y-70822200D02*
X99479637Y-70774580D01*
X99479637Y-70774580D02*
X99479637Y-70869819D01*
X100479636Y-70869819D02*
X99908208Y-70869819D01*
X100193922Y-70869819D02*
X100193922Y-69869819D01*
X100193922Y-69869819D02*
X100098684Y-70012676D01*
X100098684Y-70012676D02*
X100003446Y-70107914D01*
X100003446Y-70107914D02*
X99908208Y-70155533D01*
X103860588Y-74417438D02*
X103765350Y-74369819D01*
X103765350Y-74369819D02*
X103622493Y-74369819D01*
X103622493Y-74369819D02*
X103479636Y-74417438D01*
X103479636Y-74417438D02*
X103384398Y-74512676D01*
X103384398Y-74512676D02*
X103336779Y-74607914D01*
X103336779Y-74607914D02*
X103289160Y-74798390D01*
X103289160Y-74798390D02*
X103289160Y-74941247D01*
X103289160Y-74941247D02*
X103336779Y-75131723D01*
X103336779Y-75131723D02*
X103384398Y-75226961D01*
X103384398Y-75226961D02*
X103479636Y-75322200D01*
X103479636Y-75322200D02*
X103622493Y-75369819D01*
X103622493Y-75369819D02*
X103717731Y-75369819D01*
X103717731Y-75369819D02*
X103860588Y-75322200D01*
X103860588Y-75322200D02*
X103908207Y-75274580D01*
X103908207Y-75274580D02*
X103908207Y-74941247D01*
X103908207Y-74941247D02*
X103717731Y-74941247D01*
X104336779Y-75369819D02*
X104336779Y-74369819D01*
X104336779Y-74369819D02*
X104908207Y-75369819D01*
X104908207Y-75369819D02*
X104908207Y-74369819D01*
X105384398Y-75369819D02*
X105384398Y-74369819D01*
X105384398Y-74369819D02*
X105622493Y-74369819D01*
X105622493Y-74369819D02*
X105765350Y-74417438D01*
X105765350Y-74417438D02*
X105860588Y-74512676D01*
X105860588Y-74512676D02*
X105908207Y-74607914D01*
X105908207Y-74607914D02*
X105955826Y-74798390D01*
X105955826Y-74798390D02*
X105955826Y-74941247D01*
X105955826Y-74941247D02*
X105908207Y-75131723D01*
X105908207Y-75131723D02*
X105860588Y-75226961D01*
X105860588Y-75226961D02*
X105765350Y-75322200D01*
X105765350Y-75322200D02*
X105622493Y-75369819D01*
X105622493Y-75369819D02*
X105384398Y-75369819D01*
X146084104Y-72710839D02*
X146084104Y-72234649D01*
X146369819Y-72806077D02*
X145369819Y-72472744D01*
X145369819Y-72472744D02*
X146369819Y-72139411D01*
X146369819Y-71282268D02*
X146369819Y-71853696D01*
X146369819Y-71567982D02*
X145369819Y-71567982D01*
X145369819Y-71567982D02*
X145512676Y-71663220D01*
X145512676Y-71663220D02*
X145607914Y-71758458D01*
X145607914Y-71758458D02*
X145655533Y-71853696D01*
X145703152Y-70425125D02*
X146369819Y-70425125D01*
X145322200Y-70663220D02*
X146036485Y-70901315D01*
X146036485Y-70901315D02*
X146036485Y-70282268D01*
X133584104Y-72710839D02*
X133584104Y-72234649D01*
X133869819Y-72806077D02*
X132869819Y-72472744D01*
X132869819Y-72472744D02*
X133869819Y-72139411D01*
X133869819Y-71758458D02*
X133869819Y-71567982D01*
X133869819Y-71567982D02*
X133822200Y-71472744D01*
X133822200Y-71472744D02*
X133774580Y-71425125D01*
X133774580Y-71425125D02*
X133631723Y-71329887D01*
X133631723Y-71329887D02*
X133441247Y-71282268D01*
X133441247Y-71282268D02*
X133060295Y-71282268D01*
X133060295Y-71282268D02*
X132965057Y-71329887D01*
X132965057Y-71329887D02*
X132917438Y-71377506D01*
X132917438Y-71377506D02*
X132869819Y-71472744D01*
X132869819Y-71472744D02*
X132869819Y-71663220D01*
X132869819Y-71663220D02*
X132917438Y-71758458D01*
X132917438Y-71758458D02*
X132965057Y-71806077D01*
X132965057Y-71806077D02*
X133060295Y-71853696D01*
X133060295Y-71853696D02*
X133298390Y-71853696D01*
X133298390Y-71853696D02*
X133393628Y-71806077D01*
X133393628Y-71806077D02*
X133441247Y-71758458D01*
X133441247Y-71758458D02*
X133488866Y-71663220D01*
X133488866Y-71663220D02*
X133488866Y-71472744D01*
X133488866Y-71472744D02*
X133441247Y-71377506D01*
X133441247Y-71377506D02*
X133393628Y-71329887D01*
X133393628Y-71329887D02*
X133298390Y-71282268D01*
X138584104Y-72710839D02*
X138584104Y-72234649D01*
X138869819Y-72806077D02*
X137869819Y-72472744D01*
X137869819Y-72472744D02*
X138869819Y-72139411D01*
X138869819Y-71282268D02*
X138869819Y-71853696D01*
X138869819Y-71567982D02*
X137869819Y-71567982D01*
X137869819Y-71567982D02*
X138012676Y-71663220D01*
X138012676Y-71663220D02*
X138107914Y-71758458D01*
X138107914Y-71758458D02*
X138155533Y-71853696D01*
X138869819Y-70329887D02*
X138869819Y-70901315D01*
X138869819Y-70615601D02*
X137869819Y-70615601D01*
X137869819Y-70615601D02*
X138012676Y-70710839D01*
X138012676Y-70710839D02*
X138107914Y-70806077D01*
X138107914Y-70806077D02*
X138155533Y-70901315D01*
X141084104Y-72710839D02*
X141084104Y-72234649D01*
X141369819Y-72806077D02*
X140369819Y-72472744D01*
X140369819Y-72472744D02*
X141369819Y-72139411D01*
X141369819Y-71282268D02*
X141369819Y-71853696D01*
X141369819Y-71567982D02*
X140369819Y-71567982D01*
X140369819Y-71567982D02*
X140512676Y-71663220D01*
X140512676Y-71663220D02*
X140607914Y-71758458D01*
X140607914Y-71758458D02*
X140655533Y-71853696D01*
X140465057Y-70901315D02*
X140417438Y-70853696D01*
X140417438Y-70853696D02*
X140369819Y-70758458D01*
X140369819Y-70758458D02*
X140369819Y-70520363D01*
X140369819Y-70520363D02*
X140417438Y-70425125D01*
X140417438Y-70425125D02*
X140465057Y-70377506D01*
X140465057Y-70377506D02*
X140560295Y-70329887D01*
X140560295Y-70329887D02*
X140655533Y-70329887D01*
X140655533Y-70329887D02*
X140798390Y-70377506D01*
X140798390Y-70377506D02*
X141369819Y-70948934D01*
X141369819Y-70948934D02*
X141369819Y-70329887D01*
X136084104Y-72710839D02*
X136084104Y-72234649D01*
X136369819Y-72806077D02*
X135369819Y-72472744D01*
X135369819Y-72472744D02*
X136369819Y-72139411D01*
X136369819Y-71282268D02*
X136369819Y-71853696D01*
X136369819Y-71567982D02*
X135369819Y-71567982D01*
X135369819Y-71567982D02*
X135512676Y-71663220D01*
X135512676Y-71663220D02*
X135607914Y-71758458D01*
X135607914Y-71758458D02*
X135655533Y-71853696D01*
X135369819Y-70663220D02*
X135369819Y-70567982D01*
X135369819Y-70567982D02*
X135417438Y-70472744D01*
X135417438Y-70472744D02*
X135465057Y-70425125D01*
X135465057Y-70425125D02*
X135560295Y-70377506D01*
X135560295Y-70377506D02*
X135750771Y-70329887D01*
X135750771Y-70329887D02*
X135988866Y-70329887D01*
X135988866Y-70329887D02*
X136179342Y-70377506D01*
X136179342Y-70377506D02*
X136274580Y-70425125D01*
X136274580Y-70425125D02*
X136322200Y-70472744D01*
X136322200Y-70472744D02*
X136369819Y-70567982D01*
X136369819Y-70567982D02*
X136369819Y-70663220D01*
X136369819Y-70663220D02*
X136322200Y-70758458D01*
X136322200Y-70758458D02*
X136274580Y-70806077D01*
X136274580Y-70806077D02*
X136179342Y-70853696D01*
X136179342Y-70853696D02*
X135988866Y-70901315D01*
X135988866Y-70901315D02*
X135750771Y-70901315D01*
X135750771Y-70901315D02*
X135560295Y-70853696D01*
X135560295Y-70853696D02*
X135465057Y-70806077D01*
X135465057Y-70806077D02*
X135417438Y-70758458D01*
X135417438Y-70758458D02*
X135369819Y-70663220D01*
X156669104Y-98690475D02*
X156669104Y-98214285D01*
X156954819Y-98785713D02*
X155954819Y-98452380D01*
X155954819Y-98452380D02*
X156954819Y-98119047D01*
X156954819Y-97261904D02*
X156954819Y-97833332D01*
X156954819Y-97547618D02*
X155954819Y-97547618D01*
X155954819Y-97547618D02*
X156097676Y-97642856D01*
X156097676Y-97642856D02*
X156192914Y-97738094D01*
X156192914Y-97738094D02*
X156240533Y-97833332D01*
X155954819Y-96928570D02*
X155954819Y-96309523D01*
X155954819Y-96309523D02*
X156335771Y-96642856D01*
X156335771Y-96642856D02*
X156335771Y-96499999D01*
X156335771Y-96499999D02*
X156383390Y-96404761D01*
X156383390Y-96404761D02*
X156431009Y-96357142D01*
X156431009Y-96357142D02*
X156526247Y-96309523D01*
X156526247Y-96309523D02*
X156764342Y-96309523D01*
X156764342Y-96309523D02*
X156859580Y-96357142D01*
X156859580Y-96357142D02*
X156907200Y-96404761D01*
X156907200Y-96404761D02*
X156954819Y-96499999D01*
X156954819Y-96499999D02*
X156954819Y-96785713D01*
X156954819Y-96785713D02*
X156907200Y-96880951D01*
X156907200Y-96880951D02*
X156859580Y-96928570D01*
X163238095Y-97002438D02*
X163142857Y-96954819D01*
X163142857Y-96954819D02*
X163000000Y-96954819D01*
X163000000Y-96954819D02*
X162857143Y-97002438D01*
X162857143Y-97002438D02*
X162761905Y-97097676D01*
X162761905Y-97097676D02*
X162714286Y-97192914D01*
X162714286Y-97192914D02*
X162666667Y-97383390D01*
X162666667Y-97383390D02*
X162666667Y-97526247D01*
X162666667Y-97526247D02*
X162714286Y-97716723D01*
X162714286Y-97716723D02*
X162761905Y-97811961D01*
X162761905Y-97811961D02*
X162857143Y-97907200D01*
X162857143Y-97907200D02*
X163000000Y-97954819D01*
X163000000Y-97954819D02*
X163095238Y-97954819D01*
X163095238Y-97954819D02*
X163238095Y-97907200D01*
X163238095Y-97907200D02*
X163285714Y-97859580D01*
X163285714Y-97859580D02*
X163285714Y-97526247D01*
X163285714Y-97526247D02*
X163095238Y-97526247D01*
X163714286Y-97954819D02*
X163714286Y-96954819D01*
X163714286Y-96954819D02*
X164285714Y-97954819D01*
X164285714Y-97954819D02*
X164285714Y-96954819D01*
X164761905Y-97954819D02*
X164761905Y-96954819D01*
X164761905Y-96954819D02*
X165000000Y-96954819D01*
X165000000Y-96954819D02*
X165142857Y-97002438D01*
X165142857Y-97002438D02*
X165238095Y-97097676D01*
X165238095Y-97097676D02*
X165285714Y-97192914D01*
X165285714Y-97192914D02*
X165333333Y-97383390D01*
X165333333Y-97383390D02*
X165333333Y-97526247D01*
X165333333Y-97526247D02*
X165285714Y-97716723D01*
X165285714Y-97716723D02*
X165238095Y-97811961D01*
X165238095Y-97811961D02*
X165142857Y-97907200D01*
X165142857Y-97907200D02*
X165000000Y-97954819D01*
X165000000Y-97954819D02*
X164761905Y-97954819D01*
X132169104Y-98690475D02*
X132169104Y-98214285D01*
X132454819Y-98785713D02*
X131454819Y-98452380D01*
X131454819Y-98452380D02*
X132454819Y-98119047D01*
X132454819Y-97261904D02*
X132454819Y-97833332D01*
X132454819Y-97547618D02*
X131454819Y-97547618D01*
X131454819Y-97547618D02*
X131597676Y-97642856D01*
X131597676Y-97642856D02*
X131692914Y-97738094D01*
X131692914Y-97738094D02*
X131740533Y-97833332D01*
X132454819Y-96309523D02*
X132454819Y-96880951D01*
X132454819Y-96595237D02*
X131454819Y-96595237D01*
X131454819Y-96595237D02*
X131597676Y-96690475D01*
X131597676Y-96690475D02*
X131692914Y-96785713D01*
X131692914Y-96785713D02*
X131740533Y-96880951D01*
X144669104Y-98690475D02*
X144669104Y-98214285D01*
X144954819Y-98785713D02*
X143954819Y-98452380D01*
X143954819Y-98452380D02*
X144954819Y-98119047D01*
X144954819Y-97261904D02*
X144954819Y-97833332D01*
X144954819Y-97547618D02*
X143954819Y-97547618D01*
X143954819Y-97547618D02*
X144097676Y-97642856D01*
X144097676Y-97642856D02*
X144192914Y-97738094D01*
X144192914Y-97738094D02*
X144240533Y-97833332D01*
X144050057Y-96880951D02*
X144002438Y-96833332D01*
X144002438Y-96833332D02*
X143954819Y-96738094D01*
X143954819Y-96738094D02*
X143954819Y-96499999D01*
X143954819Y-96499999D02*
X144002438Y-96404761D01*
X144002438Y-96404761D02*
X144050057Y-96357142D01*
X144050057Y-96357142D02*
X144145295Y-96309523D01*
X144145295Y-96309523D02*
X144240533Y-96309523D01*
X144240533Y-96309523D02*
X144383390Y-96357142D01*
X144383390Y-96357142D02*
X144954819Y-96928570D01*
X144954819Y-96928570D02*
X144954819Y-96309523D01*
X93166667Y-74454819D02*
X93500000Y-75454819D01*
X93500000Y-75454819D02*
X93833333Y-74454819D01*
X94738095Y-75359580D02*
X94690476Y-75407200D01*
X94690476Y-75407200D02*
X94547619Y-75454819D01*
X94547619Y-75454819D02*
X94452381Y-75454819D01*
X94452381Y-75454819D02*
X94309524Y-75407200D01*
X94309524Y-75407200D02*
X94214286Y-75311961D01*
X94214286Y-75311961D02*
X94166667Y-75216723D01*
X94166667Y-75216723D02*
X94119048Y-75026247D01*
X94119048Y-75026247D02*
X94119048Y-74883390D01*
X94119048Y-74883390D02*
X94166667Y-74692914D01*
X94166667Y-74692914D02*
X94214286Y-74597676D01*
X94214286Y-74597676D02*
X94309524Y-74502438D01*
X94309524Y-74502438D02*
X94452381Y-74454819D01*
X94452381Y-74454819D02*
X94547619Y-74454819D01*
X94547619Y-74454819D02*
X94690476Y-74502438D01*
X94690476Y-74502438D02*
X94738095Y-74550057D01*
X95738095Y-75359580D02*
X95690476Y-75407200D01*
X95690476Y-75407200D02*
X95547619Y-75454819D01*
X95547619Y-75454819D02*
X95452381Y-75454819D01*
X95452381Y-75454819D02*
X95309524Y-75407200D01*
X95309524Y-75407200D02*
X95214286Y-75311961D01*
X95214286Y-75311961D02*
X95166667Y-75216723D01*
X95166667Y-75216723D02*
X95119048Y-75026247D01*
X95119048Y-75026247D02*
X95119048Y-74883390D01*
X95119048Y-74883390D02*
X95166667Y-74692914D01*
X95166667Y-74692914D02*
X95214286Y-74597676D01*
X95214286Y-74597676D02*
X95309524Y-74502438D01*
X95309524Y-74502438D02*
X95452381Y-74454819D01*
X95452381Y-74454819D02*
X95547619Y-74454819D01*
X95547619Y-74454819D02*
X95690476Y-74502438D01*
X95690476Y-74502438D02*
X95738095Y-74550057D01*
X139238095Y-97002438D02*
X139142857Y-96954819D01*
X139142857Y-96954819D02*
X139000000Y-96954819D01*
X139000000Y-96954819D02*
X138857143Y-97002438D01*
X138857143Y-97002438D02*
X138761905Y-97097676D01*
X138761905Y-97097676D02*
X138714286Y-97192914D01*
X138714286Y-97192914D02*
X138666667Y-97383390D01*
X138666667Y-97383390D02*
X138666667Y-97526247D01*
X138666667Y-97526247D02*
X138714286Y-97716723D01*
X138714286Y-97716723D02*
X138761905Y-97811961D01*
X138761905Y-97811961D02*
X138857143Y-97907200D01*
X138857143Y-97907200D02*
X139000000Y-97954819D01*
X139000000Y-97954819D02*
X139095238Y-97954819D01*
X139095238Y-97954819D02*
X139238095Y-97907200D01*
X139238095Y-97907200D02*
X139285714Y-97859580D01*
X139285714Y-97859580D02*
X139285714Y-97526247D01*
X139285714Y-97526247D02*
X139095238Y-97526247D01*
X139714286Y-97954819D02*
X139714286Y-96954819D01*
X139714286Y-96954819D02*
X140285714Y-97954819D01*
X140285714Y-97954819D02*
X140285714Y-96954819D01*
X140761905Y-97954819D02*
X140761905Y-96954819D01*
X140761905Y-96954819D02*
X141000000Y-96954819D01*
X141000000Y-96954819D02*
X141142857Y-97002438D01*
X141142857Y-97002438D02*
X141238095Y-97097676D01*
X141238095Y-97097676D02*
X141285714Y-97192914D01*
X141285714Y-97192914D02*
X141333333Y-97383390D01*
X141333333Y-97383390D02*
X141333333Y-97526247D01*
X141333333Y-97526247D02*
X141285714Y-97716723D01*
X141285714Y-97716723D02*
X141238095Y-97811961D01*
X141238095Y-97811961D02*
X141142857Y-97907200D01*
X141142857Y-97907200D02*
X141000000Y-97954819D01*
X141000000Y-97954819D02*
X140761905Y-97954819D01*
X126238095Y-97002438D02*
X126142857Y-96954819D01*
X126142857Y-96954819D02*
X126000000Y-96954819D01*
X126000000Y-96954819D02*
X125857143Y-97002438D01*
X125857143Y-97002438D02*
X125761905Y-97097676D01*
X125761905Y-97097676D02*
X125714286Y-97192914D01*
X125714286Y-97192914D02*
X125666667Y-97383390D01*
X125666667Y-97383390D02*
X125666667Y-97526247D01*
X125666667Y-97526247D02*
X125714286Y-97716723D01*
X125714286Y-97716723D02*
X125761905Y-97811961D01*
X125761905Y-97811961D02*
X125857143Y-97907200D01*
X125857143Y-97907200D02*
X126000000Y-97954819D01*
X126000000Y-97954819D02*
X126095238Y-97954819D01*
X126095238Y-97954819D02*
X126238095Y-97907200D01*
X126238095Y-97907200D02*
X126285714Y-97859580D01*
X126285714Y-97859580D02*
X126285714Y-97526247D01*
X126285714Y-97526247D02*
X126095238Y-97526247D01*
X126714286Y-97954819D02*
X126714286Y-96954819D01*
X126714286Y-96954819D02*
X127285714Y-97954819D01*
X127285714Y-97954819D02*
X127285714Y-96954819D01*
X127761905Y-97954819D02*
X127761905Y-96954819D01*
X127761905Y-96954819D02*
X128000000Y-96954819D01*
X128000000Y-96954819D02*
X128142857Y-97002438D01*
X128142857Y-97002438D02*
X128238095Y-97097676D01*
X128238095Y-97097676D02*
X128285714Y-97192914D01*
X128285714Y-97192914D02*
X128333333Y-97383390D01*
X128333333Y-97383390D02*
X128333333Y-97526247D01*
X128333333Y-97526247D02*
X128285714Y-97716723D01*
X128285714Y-97716723D02*
X128238095Y-97811961D01*
X128238095Y-97811961D02*
X128142857Y-97907200D01*
X128142857Y-97907200D02*
X128000000Y-97954819D01*
X128000000Y-97954819D02*
X127761905Y-97954819D01*
X160824819Y-87119047D02*
X160824819Y-87690475D01*
X160824819Y-87404761D02*
X159824819Y-87404761D01*
X159824819Y-87404761D02*
X159967676Y-87499999D01*
X159967676Y-87499999D02*
X160062914Y-87595237D01*
X160062914Y-87595237D02*
X160110533Y-87690475D01*
X160824819Y-86690475D02*
X159824819Y-86690475D01*
X160443866Y-86595237D02*
X160824819Y-86309523D01*
X160158152Y-86309523D02*
X160539104Y-86690475D01*
X107169104Y-98714285D02*
X107169104Y-98238095D01*
X107454819Y-98809523D02*
X106454819Y-98476190D01*
X106454819Y-98476190D02*
X107454819Y-98142857D01*
X107454819Y-97761904D02*
X107454819Y-97571428D01*
X107454819Y-97571428D02*
X107407200Y-97476190D01*
X107407200Y-97476190D02*
X107359580Y-97428571D01*
X107359580Y-97428571D02*
X107216723Y-97333333D01*
X107216723Y-97333333D02*
X107026247Y-97285714D01*
X107026247Y-97285714D02*
X106645295Y-97285714D01*
X106645295Y-97285714D02*
X106550057Y-97333333D01*
X106550057Y-97333333D02*
X106502438Y-97380952D01*
X106502438Y-97380952D02*
X106454819Y-97476190D01*
X106454819Y-97476190D02*
X106454819Y-97666666D01*
X106454819Y-97666666D02*
X106502438Y-97761904D01*
X106502438Y-97761904D02*
X106550057Y-97809523D01*
X106550057Y-97809523D02*
X106645295Y-97857142D01*
X106645295Y-97857142D02*
X106883390Y-97857142D01*
X106883390Y-97857142D02*
X106978628Y-97809523D01*
X106978628Y-97809523D02*
X107026247Y-97761904D01*
X107026247Y-97761904D02*
X107073866Y-97666666D01*
X107073866Y-97666666D02*
X107073866Y-97476190D01*
X107073866Y-97476190D02*
X107026247Y-97380952D01*
X107026247Y-97380952D02*
X106978628Y-97333333D01*
X106978628Y-97333333D02*
X106883390Y-97285714D01*
X151238095Y-97002438D02*
X151142857Y-96954819D01*
X151142857Y-96954819D02*
X151000000Y-96954819D01*
X151000000Y-96954819D02*
X150857143Y-97002438D01*
X150857143Y-97002438D02*
X150761905Y-97097676D01*
X150761905Y-97097676D02*
X150714286Y-97192914D01*
X150714286Y-97192914D02*
X150666667Y-97383390D01*
X150666667Y-97383390D02*
X150666667Y-97526247D01*
X150666667Y-97526247D02*
X150714286Y-97716723D01*
X150714286Y-97716723D02*
X150761905Y-97811961D01*
X150761905Y-97811961D02*
X150857143Y-97907200D01*
X150857143Y-97907200D02*
X151000000Y-97954819D01*
X151000000Y-97954819D02*
X151095238Y-97954819D01*
X151095238Y-97954819D02*
X151238095Y-97907200D01*
X151238095Y-97907200D02*
X151285714Y-97859580D01*
X151285714Y-97859580D02*
X151285714Y-97526247D01*
X151285714Y-97526247D02*
X151095238Y-97526247D01*
X151714286Y-97954819D02*
X151714286Y-96954819D01*
X151714286Y-96954819D02*
X152285714Y-97954819D01*
X152285714Y-97954819D02*
X152285714Y-96954819D01*
X152761905Y-97954819D02*
X152761905Y-96954819D01*
X152761905Y-96954819D02*
X153000000Y-96954819D01*
X153000000Y-96954819D02*
X153142857Y-97002438D01*
X153142857Y-97002438D02*
X153238095Y-97097676D01*
X153238095Y-97097676D02*
X153285714Y-97192914D01*
X153285714Y-97192914D02*
X153333333Y-97383390D01*
X153333333Y-97383390D02*
X153333333Y-97526247D01*
X153333333Y-97526247D02*
X153285714Y-97716723D01*
X153285714Y-97716723D02*
X153238095Y-97811961D01*
X153238095Y-97811961D02*
X153142857Y-97907200D01*
X153142857Y-97907200D02*
X153000000Y-97954819D01*
X153000000Y-97954819D02*
X152761905Y-97954819D01*
X169169104Y-98690475D02*
X169169104Y-98214285D01*
X169454819Y-98785713D02*
X168454819Y-98452380D01*
X168454819Y-98452380D02*
X169454819Y-98119047D01*
X169454819Y-97261904D02*
X169454819Y-97833332D01*
X169454819Y-97547618D02*
X168454819Y-97547618D01*
X168454819Y-97547618D02*
X168597676Y-97642856D01*
X168597676Y-97642856D02*
X168692914Y-97738094D01*
X168692914Y-97738094D02*
X168740533Y-97833332D01*
X168788152Y-96404761D02*
X169454819Y-96404761D01*
X168407200Y-96642856D02*
X169121485Y-96880951D01*
X169121485Y-96880951D02*
X169121485Y-96261904D01*
X99954819Y-87119047D02*
X99954819Y-87690475D01*
X99954819Y-87404761D02*
X98954819Y-87404761D01*
X98954819Y-87404761D02*
X99097676Y-87499999D01*
X99097676Y-87499999D02*
X99192914Y-87595237D01*
X99192914Y-87595237D02*
X99240533Y-87690475D01*
X99954819Y-86690475D02*
X98954819Y-86690475D01*
X99573866Y-86595237D02*
X99954819Y-86309523D01*
X99288152Y-86309523D02*
X99669104Y-86690475D01*
X173454819Y-87119047D02*
X173454819Y-87690475D01*
X173454819Y-87404761D02*
X172454819Y-87404761D01*
X172454819Y-87404761D02*
X172597676Y-87499999D01*
X172597676Y-87499999D02*
X172692914Y-87595237D01*
X172692914Y-87595237D02*
X172740533Y-87690475D01*
X173454819Y-86690475D02*
X172454819Y-86690475D01*
X173073866Y-86595237D02*
X173454819Y-86309523D01*
X172788152Y-86309523D02*
X173169104Y-86690475D01*
X101238095Y-97002438D02*
X101142857Y-96954819D01*
X101142857Y-96954819D02*
X101000000Y-96954819D01*
X101000000Y-96954819D02*
X100857143Y-97002438D01*
X100857143Y-97002438D02*
X100761905Y-97097676D01*
X100761905Y-97097676D02*
X100714286Y-97192914D01*
X100714286Y-97192914D02*
X100666667Y-97383390D01*
X100666667Y-97383390D02*
X100666667Y-97526247D01*
X100666667Y-97526247D02*
X100714286Y-97716723D01*
X100714286Y-97716723D02*
X100761905Y-97811961D01*
X100761905Y-97811961D02*
X100857143Y-97907200D01*
X100857143Y-97907200D02*
X101000000Y-97954819D01*
X101000000Y-97954819D02*
X101095238Y-97954819D01*
X101095238Y-97954819D02*
X101238095Y-97907200D01*
X101238095Y-97907200D02*
X101285714Y-97859580D01*
X101285714Y-97859580D02*
X101285714Y-97526247D01*
X101285714Y-97526247D02*
X101095238Y-97526247D01*
X101714286Y-97954819D02*
X101714286Y-96954819D01*
X101714286Y-96954819D02*
X102285714Y-97954819D01*
X102285714Y-97954819D02*
X102285714Y-96954819D01*
X102761905Y-97954819D02*
X102761905Y-96954819D01*
X102761905Y-96954819D02*
X103000000Y-96954819D01*
X103000000Y-96954819D02*
X103142857Y-97002438D01*
X103142857Y-97002438D02*
X103238095Y-97097676D01*
X103238095Y-97097676D02*
X103285714Y-97192914D01*
X103285714Y-97192914D02*
X103333333Y-97383390D01*
X103333333Y-97383390D02*
X103333333Y-97526247D01*
X103333333Y-97526247D02*
X103285714Y-97716723D01*
X103285714Y-97716723D02*
X103238095Y-97811961D01*
X103238095Y-97811961D02*
X103142857Y-97907200D01*
X103142857Y-97907200D02*
X103000000Y-97954819D01*
X103000000Y-97954819D02*
X102761905Y-97954819D01*
X92954819Y-88785713D02*
X92954819Y-88166666D01*
X92954819Y-88166666D02*
X93335771Y-88499999D01*
X93335771Y-88499999D02*
X93335771Y-88357142D01*
X93335771Y-88357142D02*
X93383390Y-88261904D01*
X93383390Y-88261904D02*
X93431009Y-88214285D01*
X93431009Y-88214285D02*
X93526247Y-88166666D01*
X93526247Y-88166666D02*
X93764342Y-88166666D01*
X93764342Y-88166666D02*
X93859580Y-88214285D01*
X93859580Y-88214285D02*
X93907200Y-88261904D01*
X93907200Y-88261904D02*
X93954819Y-88357142D01*
X93954819Y-88357142D02*
X93954819Y-88642856D01*
X93954819Y-88642856D02*
X93907200Y-88738094D01*
X93907200Y-88738094D02*
X93859580Y-88785713D01*
X92954819Y-87833332D02*
X92954819Y-87214285D01*
X92954819Y-87214285D02*
X93335771Y-87547618D01*
X93335771Y-87547618D02*
X93335771Y-87404761D01*
X93335771Y-87404761D02*
X93383390Y-87309523D01*
X93383390Y-87309523D02*
X93431009Y-87261904D01*
X93431009Y-87261904D02*
X93526247Y-87214285D01*
X93526247Y-87214285D02*
X93764342Y-87214285D01*
X93764342Y-87214285D02*
X93859580Y-87261904D01*
X93859580Y-87261904D02*
X93907200Y-87309523D01*
X93907200Y-87309523D02*
X93954819Y-87404761D01*
X93954819Y-87404761D02*
X93954819Y-87690475D01*
X93954819Y-87690475D02*
X93907200Y-87785713D01*
X93907200Y-87785713D02*
X93859580Y-87833332D01*
X92954819Y-86595237D02*
X92954819Y-86499999D01*
X92954819Y-86499999D02*
X93002438Y-86404761D01*
X93002438Y-86404761D02*
X93050057Y-86357142D01*
X93050057Y-86357142D02*
X93145295Y-86309523D01*
X93145295Y-86309523D02*
X93335771Y-86261904D01*
X93335771Y-86261904D02*
X93573866Y-86261904D01*
X93573866Y-86261904D02*
X93764342Y-86309523D01*
X93764342Y-86309523D02*
X93859580Y-86357142D01*
X93859580Y-86357142D02*
X93907200Y-86404761D01*
X93907200Y-86404761D02*
X93954819Y-86499999D01*
X93954819Y-86499999D02*
X93954819Y-86595237D01*
X93954819Y-86595237D02*
X93907200Y-86690475D01*
X93907200Y-86690475D02*
X93859580Y-86738094D01*
X93859580Y-86738094D02*
X93764342Y-86785713D01*
X93764342Y-86785713D02*
X93573866Y-86833332D01*
X93573866Y-86833332D02*
X93335771Y-86833332D01*
X93335771Y-86833332D02*
X93145295Y-86785713D01*
X93145295Y-86785713D02*
X93050057Y-86738094D01*
X93050057Y-86738094D02*
X93002438Y-86690475D01*
X93002438Y-86690475D02*
X92954819Y-86595237D01*
X119669104Y-98690475D02*
X119669104Y-98214285D01*
X119954819Y-98785713D02*
X118954819Y-98452380D01*
X118954819Y-98452380D02*
X119954819Y-98119047D01*
X119954819Y-97261904D02*
X119954819Y-97833332D01*
X119954819Y-97547618D02*
X118954819Y-97547618D01*
X118954819Y-97547618D02*
X119097676Y-97642856D01*
X119097676Y-97642856D02*
X119192914Y-97738094D01*
X119192914Y-97738094D02*
X119240533Y-97833332D01*
X118954819Y-96642856D02*
X118954819Y-96547618D01*
X118954819Y-96547618D02*
X119002438Y-96452380D01*
X119002438Y-96452380D02*
X119050057Y-96404761D01*
X119050057Y-96404761D02*
X119145295Y-96357142D01*
X119145295Y-96357142D02*
X119335771Y-96309523D01*
X119335771Y-96309523D02*
X119573866Y-96309523D01*
X119573866Y-96309523D02*
X119764342Y-96357142D01*
X119764342Y-96357142D02*
X119859580Y-96404761D01*
X119859580Y-96404761D02*
X119907200Y-96452380D01*
X119907200Y-96452380D02*
X119954819Y-96547618D01*
X119954819Y-96547618D02*
X119954819Y-96642856D01*
X119954819Y-96642856D02*
X119907200Y-96738094D01*
X119907200Y-96738094D02*
X119859580Y-96785713D01*
X119859580Y-96785713D02*
X119764342Y-96833332D01*
X119764342Y-96833332D02*
X119573866Y-96880951D01*
X119573866Y-96880951D02*
X119335771Y-96880951D01*
X119335771Y-96880951D02*
X119145295Y-96833332D01*
X119145295Y-96833332D02*
X119050057Y-96785713D01*
X119050057Y-96785713D02*
X119002438Y-96738094D01*
X119002438Y-96738094D02*
X118954819Y-96642856D01*
X118954819Y-87119047D02*
X118954819Y-87690475D01*
X118954819Y-87404761D02*
X117954819Y-87404761D01*
X117954819Y-87404761D02*
X118097676Y-87499999D01*
X118097676Y-87499999D02*
X118192914Y-87595237D01*
X118192914Y-87595237D02*
X118240533Y-87690475D01*
X118954819Y-86690475D02*
X117954819Y-86690475D01*
X118573866Y-86595237D02*
X118954819Y-86309523D01*
X118288152Y-86309523D02*
X118669104Y-86690475D01*
X95285714Y-98169104D02*
X95761904Y-98169104D01*
X95190476Y-98454819D02*
X95523809Y-97454819D01*
X95523809Y-97454819D02*
X95857142Y-98454819D01*
X96333333Y-97883390D02*
X96238095Y-97835771D01*
X96238095Y-97835771D02*
X96190476Y-97788152D01*
X96190476Y-97788152D02*
X96142857Y-97692914D01*
X96142857Y-97692914D02*
X96142857Y-97645295D01*
X96142857Y-97645295D02*
X96190476Y-97550057D01*
X96190476Y-97550057D02*
X96238095Y-97502438D01*
X96238095Y-97502438D02*
X96333333Y-97454819D01*
X96333333Y-97454819D02*
X96523809Y-97454819D01*
X96523809Y-97454819D02*
X96619047Y-97502438D01*
X96619047Y-97502438D02*
X96666666Y-97550057D01*
X96666666Y-97550057D02*
X96714285Y-97645295D01*
X96714285Y-97645295D02*
X96714285Y-97692914D01*
X96714285Y-97692914D02*
X96666666Y-97788152D01*
X96666666Y-97788152D02*
X96619047Y-97835771D01*
X96619047Y-97835771D02*
X96523809Y-97883390D01*
X96523809Y-97883390D02*
X96333333Y-97883390D01*
X96333333Y-97883390D02*
X96238095Y-97931009D01*
X96238095Y-97931009D02*
X96190476Y-97978628D01*
X96190476Y-97978628D02*
X96142857Y-98073866D01*
X96142857Y-98073866D02*
X96142857Y-98264342D01*
X96142857Y-98264342D02*
X96190476Y-98359580D01*
X96190476Y-98359580D02*
X96238095Y-98407200D01*
X96238095Y-98407200D02*
X96333333Y-98454819D01*
X96333333Y-98454819D02*
X96523809Y-98454819D01*
X96523809Y-98454819D02*
X96619047Y-98407200D01*
X96619047Y-98407200D02*
X96666666Y-98359580D01*
X96666666Y-98359580D02*
X96714285Y-98264342D01*
X96714285Y-98264342D02*
X96714285Y-98073866D01*
X96714285Y-98073866D02*
X96666666Y-97978628D01*
X96666666Y-97978628D02*
X96619047Y-97931009D01*
X96619047Y-97931009D02*
X96523809Y-97883390D01*
X111324819Y-87119047D02*
X111324819Y-87690475D01*
X111324819Y-87404761D02*
X110324819Y-87404761D01*
X110324819Y-87404761D02*
X110467676Y-87499999D01*
X110467676Y-87499999D02*
X110562914Y-87595237D01*
X110562914Y-87595237D02*
X110610533Y-87690475D01*
X111324819Y-86690475D02*
X110324819Y-86690475D01*
X110943866Y-86595237D02*
X111324819Y-86309523D01*
X110658152Y-86309523D02*
X111039104Y-86690475D01*
X136324819Y-87119047D02*
X136324819Y-87690475D01*
X136324819Y-87404761D02*
X135324819Y-87404761D01*
X135324819Y-87404761D02*
X135467676Y-87499999D01*
X135467676Y-87499999D02*
X135562914Y-87595237D01*
X135562914Y-87595237D02*
X135610533Y-87690475D01*
X136324819Y-86690475D02*
X135324819Y-86690475D01*
X135943866Y-86595237D02*
X136324819Y-86309523D01*
X135658152Y-86309523D02*
X136039104Y-86690475D01*
X114238095Y-97002438D02*
X114142857Y-96954819D01*
X114142857Y-96954819D02*
X114000000Y-96954819D01*
X114000000Y-96954819D02*
X113857143Y-97002438D01*
X113857143Y-97002438D02*
X113761905Y-97097676D01*
X113761905Y-97097676D02*
X113714286Y-97192914D01*
X113714286Y-97192914D02*
X113666667Y-97383390D01*
X113666667Y-97383390D02*
X113666667Y-97526247D01*
X113666667Y-97526247D02*
X113714286Y-97716723D01*
X113714286Y-97716723D02*
X113761905Y-97811961D01*
X113761905Y-97811961D02*
X113857143Y-97907200D01*
X113857143Y-97907200D02*
X114000000Y-97954819D01*
X114000000Y-97954819D02*
X114095238Y-97954819D01*
X114095238Y-97954819D02*
X114238095Y-97907200D01*
X114238095Y-97907200D02*
X114285714Y-97859580D01*
X114285714Y-97859580D02*
X114285714Y-97526247D01*
X114285714Y-97526247D02*
X114095238Y-97526247D01*
X114714286Y-97954819D02*
X114714286Y-96954819D01*
X114714286Y-96954819D02*
X115285714Y-97954819D01*
X115285714Y-97954819D02*
X115285714Y-96954819D01*
X115761905Y-97954819D02*
X115761905Y-96954819D01*
X115761905Y-96954819D02*
X116000000Y-96954819D01*
X116000000Y-96954819D02*
X116142857Y-97002438D01*
X116142857Y-97002438D02*
X116238095Y-97097676D01*
X116238095Y-97097676D02*
X116285714Y-97192914D01*
X116285714Y-97192914D02*
X116333333Y-97383390D01*
X116333333Y-97383390D02*
X116333333Y-97526247D01*
X116333333Y-97526247D02*
X116285714Y-97716723D01*
X116285714Y-97716723D02*
X116238095Y-97811961D01*
X116238095Y-97811961D02*
X116142857Y-97907200D01*
X116142857Y-97907200D02*
X116000000Y-97954819D01*
X116000000Y-97954819D02*
X115761905Y-97954819D01*
X148824819Y-87119047D02*
X148824819Y-87690475D01*
X148824819Y-87404761D02*
X147824819Y-87404761D01*
X147824819Y-87404761D02*
X147967676Y-87499999D01*
X147967676Y-87499999D02*
X148062914Y-87595237D01*
X148062914Y-87595237D02*
X148110533Y-87690475D01*
X148824819Y-86690475D02*
X147824819Y-86690475D01*
X148443866Y-86595237D02*
X148824819Y-86309523D01*
X148158152Y-86309523D02*
X148539104Y-86690475D01*
D11*
%TO.C,A13*%
X155900000Y-100100000D02*
X155900000Y-102900000D01*
X160100000Y-100100000D02*
X160100000Y-102900000D01*
X155900000Y-100100000D02*
G75*
G02*
X160109242Y-100113963I2100000J-1400000D01*
G01*
X160100000Y-102900000D02*
G75*
G02*
X155890758Y-102886037I-2100000J1400000D01*
G01*
%TO.C,GND*%
X165545000Y-98710000D02*
X162455000Y-98710000D01*
X164000462Y-104260000D02*
G75*
G02*
X162455170Y-98710000I-462J2990000D01*
G01*
X165544830Y-98710000D02*
G75*
G02*
X163999538Y-104260000I-1544830J-2560000D01*
G01*
X166500000Y-101270000D02*
G75*
G02*
X161500000Y-101270000I-2500000J0D01*
G01*
X161500000Y-101270000D02*
G75*
G02*
X166500000Y-101270000I2500000J0D01*
G01*
%TO.C,A11*%
X131400000Y-100100000D02*
X131400000Y-102900000D01*
X135600000Y-100100000D02*
X135600000Y-102900000D01*
X131400000Y-100100000D02*
G75*
G02*
X135609242Y-100113963I2100000J-1400000D01*
G01*
X135600000Y-102900000D02*
G75*
G02*
X131390758Y-102886037I-2100000J1400000D01*
G01*
%TO.C,A12*%
X143900000Y-100100000D02*
X143900000Y-102900000D01*
X148100000Y-100100000D02*
X148100000Y-102900000D01*
X143900000Y-100100000D02*
G75*
G02*
X148109242Y-100113963I2100000J-1400000D01*
G01*
X148100000Y-102900000D02*
G75*
G02*
X143890758Y-102886037I-2100000J1400000D01*
G01*
%TO.C,VCC*%
X96895000Y-76330000D02*
X96895000Y-75000000D01*
X98225000Y-76330000D02*
X96895000Y-76330000D01*
X99495000Y-73670000D02*
X102095000Y-73670000D01*
X99495000Y-76330000D02*
X99495000Y-73670000D01*
X99495000Y-76330000D02*
X102095000Y-76330000D01*
X102095000Y-76330000D02*
X102095000Y-73670000D01*
%TO.C,GND*%
X141545000Y-98710000D02*
X138455000Y-98710000D01*
X140000462Y-104260000D02*
G75*
G02*
X138455170Y-98710000I-462J2990000D01*
G01*
X141544830Y-98710000D02*
G75*
G02*
X139999538Y-104260000I-1544830J-2560000D01*
G01*
X142500000Y-101270000D02*
G75*
G02*
X137500000Y-101270000I-2500000J0D01*
G01*
X137500000Y-101270000D02*
G75*
G02*
X142500000Y-101270000I2500000J0D01*
G01*
X128545000Y-98710000D02*
X125455000Y-98710000D01*
X127000462Y-104260000D02*
G75*
G02*
X125455170Y-98710000I-462J2990000D01*
G01*
X128544830Y-98710000D02*
G75*
G02*
X126999538Y-104260000I-1544830J-2560000D01*
G01*
X129500000Y-101270000D02*
G75*
G02*
X124500000Y-101270000I-2500000J0D01*
G01*
X124500000Y-101270000D02*
G75*
G02*
X129500000Y-101270000I2500000J0D01*
G01*
%TO.C,1k*%
X156630000Y-86230000D02*
X156630000Y-92770000D01*
X156630000Y-92770000D02*
X159370000Y-92770000D01*
X158000000Y-85460000D02*
X158000000Y-86230000D01*
X158000000Y-93540000D02*
X158000000Y-92770000D01*
X159370000Y-86230000D02*
X156630000Y-86230000D01*
X159370000Y-92770000D02*
X159370000Y-86230000D01*
%TO.C,A9*%
X106400000Y-100100000D02*
X106400000Y-102900000D01*
X110600000Y-100100000D02*
X110600000Y-102900000D01*
X106400000Y-100100000D02*
G75*
G02*
X110609242Y-100113963I2100000J-1400000D01*
G01*
X110600000Y-102900000D02*
G75*
G02*
X106390758Y-102886037I-2100000J1400000D01*
G01*
%TO.C,GND*%
X153545000Y-98710000D02*
X150455000Y-98710000D01*
X152000462Y-104260000D02*
G75*
G02*
X150455170Y-98710000I-462J2990000D01*
G01*
X153544830Y-98710000D02*
G75*
G02*
X151999538Y-104260000I-1544830J-2560000D01*
G01*
X154500000Y-101270000D02*
G75*
G02*
X149500000Y-101270000I-2500000J0D01*
G01*
X149500000Y-101270000D02*
G75*
G02*
X154500000Y-101270000I2500000J0D01*
G01*
%TO.C,A14*%
X168400000Y-100100000D02*
X168400000Y-102900000D01*
X172600000Y-100100000D02*
X172600000Y-102900000D01*
X168400000Y-100100000D02*
G75*
G02*
X172609242Y-100113963I2100000J-1400000D01*
G01*
X172600000Y-102900000D02*
G75*
G02*
X168390758Y-102886037I-2100000J1400000D01*
G01*
%TO.C,1k*%
X100630000Y-86230000D02*
X100630000Y-92770000D01*
X100630000Y-92770000D02*
X103370000Y-92770000D01*
X102000000Y-85460000D02*
X102000000Y-86230000D01*
X102000000Y-93540000D02*
X102000000Y-92770000D01*
X103370000Y-86230000D02*
X100630000Y-86230000D01*
X103370000Y-92770000D02*
X103370000Y-86230000D01*
X169130000Y-86310000D02*
X169130000Y-92850000D01*
X169130000Y-92850000D02*
X171870000Y-92850000D01*
X170500000Y-85540000D02*
X170500000Y-86310000D01*
X170500000Y-93620000D02*
X170500000Y-92850000D01*
X171870000Y-86310000D02*
X169130000Y-86310000D01*
X171870000Y-92850000D02*
X171870000Y-86310000D01*
%TO.C,GND*%
X103545000Y-98710000D02*
X100455000Y-98710000D01*
X102000462Y-104260000D02*
G75*
G02*
X100455170Y-98710000I-462J2990000D01*
G01*
X103544830Y-98710000D02*
G75*
G02*
X101999538Y-104260000I-1544830J-2560000D01*
G01*
X104500000Y-101270000D02*
G75*
G02*
X99500000Y-101270000I-2500000J0D01*
G01*
X99500000Y-101270000D02*
G75*
G02*
X104500000Y-101270000I2500000J0D01*
G01*
%TO.C,J1*%
X129510000Y-76330000D02*
X129510000Y-75000000D01*
X130840000Y-76330000D02*
X129510000Y-76330000D01*
X132110000Y-73670000D02*
X147410000Y-73670000D01*
X132110000Y-76330000D02*
X132110000Y-73670000D01*
X132110000Y-76330000D02*
X147410000Y-76330000D01*
X147410000Y-76330000D02*
X147410000Y-73670000D01*
%TO.C,330*%
X94630000Y-86230000D02*
X94630000Y-92770000D01*
X94630000Y-92770000D02*
X97370000Y-92770000D01*
X96000000Y-85460000D02*
X96000000Y-86230000D01*
X96000000Y-93540000D02*
X96000000Y-92770000D01*
X97370000Y-86230000D02*
X94630000Y-86230000D01*
X97370000Y-92770000D02*
X97370000Y-86230000D01*
%TO.C,A10*%
X118900000Y-100100000D02*
X118900000Y-102900000D01*
X123100000Y-100100000D02*
X123100000Y-102900000D01*
X118900000Y-100100000D02*
G75*
G02*
X123109242Y-100113963I2100000J-1400000D01*
G01*
X123100000Y-102900000D02*
G75*
G02*
X118890758Y-102886037I-2100000J1400000D01*
G01*
%TO.C,1k*%
X119630000Y-86310000D02*
X119630000Y-92850000D01*
X119630000Y-92850000D02*
X122370000Y-92850000D01*
X121000000Y-85540000D02*
X121000000Y-86310000D01*
X121000000Y-93620000D02*
X121000000Y-92850000D01*
X122370000Y-86310000D02*
X119630000Y-86310000D01*
X122370000Y-92850000D02*
X122370000Y-86310000D01*
%TO.C,A8*%
X93900000Y-100100000D02*
X93900000Y-102900000D01*
X98100000Y-100100000D02*
X98100000Y-102900000D01*
X93900000Y-100100000D02*
G75*
G02*
X98109242Y-100113963I2100000J-1400000D01*
G01*
X98100000Y-102900000D02*
G75*
G02*
X93890758Y-102886037I-2100000J1400000D01*
G01*
%TO.C,1k*%
X107130000Y-86230000D02*
X107130000Y-92770000D01*
X107130000Y-92770000D02*
X109870000Y-92770000D01*
X108500000Y-85460000D02*
X108500000Y-86230000D01*
X108500000Y-93540000D02*
X108500000Y-92770000D01*
X109870000Y-86230000D02*
X107130000Y-86230000D01*
X109870000Y-92770000D02*
X109870000Y-86230000D01*
X132130000Y-86310000D02*
X132130000Y-92850000D01*
X132130000Y-92850000D02*
X134870000Y-92850000D01*
X133500000Y-85540000D02*
X133500000Y-86310000D01*
X133500000Y-93620000D02*
X133500000Y-92850000D01*
X134870000Y-86310000D02*
X132130000Y-86310000D01*
X134870000Y-92850000D02*
X134870000Y-86310000D01*
%TO.C,GND*%
X116545000Y-98710000D02*
X113455000Y-98710000D01*
X115000462Y-104260000D02*
G75*
G02*
X113455170Y-98710000I-462J2990000D01*
G01*
X116544830Y-98710000D02*
G75*
G02*
X114999538Y-104260000I-1544830J-2560000D01*
G01*
X117500000Y-101270000D02*
G75*
G02*
X112500000Y-101270000I-2500000J0D01*
G01*
X112500000Y-101270000D02*
G75*
G02*
X117500000Y-101270000I2500000J0D01*
G01*
%TO.C,1k*%
X144630000Y-86230000D02*
X144630000Y-92770000D01*
X144630000Y-92770000D02*
X147370000Y-92770000D01*
X146000000Y-85460000D02*
X146000000Y-86230000D01*
X146000000Y-93540000D02*
X146000000Y-92770000D01*
X147370000Y-86230000D02*
X144630000Y-86230000D01*
X147370000Y-92770000D02*
X147370000Y-86230000D01*
%TD*%
M02*
