%TF.GenerationSoftware,KiCad,Pcbnew,8.0.6*%
%TF.CreationDate,2024-11-04T15:23:12-08:00*%
%TF.ProjectId,201_final_project_sensor_array,3230315f-6669-46e6-916c-5f70726f6a65,rev?*%
%TF.SameCoordinates,Original*%
%TF.FileFunction,Soldermask,Top*%
%TF.FilePolarity,Negative*%
%FSLAX46Y46*%
G04 Gerber Fmt 4.6, Leading zero omitted, Abs format (unit mm)*
G04 Created by KiCad (PCBNEW 8.0.6) date 2024-11-04 15:23:12*
%MOMM*%
%LPD*%
G01*
G04 APERTURE LIST*
%ADD10C,1.600000*%
%ADD11R,1.800000X1.800000*%
%ADD12C,1.800000*%
%ADD13R,1.700000X1.700000*%
%ADD14O,1.700000X1.700000*%
%ADD15C,6.400000*%
%ADD16O,1.600000X1.600000*%
G04 APERTURE END LIST*
D10*
%TO.C,A13*%
X158000000Y-100000000D03*
X158000000Y-103000000D03*
%TD*%
D11*
%TO.C,GND*%
X164000000Y-100000000D03*
D12*
X164000000Y-102540000D03*
%TD*%
D10*
%TO.C,A11*%
X133500000Y-100000000D03*
X133500000Y-103000000D03*
%TD*%
%TO.C,A12*%
X146000000Y-100000000D03*
X146000000Y-103000000D03*
%TD*%
D13*
%TO.C,VCC*%
X98225000Y-75000000D03*
D14*
X100765000Y-75000000D03*
%TD*%
D15*
%TO.C,H4*%
X95500000Y-110500000D03*
%TD*%
D11*
%TO.C,GND*%
X140000000Y-100000000D03*
D12*
X140000000Y-102540000D03*
%TD*%
D11*
%TO.C,GND*%
X127000000Y-100000000D03*
D12*
X127000000Y-102540000D03*
%TD*%
D10*
%TO.C,1k*%
X158000000Y-84420000D03*
D16*
X158000000Y-94580000D03*
%TD*%
D10*
%TO.C,A9*%
X108500000Y-100000000D03*
X108500000Y-103000000D03*
%TD*%
D15*
%TO.C,H1*%
X170500000Y-110500000D03*
%TD*%
D11*
%TO.C,GND*%
X152000000Y-100000000D03*
D12*
X152000000Y-102540000D03*
%TD*%
D10*
%TO.C,A14*%
X170500000Y-100000000D03*
X170500000Y-103000000D03*
%TD*%
%TO.C,1k*%
X102000000Y-84420000D03*
D16*
X102000000Y-94580000D03*
%TD*%
D10*
%TO.C,1k*%
X170500000Y-84500000D03*
D16*
X170500000Y-94660000D03*
%TD*%
D11*
%TO.C,GND*%
X102000000Y-100000000D03*
D12*
X102000000Y-102540000D03*
%TD*%
D13*
%TO.C,J1*%
X130840000Y-75000000D03*
D14*
X133380000Y-75000000D03*
X135920000Y-75000000D03*
X138460000Y-75000000D03*
X141000000Y-75000000D03*
X143540000Y-75000000D03*
X146080000Y-75000000D03*
%TD*%
D10*
%TO.C,330*%
X96000000Y-84420000D03*
D16*
X96000000Y-94580000D03*
%TD*%
D15*
%TO.C,H3*%
X95500000Y-60500000D03*
%TD*%
%TO.C,H2*%
X170500000Y-60500000D03*
%TD*%
D10*
%TO.C,A10*%
X121000000Y-100000000D03*
X121000000Y-103000000D03*
%TD*%
%TO.C,1k*%
X121000000Y-84500000D03*
D16*
X121000000Y-94660000D03*
%TD*%
D10*
%TO.C,A8*%
X96000000Y-100000000D03*
X96000000Y-103000000D03*
%TD*%
%TO.C,1k*%
X108500000Y-84420000D03*
D16*
X108500000Y-94580000D03*
%TD*%
D10*
%TO.C,1k*%
X133500000Y-84500000D03*
D16*
X133500000Y-94660000D03*
%TD*%
D11*
%TO.C,GND*%
X115000000Y-100000000D03*
D12*
X115000000Y-102540000D03*
%TD*%
D10*
%TO.C,1k*%
X146000000Y-84420000D03*
D16*
X146000000Y-94580000D03*
%TD*%
M02*
